G75*
G70*
%OFA0B0*%
%FSLAX24Y24*%
%IPPOS*%
%LPD*%
%AMOC8*
5,1,8,0,0,1.08239X$1,22.5*
%
%ADD10C,0.0000*%
%ADD11OC8,0.0740*%
%ADD12R,0.0870X0.0240*%
%ADD13C,0.0740*%
%ADD14R,0.0472X0.0217*%
%ADD15R,0.0500X0.0579*%
%ADD16R,0.0630X0.0551*%
%ADD17R,0.0945X0.0512*%
%ADD18R,0.0630X0.2244*%
%ADD19R,0.0630X0.0709*%
%ADD20C,0.0100*%
%ADD21C,0.0356*%
%ADD22C,0.0060*%
%ADD23C,0.0120*%
%ADD24C,0.0360*%
%ADD25C,0.0240*%
D10*
X000800Y000550D02*
X016020Y000550D01*
X016064Y000552D01*
X016107Y000558D01*
X016149Y000567D01*
X016191Y000580D01*
X016231Y000597D01*
X016270Y000617D01*
X016307Y000640D01*
X016341Y000667D01*
X016374Y000696D01*
X016403Y000729D01*
X016430Y000763D01*
X016453Y000800D01*
X016473Y000839D01*
X016490Y000879D01*
X016503Y000921D01*
X016512Y000963D01*
X016518Y001006D01*
X016520Y001050D01*
X016520Y007796D01*
X016518Y007840D01*
X016512Y007883D01*
X016503Y007925D01*
X016490Y007967D01*
X016473Y008007D01*
X016453Y008046D01*
X016430Y008083D01*
X016403Y008117D01*
X016374Y008150D01*
X016341Y008179D01*
X016307Y008206D01*
X016270Y008229D01*
X016231Y008249D01*
X016191Y008266D01*
X016149Y008279D01*
X016107Y008288D01*
X016064Y008294D01*
X016020Y008296D01*
X000800Y008296D01*
X000756Y008294D01*
X000713Y008288D01*
X000671Y008279D01*
X000629Y008266D01*
X000589Y008249D01*
X000550Y008229D01*
X000513Y008206D01*
X000479Y008179D01*
X000446Y008150D01*
X000417Y008117D01*
X000390Y008083D01*
X000367Y008046D01*
X000347Y008007D01*
X000330Y007967D01*
X000317Y007925D01*
X000308Y007883D01*
X000302Y007840D01*
X000300Y007796D01*
X000300Y001050D01*
X000302Y001006D01*
X000308Y000963D01*
X000317Y000921D01*
X000330Y000879D01*
X000347Y000839D01*
X000367Y000800D01*
X000390Y000763D01*
X000417Y000729D01*
X000446Y000696D01*
X000479Y000667D01*
X000513Y000640D01*
X000550Y000617D01*
X000589Y000597D01*
X000629Y000580D01*
X000671Y000567D01*
X000713Y000558D01*
X000756Y000552D01*
X000800Y000550D01*
D11*
X008050Y001550D03*
X009050Y001450D03*
X010050Y001550D03*
X009050Y002450D03*
X008050Y002550D03*
X010050Y002550D03*
D12*
X010130Y005300D03*
X010130Y005800D03*
X010130Y006300D03*
X010130Y006800D03*
X007480Y006800D03*
X007480Y006300D03*
X007480Y005800D03*
X007480Y005300D03*
D13*
X001550Y005050D03*
X001550Y006050D03*
X001550Y007050D03*
X015550Y006550D03*
X015550Y005550D03*
X015550Y004550D03*
X015550Y003550D03*
X015550Y002550D03*
X015550Y001550D03*
D14*
X003812Y004426D03*
X003812Y004800D03*
X003812Y005174D03*
X002788Y005174D03*
X002788Y004426D03*
D15*
X002954Y007050D03*
X004646Y007050D03*
D16*
X005550Y005851D03*
X005550Y004749D03*
D17*
X005550Y003574D03*
X005550Y001526D03*
D18*
X003225Y002300D03*
X001375Y002320D03*
D19*
X012749Y002550D03*
X013851Y002550D03*
X013851Y001550D03*
X012749Y001550D03*
X012749Y003550D03*
X013851Y003550D03*
X013851Y004550D03*
X012749Y004550D03*
D20*
X013244Y004543D02*
X013801Y004543D01*
X013801Y004500D02*
X013386Y004500D01*
X013386Y004176D01*
X013396Y004138D01*
X013416Y004104D01*
X013444Y004076D01*
X013450Y004072D01*
X013443Y004066D01*
X013360Y004100D01*
X013240Y004100D01*
X013210Y004088D01*
X013244Y004121D01*
X013244Y004979D01*
X013138Y005084D01*
X012359Y005084D01*
X012285Y005010D01*
X011510Y005010D01*
X011510Y005387D01*
X011010Y005887D01*
X010887Y006010D01*
X010730Y006010D01*
X010690Y006050D01*
X010730Y006090D01*
X014713Y006090D01*
X015042Y005761D01*
X015000Y005659D01*
X015000Y005441D01*
X015084Y005238D01*
X015238Y005084D01*
X015358Y005034D01*
X015350Y005032D01*
X015277Y004995D01*
X015211Y004947D01*
X015153Y004889D01*
X015105Y004823D01*
X015068Y004750D01*
X015043Y004672D01*
X015031Y004600D01*
X015500Y004600D01*
X015500Y004500D01*
X015031Y004500D01*
X015043Y004428D01*
X015068Y004350D01*
X015105Y004277D01*
X015153Y004211D01*
X015211Y004153D01*
X015277Y004105D01*
X015350Y004068D01*
X015358Y004066D01*
X015296Y004040D01*
X014285Y004040D01*
X014253Y004072D01*
X014258Y004076D01*
X014286Y004104D01*
X014306Y004138D01*
X014316Y004176D01*
X014316Y004500D01*
X013901Y004500D01*
X013901Y004600D01*
X013801Y004600D01*
X013801Y004500D01*
X013801Y004600D02*
X013386Y004600D01*
X013386Y004924D01*
X013396Y004962D01*
X013416Y004996D01*
X013444Y005024D01*
X013478Y005044D01*
X013516Y005054D01*
X013801Y005054D01*
X013801Y004600D01*
X013801Y004642D02*
X013901Y004642D01*
X013901Y004600D02*
X013901Y005054D01*
X014186Y005054D01*
X014224Y005044D01*
X014258Y005024D01*
X014286Y004996D01*
X014306Y004962D01*
X014316Y004924D01*
X014316Y004600D01*
X013901Y004600D01*
X013901Y004543D02*
X015500Y004543D01*
X015600Y004543D02*
X016090Y004543D01*
X016069Y004500D02*
X015600Y004500D01*
X015600Y004600D01*
X016069Y004600D01*
X016057Y004672D01*
X016032Y004750D01*
X015995Y004823D01*
X015947Y004889D01*
X015889Y004947D01*
X015823Y004995D01*
X015750Y005032D01*
X015742Y005034D01*
X015862Y005084D01*
X016016Y005238D01*
X016090Y005416D01*
X016090Y003684D01*
X016016Y003862D01*
X015862Y004016D01*
X015742Y004066D01*
X015750Y004068D01*
X015823Y004105D01*
X015889Y004153D01*
X015947Y004211D01*
X015995Y004277D01*
X016032Y004350D01*
X016057Y004428D01*
X016069Y004500D01*
X016060Y004445D02*
X016090Y004445D01*
X016090Y004346D02*
X016030Y004346D01*
X015973Y004248D02*
X016090Y004248D01*
X016090Y004149D02*
X015883Y004149D01*
X015779Y004051D02*
X016090Y004051D01*
X016090Y003952D02*
X015926Y003952D01*
X016020Y003854D02*
X016090Y003854D01*
X016090Y003755D02*
X016060Y003755D01*
X015550Y003550D02*
X015300Y003800D01*
X014300Y003800D01*
X013800Y003800D01*
X013851Y003550D01*
X014346Y003558D02*
X015000Y003558D01*
X015000Y003560D02*
X015000Y003441D01*
X015084Y003238D01*
X015238Y003084D01*
X015320Y003050D01*
X015296Y003040D01*
X014285Y003040D01*
X014275Y003050D01*
X014346Y003121D01*
X014346Y003560D01*
X015000Y003560D01*
X015000Y003460D02*
X014346Y003460D01*
X014346Y003361D02*
X015033Y003361D01*
X015074Y003263D02*
X014346Y003263D01*
X014346Y003164D02*
X015158Y003164D01*
X015282Y003066D02*
X014291Y003066D01*
X014300Y002800D02*
X014100Y002800D01*
X013800Y002800D01*
X013851Y002550D01*
X014346Y002560D02*
X015000Y002560D01*
X015000Y002441D01*
X015084Y002238D01*
X015238Y002084D01*
X015320Y002050D01*
X015296Y002040D01*
X014285Y002040D01*
X014275Y002050D01*
X014346Y002121D01*
X014346Y002560D01*
X014346Y002475D02*
X015000Y002475D01*
X015027Y002376D02*
X014346Y002376D01*
X014346Y002278D02*
X015068Y002278D01*
X015143Y002179D02*
X014346Y002179D01*
X014306Y002081D02*
X015246Y002081D01*
X015780Y002050D02*
X015862Y002084D01*
X016016Y002238D01*
X016090Y002416D01*
X016090Y001684D01*
X016016Y001862D01*
X015862Y002016D01*
X015780Y002050D01*
X015854Y002081D02*
X016090Y002081D01*
X016090Y002179D02*
X015957Y002179D01*
X016032Y002278D02*
X016090Y002278D01*
X016090Y002376D02*
X016073Y002376D01*
X016090Y002684D02*
X016016Y002862D01*
X015862Y003016D01*
X015780Y003050D01*
X015862Y003084D01*
X016016Y003238D01*
X016090Y003416D01*
X016090Y002684D01*
X016090Y002770D02*
X016054Y002770D01*
X016090Y002869D02*
X016009Y002869D01*
X016090Y002967D02*
X015911Y002967D01*
X015818Y003066D02*
X016090Y003066D01*
X016090Y003164D02*
X015942Y003164D01*
X016026Y003263D02*
X016090Y003263D01*
X016090Y003361D02*
X016067Y003361D01*
X015300Y002800D02*
X015550Y002550D01*
X015300Y002800D02*
X014300Y002800D01*
X013427Y003050D02*
X013356Y003121D01*
X013356Y003500D01*
X013244Y003500D01*
X013244Y003121D01*
X013173Y003050D01*
X013244Y002979D01*
X013244Y002600D01*
X013356Y002600D01*
X013356Y002979D01*
X013427Y003050D01*
X013412Y003066D02*
X013188Y003066D01*
X013244Y003164D02*
X013356Y003164D01*
X013356Y003263D02*
X013244Y003263D01*
X013244Y003361D02*
X013356Y003361D01*
X013356Y003460D02*
X013244Y003460D01*
X012254Y003460D02*
X012010Y003460D01*
X012010Y003558D02*
X012254Y003558D01*
X012254Y003657D02*
X012010Y003657D01*
X012010Y003755D02*
X012254Y003755D01*
X012254Y003854D02*
X012010Y003854D01*
X012010Y003952D02*
X012254Y003952D01*
X012254Y003979D02*
X012254Y003121D01*
X012325Y003050D01*
X012254Y002979D01*
X012254Y002121D01*
X012325Y002050D01*
X012285Y002010D01*
X012010Y002010D01*
X012010Y004086D01*
X012054Y004130D01*
X012100Y004240D01*
X012100Y004360D01*
X012054Y004470D01*
X011970Y004554D01*
X011884Y004590D01*
X012254Y004590D01*
X012254Y004121D01*
X012325Y004050D01*
X012254Y003979D01*
X012324Y004051D02*
X012010Y004051D01*
X012062Y004149D02*
X012254Y004149D01*
X012254Y004248D02*
X012100Y004248D01*
X012100Y004346D02*
X012254Y004346D01*
X012254Y004445D02*
X012065Y004445D01*
X011981Y004543D02*
X012254Y004543D01*
X011716Y004590D02*
X011510Y004590D01*
X011510Y004384D01*
X011546Y004470D01*
X011630Y004554D01*
X011716Y004590D01*
X011619Y004543D02*
X011510Y004543D01*
X011510Y004445D02*
X011535Y004445D01*
X011510Y004216D02*
X011510Y001010D01*
X015416Y001010D01*
X015238Y001084D01*
X015084Y001238D01*
X015000Y001441D01*
X015000Y001560D01*
X014346Y001560D01*
X014346Y001121D01*
X014241Y001016D01*
X013462Y001016D01*
X013356Y001121D01*
X013356Y001979D01*
X013390Y002012D01*
X013360Y002000D01*
X013240Y002000D01*
X013210Y002012D01*
X013244Y001979D01*
X013244Y001121D01*
X013138Y001016D01*
X012359Y001016D01*
X012254Y001121D01*
X012254Y001590D01*
X011713Y001590D01*
X011590Y001713D01*
X011590Y004086D01*
X011546Y004130D01*
X011510Y004216D01*
X011510Y004149D02*
X011538Y004149D01*
X011510Y004051D02*
X011590Y004051D01*
X011590Y003952D02*
X011510Y003952D01*
X011510Y003854D02*
X011590Y003854D01*
X011590Y003755D02*
X011510Y003755D01*
X011510Y003657D02*
X011590Y003657D01*
X011590Y003558D02*
X011510Y003558D01*
X011510Y003460D02*
X011590Y003460D01*
X011590Y003361D02*
X011510Y003361D01*
X011510Y003263D02*
X011590Y003263D01*
X011590Y003164D02*
X011510Y003164D01*
X011510Y003066D02*
X011590Y003066D01*
X011590Y002967D02*
X011510Y002967D01*
X011510Y002869D02*
X011590Y002869D01*
X011590Y002770D02*
X011510Y002770D01*
X011510Y002672D02*
X011590Y002672D01*
X011590Y002573D02*
X011510Y002573D01*
X011510Y002475D02*
X011590Y002475D01*
X011590Y002376D02*
X011510Y002376D01*
X011510Y002278D02*
X011590Y002278D01*
X011590Y002179D02*
X011510Y002179D01*
X011510Y002081D02*
X011590Y002081D01*
X011590Y001982D02*
X011510Y001982D01*
X011510Y001884D02*
X011590Y001884D01*
X011590Y001785D02*
X011510Y001785D01*
X011510Y001687D02*
X011617Y001687D01*
X011510Y001588D02*
X012254Y001588D01*
X012254Y001490D02*
X011510Y001490D01*
X011510Y001391D02*
X012254Y001391D01*
X012254Y001293D02*
X011510Y001293D01*
X011510Y001194D02*
X012254Y001194D01*
X012279Y001096D02*
X011510Y001096D01*
X011090Y001096D02*
X010373Y001096D01*
X010472Y001194D02*
X011090Y001194D01*
X011090Y001293D02*
X010570Y001293D01*
X010600Y001322D02*
X010600Y001778D01*
X010587Y001790D01*
X011010Y002213D01*
X011010Y004887D01*
X010887Y005010D01*
X010745Y005152D01*
X010745Y005495D01*
X010690Y005550D01*
X010721Y005582D01*
X011090Y005213D01*
X011090Y001010D01*
X010288Y001010D01*
X010600Y001322D01*
X010600Y001391D02*
X011090Y001391D01*
X011090Y001490D02*
X010600Y001490D01*
X010600Y001588D02*
X011090Y001588D01*
X011090Y001687D02*
X010600Y001687D01*
X010593Y001785D02*
X011090Y001785D01*
X011090Y001884D02*
X010680Y001884D01*
X010779Y001982D02*
X011090Y001982D01*
X011090Y002081D02*
X010877Y002081D01*
X010976Y002179D02*
X011090Y002179D01*
X011090Y002278D02*
X011010Y002278D01*
X011010Y002376D02*
X011090Y002376D01*
X011090Y002475D02*
X011010Y002475D01*
X011010Y002573D02*
X011090Y002573D01*
X011090Y002672D02*
X011010Y002672D01*
X011010Y002770D02*
X011090Y002770D01*
X011090Y002869D02*
X011010Y002869D01*
X011010Y002967D02*
X011090Y002967D01*
X011090Y003066D02*
X011010Y003066D01*
X011010Y003164D02*
X011090Y003164D01*
X011090Y003263D02*
X011010Y003263D01*
X011010Y003361D02*
X011090Y003361D01*
X011090Y003460D02*
X011010Y003460D01*
X011010Y003558D02*
X011090Y003558D01*
X011090Y003657D02*
X011010Y003657D01*
X011010Y003755D02*
X011090Y003755D01*
X011090Y003854D02*
X011010Y003854D01*
X011010Y003952D02*
X011090Y003952D01*
X011090Y004051D02*
X011010Y004051D01*
X011010Y004149D02*
X011090Y004149D01*
X011090Y004248D02*
X011010Y004248D01*
X011010Y004346D02*
X011090Y004346D01*
X011090Y004445D02*
X011010Y004445D01*
X011010Y004543D02*
X011090Y004543D01*
X011090Y004642D02*
X011010Y004642D01*
X011010Y004740D02*
X011090Y004740D01*
X011090Y004839D02*
X011010Y004839D01*
X010960Y004937D02*
X011090Y004937D01*
X011090Y005036D02*
X010861Y005036D01*
X010763Y005134D02*
X011090Y005134D01*
X011071Y005233D02*
X010745Y005233D01*
X010745Y005331D02*
X010972Y005331D01*
X010874Y005430D02*
X010745Y005430D01*
X010775Y005528D02*
X010712Y005528D01*
X011172Y005725D02*
X015027Y005725D01*
X015000Y005627D02*
X011270Y005627D01*
X011369Y005528D02*
X015000Y005528D01*
X015005Y005430D02*
X011467Y005430D01*
X011510Y005331D02*
X015045Y005331D01*
X015090Y005233D02*
X011510Y005233D01*
X011510Y005134D02*
X015188Y005134D01*
X015355Y005036D02*
X014239Y005036D01*
X014313Y004937D02*
X015202Y004937D01*
X015117Y004839D02*
X014316Y004839D01*
X014316Y004740D02*
X015065Y004740D01*
X015038Y004642D02*
X014316Y004642D01*
X013901Y004740D02*
X013801Y004740D01*
X013801Y004839D02*
X013901Y004839D01*
X013901Y004937D02*
X013801Y004937D01*
X013801Y005036D02*
X013901Y005036D01*
X013463Y005036D02*
X013187Y005036D01*
X013244Y004937D02*
X013390Y004937D01*
X013386Y004839D02*
X013244Y004839D01*
X013244Y004740D02*
X013386Y004740D01*
X013386Y004642D02*
X013244Y004642D01*
X013244Y004445D02*
X013386Y004445D01*
X013386Y004346D02*
X013244Y004346D01*
X013244Y004248D02*
X013386Y004248D01*
X013393Y004149D02*
X013244Y004149D01*
X014275Y004051D02*
X015321Y004051D01*
X015217Y004149D02*
X014309Y004149D01*
X014316Y004248D02*
X015127Y004248D01*
X015070Y004346D02*
X014316Y004346D01*
X014316Y004445D02*
X015040Y004445D01*
X016035Y004740D02*
X016090Y004740D01*
X016090Y004642D02*
X016062Y004642D01*
X016090Y004839D02*
X015983Y004839D01*
X015898Y004937D02*
X016090Y004937D01*
X016090Y005036D02*
X015745Y005036D01*
X015912Y005134D02*
X016090Y005134D01*
X016090Y005233D02*
X016010Y005233D01*
X016055Y005331D02*
X016090Y005331D01*
X016090Y005684D02*
X016069Y005734D01*
X016090Y005713D01*
X016090Y005684D01*
X016078Y005725D02*
X016073Y005725D01*
X016340Y006057D02*
X016058Y006339D01*
X016100Y006441D01*
X016100Y006659D01*
X016016Y006862D01*
X015862Y007016D01*
X015659Y007100D01*
X015441Y007100D01*
X015238Y007016D01*
X015084Y006862D01*
X015000Y006659D01*
X015000Y006441D01*
X015031Y006366D01*
X014887Y006510D01*
X014713Y006510D01*
X010730Y006510D01*
X010668Y006571D01*
X010685Y006588D01*
X010705Y006622D01*
X010715Y006660D01*
X010715Y006790D01*
X010140Y006790D01*
X010140Y006810D01*
X010120Y006810D01*
X010120Y007070D01*
X009675Y007070D01*
X009637Y007060D01*
X009603Y007040D01*
X009575Y007012D01*
X009555Y006978D01*
X009545Y006940D01*
X009545Y006810D01*
X010120Y006810D01*
X010120Y006790D01*
X009545Y006790D01*
X009545Y006660D01*
X009555Y006622D01*
X009575Y006588D01*
X009592Y006571D01*
X009515Y006495D01*
X009515Y006105D01*
X009570Y006050D01*
X009515Y005995D01*
X009515Y005605D01*
X009570Y005550D01*
X009515Y005495D01*
X009515Y005105D01*
X009620Y005000D01*
X010303Y005000D01*
X010590Y004713D01*
X010590Y002387D01*
X010570Y002367D01*
X010570Y002500D01*
X010100Y002500D01*
X010100Y002600D01*
X010000Y002600D01*
X010000Y003070D01*
X009835Y003070D01*
X009530Y002765D01*
X009530Y002748D01*
X009278Y003000D01*
X009010Y003000D01*
X009010Y005887D01*
X008887Y006010D01*
X008095Y006802D01*
X008095Y006995D01*
X007990Y007100D01*
X006970Y007100D01*
X006865Y006995D01*
X006865Y006605D01*
X006920Y006550D01*
X006865Y006495D01*
X006865Y006105D01*
X006878Y006092D01*
X006860Y006100D01*
X006740Y006100D01*
X006630Y006054D01*
X006546Y005970D01*
X006500Y005860D01*
X006500Y005740D01*
X006546Y005630D01*
X006630Y005546D01*
X006740Y005500D01*
X006860Y005500D01*
X006878Y005508D01*
X006865Y005495D01*
X006865Y005204D01*
X006623Y004962D01*
X006605Y005004D01*
X006504Y005105D01*
X006372Y005160D01*
X006228Y005160D01*
X006096Y005105D01*
X006045Y005054D01*
X006045Y005099D01*
X005940Y005204D01*
X005160Y005204D01*
X005055Y005099D01*
X005055Y004399D01*
X005160Y004293D01*
X005940Y004293D01*
X006045Y004399D01*
X006045Y004546D01*
X006096Y004495D01*
X006138Y004477D01*
X005670Y004010D01*
X005003Y004010D01*
X004898Y003904D01*
X004898Y003243D01*
X005003Y003138D01*
X006060Y003138D01*
X006060Y001928D01*
X006042Y001932D01*
X005600Y001932D01*
X005600Y001576D01*
X005500Y001576D01*
X005500Y001476D01*
X005600Y001476D01*
X005600Y001120D01*
X006042Y001120D01*
X006060Y001125D01*
X006060Y001040D01*
X004899Y001040D01*
X004540Y001399D01*
X004540Y004348D01*
X004503Y004436D01*
X004228Y004711D01*
X004228Y004983D01*
X004224Y004987D01*
X004228Y004991D01*
X004228Y005357D01*
X004123Y005462D01*
X003510Y005462D01*
X003510Y006387D01*
X003297Y006600D01*
X003384Y006686D01*
X003384Y007414D01*
X003278Y007519D01*
X002906Y007519D01*
X002895Y007530D01*
X002827Y007530D01*
X002761Y007546D01*
X002735Y007530D01*
X002705Y007530D01*
X002694Y007519D01*
X002629Y007519D01*
X002524Y007414D01*
X002524Y007349D01*
X002035Y006860D01*
X002057Y006928D01*
X002069Y007000D01*
X001600Y007000D01*
X001600Y007100D01*
X001500Y007100D01*
X001500Y007569D01*
X001428Y007557D01*
X001350Y007532D01*
X001277Y007495D01*
X001211Y007447D01*
X001153Y007389D01*
X001105Y007323D01*
X001068Y007250D01*
X001043Y007172D01*
X001031Y007100D01*
X001500Y007100D01*
X001500Y007000D01*
X001031Y007000D01*
X001043Y006928D01*
X001068Y006850D01*
X001105Y006777D01*
X001153Y006711D01*
X001211Y006653D01*
X001277Y006605D01*
X001350Y006568D01*
X001358Y006566D01*
X001238Y006516D01*
X001084Y006362D01*
X001000Y006159D01*
X001000Y005941D01*
X001084Y005738D01*
X001238Y005584D01*
X001320Y005550D01*
X001238Y005516D01*
X001084Y005362D01*
X001000Y005159D01*
X001000Y004941D01*
X001070Y004772D01*
X001070Y003622D01*
X000985Y003622D01*
X000880Y003516D01*
X000880Y001123D01*
X000985Y001018D01*
X001764Y001018D01*
X001870Y001123D01*
X001870Y003516D01*
X001764Y003622D01*
X001530Y003622D01*
X001530Y004500D01*
X001659Y004500D01*
X001862Y004584D01*
X002016Y004738D01*
X002070Y004868D01*
X002070Y003205D01*
X002730Y002544D01*
X002730Y001103D01*
X002836Y000998D01*
X003615Y000998D01*
X003720Y001103D01*
X003720Y003497D01*
X003615Y003602D01*
X002836Y003602D01*
X002730Y003497D01*
X002730Y003195D01*
X002530Y003395D01*
X002530Y004138D01*
X003099Y004138D01*
X003204Y004243D01*
X003204Y004599D01*
X003213Y004590D01*
X003396Y004590D01*
X003396Y004243D01*
X003501Y004138D01*
X004060Y004138D01*
X004060Y001252D01*
X004097Y001164D01*
X004164Y001097D01*
X004531Y000730D01*
X000800Y000730D01*
X000738Y000736D01*
X000622Y000784D01*
X000534Y000872D01*
X000486Y000988D01*
X000480Y001050D01*
X000480Y007796D01*
X000486Y007858D01*
X000534Y007974D01*
X000622Y008062D01*
X000738Y008110D01*
X000800Y008116D01*
X016020Y008116D01*
X016083Y008110D01*
X016198Y008062D01*
X016286Y007974D01*
X016334Y007858D01*
X016340Y007796D01*
X016340Y006057D01*
X016340Y006119D02*
X016278Y006119D01*
X016340Y006218D02*
X016179Y006218D01*
X016081Y006316D02*
X016340Y006316D01*
X016340Y006415D02*
X016089Y006415D01*
X016100Y006513D02*
X016340Y006513D01*
X016340Y006612D02*
X016100Y006612D01*
X016079Y006710D02*
X016340Y006710D01*
X016340Y006809D02*
X016038Y006809D01*
X015971Y006907D02*
X016340Y006907D01*
X016340Y007006D02*
X015872Y007006D01*
X016340Y007104D02*
X005076Y007104D01*
X005076Y007006D02*
X006876Y007006D01*
X006865Y006907D02*
X005076Y006907D01*
X005076Y006809D02*
X006865Y006809D01*
X006865Y006710D02*
X005076Y006710D01*
X005076Y006686D02*
X004971Y006581D01*
X004906Y006581D01*
X004895Y006570D01*
X004865Y006570D01*
X004839Y006554D01*
X004773Y006570D01*
X004079Y006570D01*
X004004Y006495D01*
X003872Y006440D01*
X003728Y006440D01*
X003596Y006495D01*
X003495Y006596D01*
X003440Y006728D01*
X003440Y006872D01*
X003495Y007004D01*
X003596Y007105D01*
X003728Y007160D01*
X003872Y007160D01*
X004004Y007105D01*
X004079Y007030D01*
X004216Y007030D01*
X004216Y007414D01*
X004322Y007519D01*
X004971Y007519D01*
X005076Y007414D01*
X005076Y006686D01*
X005002Y006612D02*
X006865Y006612D01*
X006883Y006513D02*
X004022Y006513D01*
X003800Y006800D02*
X004800Y006800D01*
X004646Y007050D01*
X004216Y007104D02*
X004005Y007104D01*
X004216Y007203D02*
X003384Y007203D01*
X003384Y007301D02*
X004216Y007301D01*
X004216Y007400D02*
X003384Y007400D01*
X003299Y007498D02*
X004301Y007498D01*
X004992Y007498D02*
X016340Y007498D01*
X016340Y007597D02*
X000480Y007597D01*
X000480Y007695D02*
X016340Y007695D01*
X016340Y007794D02*
X000480Y007794D01*
X000500Y007892D02*
X016320Y007892D01*
X016269Y007991D02*
X000551Y007991D01*
X000687Y008089D02*
X016133Y008089D01*
X016340Y007400D02*
X005076Y007400D01*
X005076Y007301D02*
X016340Y007301D01*
X016340Y007203D02*
X005076Y007203D01*
X005300Y007800D02*
X002300Y007800D01*
X001800Y007300D01*
X001550Y007050D01*
X001600Y007006D02*
X002180Y007006D01*
X002279Y007104D02*
X002068Y007104D01*
X002069Y007100D02*
X002057Y007172D01*
X002032Y007250D01*
X001995Y007323D01*
X001947Y007389D01*
X001889Y007447D01*
X001823Y007495D01*
X001750Y007532D01*
X001672Y007557D01*
X001600Y007569D01*
X001600Y007100D01*
X002069Y007100D01*
X002047Y007203D02*
X002377Y007203D01*
X002476Y007301D02*
X002006Y007301D01*
X001936Y007400D02*
X002524Y007400D01*
X002608Y007498D02*
X001816Y007498D01*
X001600Y007498D02*
X001500Y007498D01*
X001284Y007498D02*
X000480Y007498D01*
X000480Y007400D02*
X001164Y007400D01*
X001094Y007301D02*
X000480Y007301D01*
X000480Y007203D02*
X001053Y007203D01*
X001032Y007104D02*
X000480Y007104D01*
X000480Y007006D02*
X001500Y007006D01*
X001500Y007104D02*
X001600Y007104D01*
X001600Y007203D02*
X001500Y007203D01*
X001500Y007301D02*
X001600Y007301D01*
X001600Y007400D02*
X001500Y007400D01*
X001800Y007300D02*
X002300Y007800D01*
X005300Y007800D01*
X005300Y005800D01*
X004800Y005300D01*
X004800Y001800D01*
X005300Y001300D01*
X005550Y001526D01*
X005500Y001490D02*
X004540Y001490D01*
X004540Y001588D02*
X004928Y001588D01*
X004928Y001576D02*
X005500Y001576D01*
X005500Y001932D01*
X005058Y001932D01*
X005020Y001922D01*
X004985Y001902D01*
X004958Y001874D01*
X004938Y001840D01*
X004928Y001802D01*
X004928Y001576D01*
X004928Y001476D02*
X004928Y001251D01*
X004938Y001213D01*
X004958Y001178D01*
X004985Y001150D01*
X005020Y001131D01*
X005058Y001120D01*
X005500Y001120D01*
X005500Y001476D01*
X004928Y001476D01*
X004928Y001391D02*
X004548Y001391D01*
X004647Y001293D02*
X004928Y001293D01*
X004949Y001194D02*
X004745Y001194D01*
X004844Y001096D02*
X006060Y001096D01*
X005600Y001194D02*
X005500Y001194D01*
X005500Y001293D02*
X005600Y001293D01*
X005600Y001391D02*
X005500Y001391D01*
X005500Y001588D02*
X005600Y001588D01*
X005600Y001687D02*
X005500Y001687D01*
X005500Y001785D02*
X005600Y001785D01*
X005600Y001884D02*
X005500Y001884D01*
X006060Y001982D02*
X004540Y001982D01*
X004540Y001884D02*
X004967Y001884D01*
X004928Y001785D02*
X004540Y001785D01*
X004540Y001687D02*
X004928Y001687D01*
X004540Y002081D02*
X006060Y002081D01*
X006060Y002179D02*
X004540Y002179D01*
X004540Y002278D02*
X006060Y002278D01*
X006060Y002376D02*
X004540Y002376D01*
X004540Y002475D02*
X006060Y002475D01*
X006060Y002573D02*
X004540Y002573D01*
X004540Y002672D02*
X006060Y002672D01*
X006060Y002770D02*
X004540Y002770D01*
X004540Y002869D02*
X006060Y002869D01*
X006060Y002967D02*
X004540Y002967D01*
X004540Y003066D02*
X006060Y003066D01*
X006540Y003066D02*
X007788Y003066D01*
X007762Y003040D02*
X006540Y003040D01*
X006540Y004201D01*
X007339Y005000D01*
X007990Y005000D01*
X008090Y005100D01*
X008090Y004014D01*
X008046Y003970D01*
X008000Y003860D01*
X008000Y003740D01*
X008046Y003630D01*
X008130Y003546D01*
X008240Y003500D01*
X008360Y003500D01*
X008470Y003546D01*
X008554Y003630D01*
X008590Y003716D01*
X008590Y002788D01*
X008278Y003100D01*
X007822Y003100D01*
X007762Y003040D01*
X008312Y003066D02*
X008590Y003066D01*
X008590Y003164D02*
X006540Y003164D01*
X006540Y003263D02*
X008590Y003263D01*
X008590Y003361D02*
X006540Y003361D01*
X006540Y003460D02*
X008590Y003460D01*
X008590Y003558D02*
X008482Y003558D01*
X008565Y003657D02*
X008590Y003657D01*
X009010Y003657D02*
X010590Y003657D01*
X010590Y003755D02*
X009010Y003755D01*
X009010Y003854D02*
X010590Y003854D01*
X010590Y003952D02*
X009010Y003952D01*
X009010Y004051D02*
X010590Y004051D01*
X010590Y004149D02*
X009010Y004149D01*
X009010Y004248D02*
X010590Y004248D01*
X010590Y004346D02*
X009010Y004346D01*
X009010Y004445D02*
X010590Y004445D01*
X010590Y004543D02*
X009010Y004543D01*
X009010Y004642D02*
X010590Y004642D01*
X010563Y004740D02*
X009010Y004740D01*
X009010Y004839D02*
X010465Y004839D01*
X010366Y004937D02*
X009010Y004937D01*
X009010Y005036D02*
X009585Y005036D01*
X009515Y005134D02*
X009010Y005134D01*
X009010Y005233D02*
X009515Y005233D01*
X009515Y005331D02*
X009010Y005331D01*
X009010Y005430D02*
X009515Y005430D01*
X009548Y005528D02*
X009010Y005528D01*
X009010Y005627D02*
X009515Y005627D01*
X009515Y005725D02*
X009010Y005725D01*
X009010Y005824D02*
X009515Y005824D01*
X009515Y005922D02*
X008975Y005922D01*
X008876Y006021D02*
X009541Y006021D01*
X009515Y006119D02*
X008778Y006119D01*
X008679Y006218D02*
X009515Y006218D01*
X009515Y006316D02*
X008581Y006316D01*
X008482Y006415D02*
X009515Y006415D01*
X009533Y006513D02*
X008384Y006513D01*
X008285Y006612D02*
X009561Y006612D01*
X009545Y006710D02*
X008187Y006710D01*
X008095Y006809D02*
X010120Y006809D01*
X010140Y006809D02*
X015062Y006809D01*
X015021Y006710D02*
X010715Y006710D01*
X010699Y006612D02*
X015000Y006612D01*
X015000Y006513D02*
X010727Y006513D01*
X010715Y006810D02*
X010140Y006810D01*
X010140Y007070D01*
X010585Y007070D01*
X010623Y007060D01*
X010657Y007040D01*
X010685Y007012D01*
X010705Y006978D01*
X010715Y006940D01*
X010715Y006810D01*
X010715Y006907D02*
X015129Y006907D01*
X015228Y007006D02*
X010689Y007006D01*
X010140Y007006D02*
X010120Y007006D01*
X010120Y006907D02*
X010140Y006907D01*
X009571Y007006D02*
X008084Y007006D01*
X008095Y006907D02*
X009545Y006907D01*
X010719Y006021D02*
X014783Y006021D01*
X014881Y005922D02*
X010975Y005922D01*
X011073Y005824D02*
X014980Y005824D01*
X014982Y006415D02*
X015011Y006415D01*
X012310Y005036D02*
X011510Y005036D01*
X008590Y005036D02*
X008510Y005036D01*
X008510Y005134D02*
X008590Y005134D01*
X008590Y005233D02*
X008510Y005233D01*
X008510Y005331D02*
X008590Y005331D01*
X008590Y005430D02*
X008510Y005430D01*
X008510Y005528D02*
X008590Y005528D01*
X008590Y005627D02*
X008510Y005627D01*
X008510Y005725D02*
X008578Y005725D01*
X008590Y005713D02*
X008590Y003884D01*
X008554Y003970D01*
X008510Y004014D01*
X008510Y005793D01*
X008590Y005713D01*
X008090Y005600D02*
X008090Y005500D01*
X008040Y005550D01*
X008090Y005600D01*
X008090Y005528D02*
X008062Y005528D01*
X008090Y005036D02*
X008025Y005036D01*
X008090Y004937D02*
X007276Y004937D01*
X007178Y004839D02*
X008090Y004839D01*
X008090Y004740D02*
X007079Y004740D01*
X006981Y004642D02*
X008090Y004642D01*
X008090Y004543D02*
X006882Y004543D01*
X006784Y004445D02*
X008090Y004445D01*
X008090Y004346D02*
X006685Y004346D01*
X006587Y004248D02*
X008090Y004248D01*
X008090Y004149D02*
X006540Y004149D01*
X006540Y004051D02*
X008090Y004051D01*
X008038Y003952D02*
X006540Y003952D01*
X006540Y003854D02*
X008000Y003854D01*
X008000Y003755D02*
X006540Y003755D01*
X006540Y003657D02*
X008035Y003657D01*
X008118Y003558D02*
X006540Y003558D01*
X005711Y004051D02*
X004540Y004051D01*
X004540Y004149D02*
X005810Y004149D01*
X005908Y004248D02*
X004540Y004248D01*
X004540Y004346D02*
X005108Y004346D01*
X005055Y004445D02*
X004495Y004445D01*
X004396Y004543D02*
X005055Y004543D01*
X005055Y004642D02*
X004298Y004642D01*
X004228Y004740D02*
X005055Y004740D01*
X005055Y004839D02*
X004228Y004839D01*
X004228Y004937D02*
X005055Y004937D01*
X005055Y005036D02*
X004228Y005036D01*
X004228Y005134D02*
X005090Y005134D01*
X005177Y005436D02*
X005215Y005426D01*
X005500Y005426D01*
X005500Y005801D01*
X005600Y005801D01*
X005600Y005426D01*
X005885Y005426D01*
X005923Y005436D01*
X005957Y005456D01*
X005985Y005483D01*
X006005Y005518D01*
X006015Y005556D01*
X006015Y005801D01*
X005600Y005801D01*
X005600Y005901D01*
X006015Y005901D01*
X006015Y006147D01*
X006005Y006185D01*
X005985Y006219D01*
X005957Y006247D01*
X005923Y006267D01*
X005885Y006277D01*
X005600Y006277D01*
X005600Y005901D01*
X005500Y005901D01*
X005500Y005801D01*
X005085Y005801D01*
X005085Y005556D01*
X005095Y005518D01*
X005115Y005483D01*
X005143Y005456D01*
X005177Y005436D01*
X005201Y005430D02*
X004155Y005430D01*
X004228Y005331D02*
X006865Y005331D01*
X006865Y005233D02*
X004228Y005233D01*
X003510Y005528D02*
X005092Y005528D01*
X005085Y005627D02*
X003510Y005627D01*
X003510Y005725D02*
X005085Y005725D01*
X005300Y005800D02*
X005550Y005851D01*
X005300Y005800D01*
X005500Y005824D02*
X003510Y005824D01*
X003510Y005922D02*
X005085Y005922D01*
X005085Y005901D02*
X005500Y005901D01*
X005500Y006277D01*
X005215Y006277D01*
X005177Y006267D01*
X005143Y006247D01*
X005115Y006219D01*
X005095Y006185D01*
X005085Y006147D01*
X005085Y005901D01*
X005085Y006021D02*
X003510Y006021D01*
X003510Y006119D02*
X005085Y006119D01*
X005114Y006218D02*
X003510Y006218D01*
X003510Y006316D02*
X006865Y006316D01*
X006865Y006218D02*
X005986Y006218D01*
X006015Y006119D02*
X006865Y006119D01*
X006596Y006021D02*
X006015Y006021D01*
X006015Y005922D02*
X006526Y005922D01*
X006500Y005824D02*
X005600Y005824D01*
X005600Y005922D02*
X005500Y005922D01*
X005500Y006021D02*
X005600Y006021D01*
X005600Y006119D02*
X005500Y006119D01*
X005500Y006218D02*
X005600Y006218D01*
X005600Y005725D02*
X005500Y005725D01*
X005500Y005627D02*
X005600Y005627D01*
X005600Y005528D02*
X005500Y005528D01*
X005500Y005430D02*
X005600Y005430D01*
X005899Y005430D02*
X006865Y005430D01*
X006673Y005528D02*
X006008Y005528D01*
X006015Y005627D02*
X006549Y005627D01*
X006506Y005725D02*
X006015Y005725D01*
X006010Y005134D02*
X006166Y005134D01*
X006434Y005134D02*
X006795Y005134D01*
X006696Y005036D02*
X006574Y005036D01*
X006300Y004800D02*
X005800Y004800D01*
X005550Y004749D01*
X006045Y004543D02*
X006048Y004543D01*
X006045Y004445D02*
X006105Y004445D01*
X006007Y004346D02*
X005992Y004346D01*
X004945Y003952D02*
X004540Y003952D01*
X004540Y003854D02*
X004898Y003854D01*
X004898Y003755D02*
X004540Y003755D01*
X004540Y003657D02*
X004898Y003657D01*
X004898Y003558D02*
X004540Y003558D01*
X004540Y003460D02*
X004898Y003460D01*
X004898Y003361D02*
X004540Y003361D01*
X004540Y003263D02*
X004898Y003263D01*
X004977Y003164D02*
X004540Y003164D01*
X004060Y003164D02*
X003720Y003164D01*
X003720Y003066D02*
X004060Y003066D01*
X004060Y002967D02*
X003720Y002967D01*
X003720Y002869D02*
X004060Y002869D01*
X004060Y002770D02*
X003720Y002770D01*
X003720Y002672D02*
X004060Y002672D01*
X004060Y002573D02*
X003720Y002573D01*
X003720Y002475D02*
X004060Y002475D01*
X004060Y002376D02*
X003720Y002376D01*
X003720Y002278D02*
X004060Y002278D01*
X004060Y002179D02*
X003720Y002179D01*
X003720Y002081D02*
X004060Y002081D01*
X004060Y001982D02*
X003720Y001982D01*
X003720Y001884D02*
X004060Y001884D01*
X004060Y001785D02*
X003720Y001785D01*
X003720Y001687D02*
X004060Y001687D01*
X004060Y001588D02*
X003720Y001588D01*
X003720Y001490D02*
X004060Y001490D01*
X004060Y001391D02*
X003720Y001391D01*
X003720Y001293D02*
X004060Y001293D01*
X004084Y001194D02*
X003720Y001194D01*
X003712Y001096D02*
X004165Y001096D01*
X004264Y000997D02*
X000485Y000997D01*
X000523Y000899D02*
X004362Y000899D01*
X004461Y000800D02*
X000606Y000800D01*
X000480Y001096D02*
X000907Y001096D01*
X000880Y001194D02*
X000480Y001194D01*
X000480Y001293D02*
X000880Y001293D01*
X000880Y001391D02*
X000480Y001391D01*
X000480Y001490D02*
X000880Y001490D01*
X000880Y001588D02*
X000480Y001588D01*
X000480Y001687D02*
X000880Y001687D01*
X000880Y001785D02*
X000480Y001785D01*
X000480Y001884D02*
X000880Y001884D01*
X000880Y001982D02*
X000480Y001982D01*
X000480Y002081D02*
X000880Y002081D01*
X000880Y002179D02*
X000480Y002179D01*
X000480Y002278D02*
X000880Y002278D01*
X000880Y002376D02*
X000480Y002376D01*
X000480Y002475D02*
X000880Y002475D01*
X000880Y002573D02*
X000480Y002573D01*
X000480Y002672D02*
X000880Y002672D01*
X000880Y002770D02*
X000480Y002770D01*
X000480Y002869D02*
X000880Y002869D01*
X000880Y002967D02*
X000480Y002967D01*
X000480Y003066D02*
X000880Y003066D01*
X000880Y003164D02*
X000480Y003164D01*
X000480Y003263D02*
X000880Y003263D01*
X000880Y003361D02*
X000480Y003361D01*
X000480Y003460D02*
X000880Y003460D01*
X000922Y003558D02*
X000480Y003558D01*
X000480Y003657D02*
X001070Y003657D01*
X001070Y003755D02*
X000480Y003755D01*
X000480Y003854D02*
X001070Y003854D01*
X001070Y003952D02*
X000480Y003952D01*
X000480Y004051D02*
X001070Y004051D01*
X001070Y004149D02*
X000480Y004149D01*
X000480Y004248D02*
X001070Y004248D01*
X001070Y004346D02*
X000480Y004346D01*
X000480Y004445D02*
X001070Y004445D01*
X001070Y004543D02*
X000480Y004543D01*
X000480Y004642D02*
X001070Y004642D01*
X001070Y004740D02*
X000480Y004740D01*
X000480Y004839D02*
X001042Y004839D01*
X001001Y004937D02*
X000480Y004937D01*
X000480Y005036D02*
X001000Y005036D01*
X001000Y005134D02*
X000480Y005134D01*
X000480Y005233D02*
X001030Y005233D01*
X001071Y005331D02*
X000480Y005331D01*
X000480Y005430D02*
X001152Y005430D01*
X001267Y005528D02*
X000480Y005528D01*
X000480Y005627D02*
X001196Y005627D01*
X001097Y005725D02*
X000480Y005725D01*
X000480Y005824D02*
X001048Y005824D01*
X001008Y005922D02*
X000480Y005922D01*
X000480Y006021D02*
X001000Y006021D01*
X001000Y006119D02*
X000480Y006119D01*
X000480Y006218D02*
X001024Y006218D01*
X001065Y006316D02*
X000480Y006316D01*
X000480Y006415D02*
X001137Y006415D01*
X001235Y006513D02*
X000480Y006513D01*
X000480Y006612D02*
X001269Y006612D01*
X001155Y006710D02*
X000480Y006710D01*
X000480Y006809D02*
X001089Y006809D01*
X001050Y006907D02*
X000480Y006907D01*
X002050Y006907D02*
X002082Y006907D01*
X002524Y006698D02*
X002524Y006686D01*
X002629Y006581D01*
X002722Y006581D01*
X003090Y006213D01*
X003090Y005418D01*
X003082Y005422D01*
X003044Y005432D01*
X002792Y005432D01*
X002792Y005178D01*
X002784Y005178D01*
X002784Y005432D01*
X002573Y005432D01*
X002676Y005823D01*
X002729Y005845D01*
X002830Y005946D01*
X002885Y006078D01*
X002885Y006222D01*
X002830Y006354D01*
X002729Y006455D01*
X002597Y006510D01*
X002453Y006510D01*
X002321Y006455D01*
X002220Y006354D01*
X002165Y006222D01*
X002165Y006078D01*
X002220Y005946D01*
X002230Y005936D01*
X002094Y005419D01*
X002070Y005395D01*
X002070Y005330D01*
X002054Y005270D01*
X002016Y005362D01*
X001862Y005516D01*
X001780Y005550D01*
X001862Y005584D01*
X002016Y005738D01*
X002100Y005941D01*
X002100Y006159D01*
X002066Y006241D01*
X002524Y006698D01*
X002598Y006612D02*
X002437Y006612D01*
X002338Y006513D02*
X002790Y006513D01*
X002770Y006415D02*
X002889Y006415D01*
X002846Y006316D02*
X002987Y006316D01*
X003086Y006218D02*
X002885Y006218D01*
X002885Y006119D02*
X003090Y006119D01*
X003090Y006021D02*
X002861Y006021D01*
X002806Y005922D02*
X003090Y005922D01*
X003090Y005824D02*
X002678Y005824D01*
X002650Y005725D02*
X003090Y005725D01*
X003090Y005627D02*
X002624Y005627D01*
X002598Y005528D02*
X003090Y005528D01*
X003090Y005430D02*
X003054Y005430D01*
X002792Y005430D02*
X002784Y005430D01*
X002784Y005331D02*
X002792Y005331D01*
X002784Y005233D02*
X002792Y005233D01*
X002788Y005174D02*
X002788Y005613D01*
X002825Y005650D01*
X002201Y005824D02*
X002051Y005824D01*
X002092Y005922D02*
X002227Y005922D01*
X002189Y006021D02*
X002100Y006021D01*
X002100Y006119D02*
X002165Y006119D01*
X002165Y006218D02*
X002076Y006218D01*
X002141Y006316D02*
X002204Y006316D01*
X002525Y006150D02*
X002300Y005300D01*
X002300Y004800D01*
X002650Y004450D01*
X002674Y004426D01*
X002788Y004426D01*
X002550Y004550D02*
X002300Y004800D01*
X002300Y005300D01*
X002300Y004800D01*
X002300Y003300D01*
X003300Y002300D01*
X003225Y002300D01*
X002730Y002278D02*
X001870Y002278D01*
X001870Y002376D02*
X002730Y002376D01*
X002730Y002475D02*
X001870Y002475D01*
X001870Y002573D02*
X002702Y002573D01*
X002603Y002672D02*
X001870Y002672D01*
X001870Y002770D02*
X002505Y002770D01*
X002406Y002869D02*
X001870Y002869D01*
X001870Y002967D02*
X002308Y002967D01*
X002209Y003066D02*
X001870Y003066D01*
X001870Y003164D02*
X002111Y003164D01*
X002070Y003263D02*
X001870Y003263D01*
X001870Y003361D02*
X002070Y003361D01*
X002070Y003460D02*
X001870Y003460D01*
X001828Y003558D02*
X002070Y003558D01*
X002070Y003657D02*
X001530Y003657D01*
X001530Y003755D02*
X002070Y003755D01*
X002070Y003854D02*
X001530Y003854D01*
X001530Y003952D02*
X002070Y003952D01*
X002070Y004051D02*
X001530Y004051D01*
X001530Y004149D02*
X002070Y004149D01*
X002070Y004248D02*
X001530Y004248D01*
X001530Y004346D02*
X002070Y004346D01*
X002070Y004445D02*
X001530Y004445D01*
X001763Y004543D02*
X002070Y004543D01*
X002070Y004642D02*
X001919Y004642D01*
X002017Y004740D02*
X002070Y004740D01*
X002058Y004839D02*
X002070Y004839D01*
X002530Y004895D02*
X002530Y004916D01*
X002532Y004916D01*
X002784Y004916D01*
X002784Y005170D01*
X002792Y005170D01*
X002792Y004916D01*
X003044Y004916D01*
X003082Y004926D01*
X003090Y004930D01*
X003090Y004714D01*
X002711Y004714D01*
X002530Y004895D01*
X002587Y004839D02*
X003090Y004839D01*
X003090Y004740D02*
X002685Y004740D01*
X002784Y004937D02*
X002792Y004937D01*
X002784Y005036D02*
X002792Y005036D01*
X002784Y005134D02*
X002792Y005134D01*
X002070Y005232D02*
X002061Y005253D01*
X002070Y005238D01*
X002070Y005232D01*
X002070Y005233D02*
X002070Y005233D01*
X002070Y005331D02*
X002029Y005331D01*
X002096Y005430D02*
X001948Y005430D01*
X001833Y005528D02*
X002122Y005528D01*
X002149Y005627D02*
X001904Y005627D01*
X002003Y005725D02*
X002175Y005725D01*
X001800Y006300D02*
X001550Y006050D01*
X001800Y006300D02*
X002800Y007300D01*
X002954Y007050D01*
X003384Y007006D02*
X003496Y007006D01*
X003455Y006907D02*
X003384Y006907D01*
X003384Y006809D02*
X003440Y006809D01*
X003448Y006710D02*
X003384Y006710D01*
X003309Y006612D02*
X003488Y006612D01*
X003578Y006513D02*
X003384Y006513D01*
X003482Y006415D02*
X006865Y006415D01*
X003595Y007104D02*
X003384Y007104D01*
X002280Y006415D02*
X002240Y006415D01*
X001550Y005050D02*
X001300Y004800D01*
X001300Y002800D01*
X001375Y002320D01*
X001870Y002179D02*
X002730Y002179D01*
X002730Y002081D02*
X001870Y002081D01*
X001870Y001982D02*
X002730Y001982D01*
X002730Y001884D02*
X001870Y001884D01*
X001870Y001785D02*
X002730Y001785D01*
X002730Y001687D02*
X001870Y001687D01*
X001870Y001588D02*
X002730Y001588D01*
X002730Y001490D02*
X001870Y001490D01*
X001870Y001391D02*
X002730Y001391D01*
X002730Y001293D02*
X001870Y001293D01*
X001870Y001194D02*
X002730Y001194D01*
X002738Y001096D02*
X001842Y001096D01*
X006540Y001096D02*
X007727Y001096D01*
X007628Y001194D02*
X006540Y001194D01*
X006540Y001293D02*
X007530Y001293D01*
X007500Y001322D02*
X007822Y001000D01*
X008278Y001000D01*
X008500Y001222D01*
X008822Y000900D01*
X009278Y000900D01*
X009340Y000963D01*
X009573Y000730D01*
X006531Y000730D01*
X006540Y000752D01*
X006540Y002560D01*
X007500Y002560D01*
X007500Y002322D01*
X007772Y002050D01*
X007500Y001778D01*
X007500Y001322D01*
X007500Y001391D02*
X006540Y001391D01*
X006540Y001490D02*
X007500Y001490D01*
X007500Y001588D02*
X006540Y001588D01*
X006540Y001687D02*
X007500Y001687D01*
X007507Y001785D02*
X006540Y001785D01*
X006540Y001884D02*
X007606Y001884D01*
X007704Y001982D02*
X006540Y001982D01*
X006540Y002081D02*
X007742Y002081D01*
X007643Y002179D02*
X006540Y002179D01*
X006540Y002278D02*
X007545Y002278D01*
X007500Y002376D02*
X006540Y002376D01*
X006540Y002475D02*
X007500Y002475D01*
X008328Y002050D02*
X008500Y002222D01*
X008772Y001950D01*
X008600Y001778D01*
X008600Y001778D01*
X008328Y002050D01*
X008358Y002081D02*
X008642Y002081D01*
X008543Y002179D02*
X008457Y002179D01*
X008500Y002222D02*
X008500Y002222D01*
X008396Y001982D02*
X008740Y001982D01*
X008706Y001884D02*
X008494Y001884D01*
X008593Y001785D02*
X008607Y001785D01*
X009328Y001950D02*
X009500Y001778D01*
X009793Y002071D01*
X009600Y002265D01*
X009600Y002222D01*
X009328Y001950D01*
X009360Y001982D02*
X009704Y001982D01*
X009784Y002081D02*
X009458Y002081D01*
X009557Y002179D02*
X009686Y002179D01*
X009606Y001884D02*
X009394Y001884D01*
X009493Y001785D02*
X009507Y001785D01*
X009500Y001778D02*
X009500Y001778D01*
X008528Y001194D02*
X008472Y001194D01*
X008500Y001222D02*
X008500Y001222D01*
X008373Y001096D02*
X008627Y001096D01*
X008725Y000997D02*
X006540Y000997D01*
X006540Y000899D02*
X009405Y000899D01*
X009503Y000800D02*
X006540Y000800D01*
X010570Y002376D02*
X010579Y002376D01*
X010570Y002475D02*
X010590Y002475D01*
X010590Y002573D02*
X010100Y002573D01*
X010100Y002600D02*
X010570Y002600D01*
X010570Y002765D01*
X010265Y003070D01*
X010100Y003070D01*
X010100Y002600D01*
X010100Y002672D02*
X010000Y002672D01*
X010000Y002770D02*
X010100Y002770D01*
X010100Y002869D02*
X010000Y002869D01*
X010000Y002967D02*
X010100Y002967D01*
X010100Y003066D02*
X010000Y003066D01*
X009830Y003066D02*
X009010Y003066D01*
X009010Y003164D02*
X010590Y003164D01*
X010590Y003066D02*
X010270Y003066D01*
X010368Y002967D02*
X010590Y002967D01*
X010590Y002869D02*
X010467Y002869D01*
X010565Y002770D02*
X010590Y002770D01*
X010590Y002672D02*
X010570Y002672D01*
X009732Y002967D02*
X009311Y002967D01*
X009409Y002869D02*
X009633Y002869D01*
X009535Y002770D02*
X009508Y002770D01*
X008590Y002869D02*
X008509Y002869D01*
X008590Y002967D02*
X008411Y002967D01*
X009010Y003263D02*
X010590Y003263D01*
X010590Y003361D02*
X009010Y003361D01*
X009010Y003460D02*
X010590Y003460D01*
X010590Y003558D02*
X009010Y003558D01*
X008590Y003952D02*
X008562Y003952D01*
X008590Y004051D02*
X008510Y004051D01*
X008510Y004149D02*
X008590Y004149D01*
X008590Y004248D02*
X008510Y004248D01*
X008510Y004346D02*
X008590Y004346D01*
X008590Y004445D02*
X008510Y004445D01*
X008510Y004543D02*
X008590Y004543D01*
X008590Y004642D02*
X008510Y004642D01*
X008510Y004740D02*
X008590Y004740D01*
X008590Y004839D02*
X008510Y004839D01*
X008510Y004937D02*
X008590Y004937D01*
X012010Y003361D02*
X012254Y003361D01*
X012254Y003263D02*
X012010Y003263D01*
X012010Y003164D02*
X012254Y003164D01*
X012309Y003066D02*
X012010Y003066D01*
X012010Y002967D02*
X012254Y002967D01*
X012254Y002869D02*
X012010Y002869D01*
X012010Y002770D02*
X012254Y002770D01*
X012254Y002672D02*
X012010Y002672D01*
X012010Y002573D02*
X012254Y002573D01*
X012254Y002475D02*
X012010Y002475D01*
X012010Y002376D02*
X012254Y002376D01*
X012254Y002278D02*
X012010Y002278D01*
X012010Y002179D02*
X012254Y002179D01*
X012294Y002081D02*
X012010Y002081D01*
X013241Y001982D02*
X013359Y001982D01*
X013356Y001884D02*
X013244Y001884D01*
X013244Y001785D02*
X013356Y001785D01*
X013356Y001687D02*
X013244Y001687D01*
X013244Y001588D02*
X013356Y001588D01*
X013356Y001490D02*
X013244Y001490D01*
X013244Y001391D02*
X013356Y001391D01*
X013356Y001293D02*
X013244Y001293D01*
X013244Y001194D02*
X013356Y001194D01*
X013382Y001096D02*
X013218Y001096D01*
X013851Y001550D02*
X013800Y001800D01*
X014125Y001800D01*
X014300Y001800D01*
X015300Y001800D01*
X015550Y001550D01*
X015021Y001391D02*
X014346Y001391D01*
X014346Y001293D02*
X015061Y001293D01*
X015128Y001194D02*
X014346Y001194D01*
X014321Y001096D02*
X015227Y001096D01*
X015684Y001010D02*
X015734Y001031D01*
X015713Y001010D01*
X015684Y001010D01*
X016097Y000800D02*
X016214Y000800D01*
X016198Y000784D02*
X016083Y000736D01*
X016028Y000731D01*
X016339Y001042D01*
X016334Y000988D01*
X016286Y000872D01*
X016198Y000784D01*
X016195Y000899D02*
X016297Y000899D01*
X016294Y000997D02*
X016335Y000997D01*
X016069Y001366D02*
X016090Y001416D01*
X016090Y001387D01*
X016069Y001366D01*
X016079Y001391D02*
X016090Y001391D01*
X016089Y001687D02*
X016090Y001687D01*
X016090Y001785D02*
X016048Y001785D01*
X016090Y001884D02*
X015994Y001884D01*
X016090Y001982D02*
X015896Y001982D01*
X015000Y001490D02*
X014346Y001490D01*
X013356Y002672D02*
X013244Y002672D01*
X013244Y002770D02*
X013356Y002770D01*
X013356Y002869D02*
X013244Y002869D01*
X013244Y002967D02*
X013356Y002967D01*
X004060Y003263D02*
X003720Y003263D01*
X003720Y003361D02*
X004060Y003361D01*
X004060Y003460D02*
X003720Y003460D01*
X003659Y003558D02*
X004060Y003558D01*
X004060Y003657D02*
X002530Y003657D01*
X002530Y003755D02*
X004060Y003755D01*
X004060Y003854D02*
X002530Y003854D01*
X002530Y003952D02*
X004060Y003952D01*
X004060Y004051D02*
X002530Y004051D01*
X003110Y004149D02*
X003490Y004149D01*
X003396Y004248D02*
X003204Y004248D01*
X003204Y004346D02*
X003396Y004346D01*
X003396Y004445D02*
X003204Y004445D01*
X003204Y004543D02*
X003396Y004543D01*
X003812Y004426D02*
X003812Y004800D01*
X002792Y003558D02*
X002530Y003558D01*
X002530Y003460D02*
X002730Y003460D01*
X002730Y003361D02*
X002564Y003361D01*
X002663Y003263D02*
X002730Y003263D01*
D21*
X004800Y005300D03*
X002825Y005650D03*
D22*
X003300Y006300D02*
X002800Y006800D01*
X002954Y007050D01*
X003300Y006300D02*
X003300Y004800D01*
X003800Y004800D01*
X003812Y004800D01*
X003800Y004800D01*
X004300Y003800D02*
X004300Y001300D01*
X005300Y000800D02*
X006300Y000800D01*
X006300Y002800D01*
X007800Y002800D01*
X008050Y002550D01*
X008800Y002300D02*
X009050Y002450D01*
X008800Y002300D02*
X008800Y005800D01*
X007800Y006800D01*
X007480Y006800D01*
X007480Y006300D02*
X007800Y006300D01*
X008300Y005800D01*
X008300Y003800D01*
X009300Y004300D02*
X010300Y003300D01*
X010300Y002800D01*
X010050Y002550D01*
X010300Y001800D02*
X010800Y002300D01*
X010800Y004800D01*
X010300Y005300D01*
X010130Y005300D01*
X010130Y005800D02*
X010300Y005800D01*
X010800Y005800D01*
X011300Y005300D01*
X011300Y004800D01*
X011300Y000800D01*
X015800Y000800D01*
X016300Y001300D01*
X016300Y005800D01*
X015800Y006300D01*
X015550Y006550D01*
X015300Y005800D02*
X014800Y006300D01*
X010300Y006300D01*
X010130Y006300D01*
X009800Y006800D02*
X009300Y006300D01*
X009300Y004300D01*
X011300Y004800D02*
X012800Y004800D01*
X012749Y004550D01*
X011800Y004300D02*
X011800Y001800D01*
X012800Y001800D01*
X012749Y001550D01*
X012800Y002300D02*
X012749Y002550D01*
X012800Y002300D02*
X013300Y002300D01*
X010300Y001800D02*
X010050Y001550D01*
X009300Y001300D02*
X009050Y001450D01*
X009300Y001300D02*
X009800Y000800D01*
X011300Y000800D01*
X006300Y002800D02*
X006300Y004300D01*
X007300Y005300D01*
X007480Y005300D01*
X007480Y005800D02*
X007300Y005800D01*
X006800Y005800D01*
X008800Y007800D02*
X009800Y006800D01*
X010130Y006800D01*
X009800Y006800D01*
X008800Y007800D02*
X005300Y007800D01*
X013800Y004800D02*
X013851Y004550D01*
X013800Y004800D02*
X015300Y004800D01*
X015550Y004550D01*
X015550Y005550D02*
X015300Y005800D01*
X013300Y003800D02*
X012800Y003800D01*
X012749Y003550D01*
X006300Y004300D02*
X005800Y003800D01*
X005550Y003574D01*
D23*
X005800Y003800D02*
X006300Y004300D01*
X006300Y002800D01*
X007800Y002800D01*
X008050Y002550D01*
X006300Y002800D02*
X006300Y000800D01*
X005300Y000800D01*
X004800Y000800D01*
X004300Y001300D01*
X004300Y003800D01*
X004300Y004300D01*
X003800Y004800D01*
X006300Y004300D02*
X007300Y005300D01*
X008800Y007800D02*
X009800Y006800D01*
X008800Y007800D02*
X005300Y007800D01*
X002325Y007800D01*
X001575Y007050D01*
X014025Y003775D02*
X014050Y003800D01*
X014300Y003800D01*
X015300Y003800D01*
X015550Y003550D01*
X015300Y002800D02*
X014100Y002800D01*
X014300Y002800D01*
X015300Y002800D02*
X015575Y002525D01*
X015300Y001800D02*
X014300Y001800D01*
X014125Y001800D01*
X015300Y001800D02*
X015575Y001525D01*
D24*
X006300Y004800D03*
X002525Y006150D03*
X003800Y006800D03*
D25*
X006800Y005800D03*
X008300Y003800D03*
X011800Y004300D03*
X013300Y003800D03*
X013300Y002300D03*
M02*
