%
M48
M72
T01C0.0120
T02C0.0236
T03C0.0240
T04C0.0400
%
T01
X8300Y3800
X11800Y4300
X13300Y3800
X13300Y2300
X6800Y5800
T02
X4800Y5300
X2825Y5650
T03
X2525Y6150
X3800Y6800
X6300Y4800
T04
X8050Y1550
X9050Y1450
X10050Y1550
X9050Y2450
X8050Y2550
X10050Y2550
X15550Y2550
X15550Y1550
X15550Y3550
X15550Y4550
X15550Y5550
X15550Y6550
X1550Y6050
X1550Y5050
X1550Y7050
M30
