G75*
G70*
%OFA0B0*%
%FSLAX24Y24*%
%IPPOS*%
%LPD*%
%AMOC8*
5,1,8,0,0,1.08239X$1,22.5*
%
%ADD10C,0.0000*%
%ADD11R,0.0870X0.0240*%
%ADD12R,0.0472X0.0217*%
%ADD13R,0.0500X0.0579*%
%ADD14R,0.0630X0.0551*%
%ADD15R,0.0945X0.0512*%
%ADD16R,0.0630X0.2244*%
%ADD17R,0.0630X0.0709*%
D10*
X000800Y000550D02*
X016020Y000550D01*
X016064Y000552D01*
X016107Y000558D01*
X016149Y000567D01*
X016191Y000580D01*
X016231Y000597D01*
X016270Y000617D01*
X016307Y000640D01*
X016341Y000667D01*
X016374Y000696D01*
X016403Y000729D01*
X016430Y000763D01*
X016453Y000800D01*
X016473Y000839D01*
X016490Y000879D01*
X016503Y000921D01*
X016512Y000963D01*
X016518Y001006D01*
X016520Y001050D01*
X016520Y007796D01*
X016518Y007840D01*
X016512Y007883D01*
X016503Y007925D01*
X016490Y007967D01*
X016473Y008007D01*
X016453Y008046D01*
X016430Y008083D01*
X016403Y008117D01*
X016374Y008150D01*
X016341Y008179D01*
X016307Y008206D01*
X016270Y008229D01*
X016231Y008249D01*
X016191Y008266D01*
X016149Y008279D01*
X016107Y008288D01*
X016064Y008294D01*
X016020Y008296D01*
X000800Y008296D01*
X000756Y008294D01*
X000713Y008288D01*
X000671Y008279D01*
X000629Y008266D01*
X000589Y008249D01*
X000550Y008229D01*
X000513Y008206D01*
X000479Y008179D01*
X000446Y008150D01*
X000417Y008117D01*
X000390Y008083D01*
X000367Y008046D01*
X000347Y008007D01*
X000330Y007967D01*
X000317Y007925D01*
X000308Y007883D01*
X000302Y007840D01*
X000300Y007796D01*
X000300Y001050D01*
X000302Y001006D01*
X000308Y000963D01*
X000317Y000921D01*
X000330Y000879D01*
X000347Y000839D01*
X000367Y000800D01*
X000390Y000763D01*
X000417Y000729D01*
X000446Y000696D01*
X000479Y000667D01*
X000513Y000640D01*
X000550Y000617D01*
X000589Y000597D01*
X000629Y000580D01*
X000671Y000567D01*
X000713Y000558D01*
X000756Y000552D01*
X000800Y000550D01*
D11*
X007480Y005300D03*
X007480Y005800D03*
X007480Y006300D03*
X007480Y006800D03*
X010130Y006800D03*
X010130Y006300D03*
X010130Y005800D03*
X010130Y005300D03*
D12*
X003812Y005174D03*
X003812Y004800D03*
X003812Y004426D03*
X002788Y004426D03*
X002788Y005174D03*
D13*
X002954Y007050D03*
X004646Y007050D03*
D14*
X005550Y005851D03*
X005550Y004749D03*
D15*
X005550Y003574D03*
X005550Y001526D03*
D16*
X003225Y002300D03*
X001375Y002320D03*
D17*
X012749Y002550D03*
X013851Y002550D03*
X013851Y001550D03*
X012749Y001550D03*
X012749Y003550D03*
X013851Y003550D03*
X013851Y004550D03*
X012749Y004550D03*
M02*
