G75*
G70*
%OFA0B0*%
%FSLAX24Y24*%
%IPPOS*%
%LPD*%
%AMOC8*
5,1,8,0,0,1.08239X$1,22.5*
%
%ADD10C,0.0000*%
%ADD11OC8,0.0780*%
%ADD12R,0.0910X0.0280*%
%ADD13C,0.0780*%
%ADD14R,0.0512X0.0257*%
%ADD15R,0.0540X0.0619*%
%ADD16R,0.0670X0.0591*%
%ADD17R,0.0985X0.0552*%
%ADD18R,0.0670X0.2284*%
%ADD19R,0.0670X0.0749*%
D10*
X000800Y000550D02*
X016020Y000550D01*
X016064Y000552D01*
X016107Y000558D01*
X016149Y000567D01*
X016191Y000580D01*
X016231Y000597D01*
X016270Y000617D01*
X016307Y000640D01*
X016341Y000667D01*
X016374Y000696D01*
X016403Y000729D01*
X016430Y000763D01*
X016453Y000800D01*
X016473Y000839D01*
X016490Y000879D01*
X016503Y000921D01*
X016512Y000963D01*
X016518Y001006D01*
X016520Y001050D01*
X016520Y007796D01*
X016518Y007840D01*
X016512Y007883D01*
X016503Y007925D01*
X016490Y007967D01*
X016473Y008007D01*
X016453Y008046D01*
X016430Y008083D01*
X016403Y008117D01*
X016374Y008150D01*
X016341Y008179D01*
X016307Y008206D01*
X016270Y008229D01*
X016231Y008249D01*
X016191Y008266D01*
X016149Y008279D01*
X016107Y008288D01*
X016064Y008294D01*
X016020Y008296D01*
X000800Y008296D01*
X000818Y008446D02*
X016039Y008446D01*
X016083Y008448D01*
X016126Y008454D01*
X016168Y008463D01*
X016210Y008476D01*
X016250Y008493D01*
X016289Y008513D01*
X016326Y008536D01*
X016360Y008563D01*
X016393Y008592D01*
X016422Y008625D01*
X016449Y008659D01*
X016472Y008696D01*
X016492Y008735D01*
X016509Y008775D01*
X016522Y008817D01*
X016531Y008859D01*
X016537Y008902D01*
X016539Y008946D01*
X016539Y015692D01*
X016537Y015736D01*
X016531Y015779D01*
X016522Y015821D01*
X016509Y015863D01*
X016492Y015903D01*
X016472Y015942D01*
X016449Y015979D01*
X016422Y016013D01*
X016393Y016046D01*
X016360Y016075D01*
X016326Y016102D01*
X016289Y016125D01*
X016250Y016145D01*
X016210Y016162D01*
X016168Y016175D01*
X016126Y016184D01*
X016083Y016190D01*
X016039Y016192D01*
X000818Y016192D01*
X000774Y016190D01*
X000731Y016184D01*
X000689Y016175D01*
X000647Y016162D01*
X000607Y016145D01*
X000568Y016125D01*
X000531Y016102D01*
X000497Y016075D01*
X000464Y016046D01*
X000435Y016013D01*
X000408Y015979D01*
X000385Y015942D01*
X000365Y015903D01*
X000348Y015863D01*
X000335Y015821D01*
X000326Y015779D01*
X000320Y015736D01*
X000318Y015692D01*
X000318Y008946D01*
X000320Y008902D01*
X000326Y008859D01*
X000335Y008817D01*
X000348Y008775D01*
X000365Y008735D01*
X000385Y008696D01*
X000408Y008659D01*
X000435Y008625D01*
X000464Y008592D01*
X000497Y008563D01*
X000531Y008536D01*
X000568Y008513D01*
X000607Y008493D01*
X000647Y008476D01*
X000689Y008463D01*
X000731Y008454D01*
X000774Y008448D01*
X000818Y008446D01*
X000800Y008296D02*
X000756Y008294D01*
X000713Y008288D01*
X000671Y008279D01*
X000629Y008266D01*
X000589Y008249D01*
X000550Y008229D01*
X000513Y008206D01*
X000479Y008179D01*
X000446Y008150D01*
X000417Y008117D01*
X000390Y008083D01*
X000367Y008046D01*
X000347Y008007D01*
X000330Y007967D01*
X000317Y007925D01*
X000308Y007883D01*
X000302Y007840D01*
X000300Y007796D01*
X000300Y001050D01*
X000302Y001006D01*
X000308Y000963D01*
X000317Y000921D01*
X000330Y000879D01*
X000347Y000839D01*
X000367Y000800D01*
X000390Y000763D01*
X000417Y000729D01*
X000446Y000696D01*
X000479Y000667D01*
X000513Y000640D01*
X000550Y000617D01*
X000589Y000597D01*
X000629Y000580D01*
X000671Y000567D01*
X000713Y000558D01*
X000756Y000552D01*
X000800Y000550D01*
D11*
X008050Y001550D03*
X008050Y002550D03*
X009050Y002450D03*
X010050Y002550D03*
X010050Y001550D03*
X009050Y001450D03*
X009068Y009346D03*
X009068Y010346D03*
X008068Y010446D03*
X008068Y009446D03*
X010068Y009446D03*
X010068Y010446D03*
D12*
X010148Y013196D03*
X010148Y013696D03*
X010148Y014196D03*
X010148Y014696D03*
X007498Y014696D03*
X007498Y014196D03*
X007498Y013696D03*
X007498Y013196D03*
X007480Y006800D03*
X007480Y006300D03*
X007480Y005800D03*
X007480Y005300D03*
X010130Y005300D03*
X010130Y005800D03*
X010130Y006300D03*
X010130Y006800D03*
D13*
X015550Y006550D03*
X015550Y005550D03*
X015550Y004550D03*
X015550Y003550D03*
X015550Y002550D03*
X015550Y001550D03*
X015568Y009446D03*
X015568Y010446D03*
X015568Y011446D03*
X015568Y012446D03*
X015568Y013446D03*
X015568Y014446D03*
X001568Y013946D03*
X001568Y012946D03*
X001568Y014946D03*
X001550Y007050D03*
X001550Y006050D03*
X001550Y005050D03*
D14*
X002788Y005174D03*
X002788Y004426D03*
X003812Y004426D03*
X003812Y004800D03*
X003812Y005174D03*
X003830Y012322D03*
X003830Y012696D03*
X003830Y013070D03*
X002807Y013070D03*
X002807Y012322D03*
D15*
X002972Y014946D03*
X004665Y014946D03*
X004646Y007050D03*
X002954Y007050D03*
D16*
X005550Y005851D03*
X005550Y004749D03*
X005568Y012645D03*
X005568Y013748D03*
D17*
X005568Y011470D03*
X005568Y009423D03*
X005550Y003574D03*
X005550Y001526D03*
D18*
X003225Y002300D03*
X001375Y002320D03*
X001393Y010216D03*
X003244Y010196D03*
D19*
X012767Y010446D03*
X012767Y011446D03*
X012767Y012446D03*
X013870Y012446D03*
X013870Y011446D03*
X013870Y010446D03*
X013870Y009446D03*
X012767Y009446D03*
X012749Y004550D03*
X012749Y003550D03*
X012749Y002550D03*
X012749Y001550D03*
X013851Y001550D03*
X013851Y002550D03*
X013851Y003550D03*
X013851Y004550D03*
M02*
