G75*
G70*
%OFA0B0*%
%FSLAX24Y24*%
%IPPOS*%
%LPD*%
%AMOC8*
5,1,8,0,0,1.08239X$1,22.5*
%
%ADD10C,0.0000*%
%ADD11C,0.0060*%
D10*
X000800Y000550D02*
X016020Y000550D01*
X016064Y000552D01*
X016107Y000558D01*
X016149Y000567D01*
X016191Y000580D01*
X016231Y000597D01*
X016270Y000617D01*
X016307Y000640D01*
X016341Y000667D01*
X016374Y000696D01*
X016403Y000729D01*
X016430Y000763D01*
X016453Y000800D01*
X016473Y000839D01*
X016490Y000879D01*
X016503Y000921D01*
X016512Y000963D01*
X016518Y001006D01*
X016520Y001050D01*
X016520Y007796D01*
X016518Y007840D01*
X016512Y007883D01*
X016503Y007925D01*
X016490Y007967D01*
X016473Y008007D01*
X016453Y008046D01*
X016430Y008083D01*
X016403Y008117D01*
X016374Y008150D01*
X016341Y008179D01*
X016307Y008206D01*
X016270Y008229D01*
X016231Y008249D01*
X016191Y008266D01*
X016149Y008279D01*
X016107Y008288D01*
X016064Y008294D01*
X016020Y008296D01*
X000800Y008296D01*
X000756Y008294D01*
X000713Y008288D01*
X000671Y008279D01*
X000629Y008266D01*
X000589Y008249D01*
X000550Y008229D01*
X000513Y008206D01*
X000479Y008179D01*
X000446Y008150D01*
X000417Y008117D01*
X000390Y008083D01*
X000367Y008046D01*
X000347Y008007D01*
X000330Y007967D01*
X000317Y007925D01*
X000308Y007883D01*
X000302Y007840D01*
X000300Y007796D01*
X000300Y001050D01*
X000302Y001006D01*
X000308Y000963D01*
X000317Y000921D01*
X000330Y000879D01*
X000347Y000839D01*
X000367Y000800D01*
X000390Y000763D01*
X000417Y000729D01*
X000446Y000696D01*
X000479Y000667D01*
X000513Y000640D01*
X000550Y000617D01*
X000589Y000597D01*
X000629Y000580D01*
X000671Y000567D01*
X000713Y000558D01*
X000756Y000552D01*
X000800Y000550D01*
D11*
X000745Y001110D02*
X000532Y001110D01*
X000425Y001217D01*
X000425Y001430D01*
X000532Y001537D01*
X000638Y001537D01*
X000852Y001430D01*
X000852Y001751D01*
X000425Y001751D01*
X001283Y001751D02*
X001283Y001110D01*
X001496Y001110D02*
X001069Y001110D01*
X000852Y001217D02*
X000745Y001110D01*
X001283Y001751D02*
X001496Y001537D01*
X001714Y001644D02*
X002141Y001217D01*
X002141Y001110D01*
X002358Y001217D02*
X002358Y001644D01*
X002465Y001751D01*
X002679Y001751D01*
X002785Y001644D01*
X002785Y001537D01*
X002679Y001430D01*
X002358Y001430D01*
X002358Y001217D02*
X002465Y001110D01*
X002679Y001110D01*
X002785Y001217D01*
X003110Y001110D02*
X003110Y001751D01*
X003430Y001430D01*
X003003Y001430D01*
X002141Y001751D02*
X001714Y001751D01*
X001714Y001644D01*
X010476Y006330D02*
X010903Y006330D01*
X010476Y006757D01*
X010476Y006864D01*
X010582Y006971D01*
X010796Y006971D01*
X010903Y006864D01*
X011334Y006971D02*
X011334Y006330D01*
X011547Y006330D02*
X011120Y006330D01*
X011765Y006650D02*
X012192Y006650D01*
X012409Y006757D02*
X012409Y006864D01*
X012516Y006971D01*
X012730Y006971D01*
X012836Y006864D01*
X013054Y006864D02*
X013054Y006757D01*
X013481Y006330D01*
X013054Y006330D01*
X012836Y006330D02*
X012409Y006757D01*
X013054Y006864D02*
X013161Y006971D01*
X013374Y006971D01*
X013481Y006864D01*
X013698Y006650D02*
X014125Y006650D01*
X014343Y006650D02*
X014770Y006650D01*
X014450Y006971D01*
X014450Y006330D01*
X012836Y006330D02*
X012409Y006330D01*
X011547Y006757D02*
X011334Y006971D01*
X011980Y007223D02*
X011980Y007757D01*
X012300Y007757D01*
X012407Y007650D01*
X012407Y007437D01*
X012300Y007330D01*
X011980Y007330D01*
X011762Y007330D02*
X011762Y007757D01*
X011442Y007757D01*
X011335Y007650D01*
X011335Y007330D01*
X011118Y007437D02*
X011118Y007650D01*
X011011Y007757D01*
X010797Y007757D01*
X010691Y007650D01*
X010691Y007544D01*
X011118Y007544D01*
X011118Y007437D02*
X011011Y007330D01*
X010797Y007330D01*
X010473Y007437D02*
X010366Y007330D01*
X010046Y007330D01*
X010046Y007971D01*
X010046Y007757D02*
X010366Y007757D01*
X010473Y007650D01*
X010473Y007437D01*
X009184Y007330D02*
X009184Y007971D01*
X009184Y007757D02*
X008864Y007757D01*
X008757Y007650D01*
X008757Y007437D01*
X008864Y007330D01*
X009184Y007330D01*
X008539Y007437D02*
X008433Y007330D01*
X008112Y007330D01*
X008112Y007223D02*
X008219Y007116D01*
X008326Y007116D01*
X008112Y007223D02*
X008112Y007757D01*
X008539Y007757D02*
X008539Y007437D01*
X007250Y007544D02*
X006930Y007544D01*
X006823Y007650D01*
X006823Y007864D01*
X006930Y007971D01*
X007250Y007971D01*
X007250Y007330D01*
X007037Y007544D02*
X006823Y007330D01*
X006606Y007437D02*
X006499Y007330D01*
X006285Y007330D01*
X006179Y007437D01*
X006179Y007650D01*
X006285Y007757D01*
X006499Y007757D01*
X006606Y007650D01*
X006606Y007437D01*
X005961Y007437D02*
X005854Y007330D01*
X005534Y007330D01*
X005534Y007223D02*
X005641Y007116D01*
X005748Y007116D01*
X005534Y007223D02*
X005534Y007757D01*
X005961Y007757D02*
X005961Y007437D01*
X004672Y007437D02*
X004565Y007330D01*
X004352Y007330D01*
X004245Y007437D01*
X004028Y007437D02*
X003921Y007330D01*
X003707Y007330D01*
X003600Y007437D01*
X003600Y007650D01*
X003707Y007757D01*
X003921Y007757D01*
X004028Y007650D01*
X004028Y007437D01*
X004672Y007437D02*
X004672Y007864D01*
X004565Y007971D01*
X004352Y007971D01*
X004245Y007864D01*
X003383Y007971D02*
X003383Y007330D01*
X003383Y007650D02*
X003276Y007757D01*
X003063Y007757D01*
X002956Y007650D01*
X002956Y007330D01*
X002738Y007437D02*
X002738Y007650D01*
X002632Y007757D01*
X002418Y007757D01*
X002311Y007650D01*
X002311Y007544D01*
X002738Y007544D01*
X002738Y007437D02*
X002632Y007330D01*
X002418Y007330D01*
X002094Y007330D02*
X002094Y007757D01*
X001774Y007757D01*
X001667Y007650D01*
X001667Y007330D01*
X011980Y007223D02*
X012086Y007116D01*
X012193Y007116D01*
X012623Y007330D02*
X012836Y007330D01*
X012730Y007330D02*
X012730Y007757D01*
X012836Y007757D01*
X013054Y007757D02*
X013374Y007757D01*
X013481Y007650D01*
X013374Y007544D01*
X013161Y007544D01*
X013054Y007437D01*
X013161Y007330D01*
X013481Y007330D01*
X013698Y007544D02*
X014125Y007544D01*
X014125Y007650D02*
X014125Y007437D01*
X014019Y007330D01*
X013805Y007330D01*
X013698Y007544D02*
X013698Y007650D01*
X013805Y007757D01*
X014019Y007757D01*
X014125Y007650D01*
X014343Y007437D02*
X014343Y007864D01*
X014450Y007971D01*
X014770Y007971D01*
X014770Y007330D01*
X014450Y007330D01*
X014343Y007437D01*
X012730Y007971D02*
X012730Y008077D01*
M02*
