%
M48
M72
T01C0.0120
T02C0.0236
T03C0.0240
T04C0.0400
%
T01
X8350Y3800
X11850Y4300
X13350Y3800
X13350Y2300
X6850Y5800
T02
X4850Y5300
X2875Y5650
T03
X2575Y6150
X3850Y6800
X6350Y4800
T04
X8100Y1550
X9100Y1450
X10100Y1550
X9100Y2450
X8100Y2550
X10100Y2550
X15600Y2550
X15600Y1550
X15600Y3550
X15600Y4550
X15600Y5550
X15600Y6550
X1600Y6050
X1600Y5050
X1600Y7050
M30
