G75*
G70*
%OFA0B0*%
%FSLAX24Y24*%
%IPPOS*%
%LPD*%
%AMOC8*
5,1,8,0,0,1.08239X$1,22.5*
%
%ADD10C,0.0000*%
%ADD11C,0.0030*%
%ADD12C,0.0060*%
%ADD13C,0.0080*%
%ADD14C,0.0010*%
%ADD15C,0.0050*%
D10*
X000850Y000550D02*
X016070Y000550D01*
X016114Y000552D01*
X016157Y000558D01*
X016199Y000567D01*
X016241Y000580D01*
X016281Y000597D01*
X016320Y000617D01*
X016357Y000640D01*
X016391Y000667D01*
X016424Y000696D01*
X016453Y000729D01*
X016480Y000763D01*
X016503Y000800D01*
X016523Y000839D01*
X016540Y000879D01*
X016553Y000921D01*
X016562Y000963D01*
X016568Y001006D01*
X016570Y001050D01*
X016570Y007796D01*
X016568Y007840D01*
X016562Y007883D01*
X016553Y007925D01*
X016540Y007967D01*
X016523Y008007D01*
X016503Y008046D01*
X016480Y008083D01*
X016453Y008117D01*
X016424Y008150D01*
X016391Y008179D01*
X016357Y008206D01*
X016320Y008229D01*
X016281Y008249D01*
X016241Y008266D01*
X016199Y008279D01*
X016157Y008288D01*
X016114Y008294D01*
X016070Y008296D01*
X000850Y008296D01*
X000806Y008294D01*
X000763Y008288D01*
X000721Y008279D01*
X000679Y008266D01*
X000639Y008249D01*
X000600Y008229D01*
X000563Y008206D01*
X000529Y008179D01*
X000496Y008150D01*
X000467Y008117D01*
X000440Y008083D01*
X000417Y008046D01*
X000397Y008007D01*
X000380Y007967D01*
X000367Y007925D01*
X000358Y007883D01*
X000352Y007840D01*
X000350Y007796D01*
X000350Y001050D01*
X000352Y001006D01*
X000358Y000963D01*
X000367Y000921D01*
X000380Y000879D01*
X000397Y000839D01*
X000417Y000800D01*
X000440Y000763D01*
X000467Y000729D01*
X000496Y000696D01*
X000529Y000667D01*
X000563Y000640D01*
X000600Y000617D01*
X000639Y000597D01*
X000679Y000580D01*
X000721Y000567D01*
X000763Y000558D01*
X000806Y000552D01*
X000850Y000550D01*
D11*
X000929Y004865D02*
X000867Y004927D01*
X000929Y004865D02*
X001053Y004865D01*
X001114Y004927D01*
X001114Y005050D01*
X001053Y005112D01*
X000991Y005112D01*
X000867Y005050D01*
X000867Y005235D01*
X001114Y005235D01*
X000438Y005235D02*
X000438Y004865D01*
X000315Y004865D02*
X000562Y004865D01*
X000683Y004865D02*
X000683Y004927D01*
X000745Y004927D01*
X000745Y004865D01*
X000683Y004865D01*
X000315Y005112D02*
X000438Y005235D01*
X000527Y005890D02*
X000465Y005952D01*
X000527Y005890D02*
X000650Y005890D01*
X000712Y005952D01*
X000712Y006013D01*
X000650Y006075D01*
X000588Y006075D01*
X000650Y006075D02*
X000712Y006137D01*
X000712Y006199D01*
X000650Y006260D01*
X000527Y006260D01*
X000465Y006199D01*
X000833Y006137D02*
X000957Y005890D01*
X001080Y006137D01*
X000962Y007103D02*
X000715Y007103D01*
X016190Y006562D02*
X016190Y006315D01*
X016437Y006315D02*
X016437Y006562D01*
X016313Y006685D01*
X016190Y006562D01*
X016190Y006500D02*
X016437Y006500D01*
X016375Y005710D02*
X016190Y005710D01*
X016190Y005340D01*
X016375Y005340D01*
X016437Y005402D01*
X016437Y005463D01*
X016375Y005525D01*
X016190Y005525D01*
X016375Y005525D02*
X016437Y005587D01*
X016437Y005649D01*
X016375Y005710D01*
X016462Y004578D02*
X016215Y004578D01*
X016288Y003685D02*
X016288Y003315D01*
X016165Y003315D02*
X016412Y003315D01*
X016165Y003562D02*
X016288Y003685D01*
X016227Y002685D02*
X016165Y002624D01*
X016227Y002685D02*
X016350Y002685D01*
X016412Y002624D01*
X016412Y002562D01*
X016165Y002315D01*
X016412Y002315D01*
X016350Y001685D02*
X016227Y001685D01*
X016165Y001624D01*
X016350Y001685D02*
X016412Y001624D01*
X016412Y001562D01*
X016350Y001500D01*
X016412Y001438D01*
X016412Y001377D01*
X016350Y001315D01*
X016227Y001315D01*
X016165Y001377D01*
X016288Y001500D02*
X016350Y001500D01*
D12*
X009860Y005120D02*
X007850Y005120D01*
X007850Y006980D02*
X009860Y006980D01*
X011380Y007055D02*
X011380Y007696D01*
X011700Y007696D01*
X011807Y007589D01*
X011807Y007375D01*
X011700Y007269D01*
X011380Y007269D01*
X011594Y007269D02*
X011807Y007055D01*
X012025Y007055D02*
X012452Y007055D01*
X012669Y007269D02*
X012883Y007055D01*
X013096Y007269D01*
X013096Y007696D01*
X012669Y007696D02*
X012669Y007269D01*
X012238Y007375D02*
X012025Y007375D01*
X012025Y007055D02*
X012025Y007696D01*
X012452Y007696D01*
X013314Y007375D02*
X013741Y007375D01*
X013958Y007375D02*
X014385Y007375D01*
X014385Y007482D02*
X014385Y007055D01*
X013958Y007055D02*
X013958Y007482D01*
X014172Y007696D01*
X014385Y007482D01*
D13*
X015100Y006800D02*
X015350Y007050D01*
X015850Y007050D01*
X016100Y006800D01*
X016100Y006300D01*
X015850Y006050D01*
X016100Y005800D01*
X016100Y005300D01*
X015850Y005050D01*
X016100Y004800D01*
X016100Y004300D01*
X015850Y004050D01*
X016100Y003800D01*
X016100Y003300D01*
X015850Y003050D01*
X016100Y002800D01*
X016100Y002300D01*
X015850Y002050D01*
X016100Y001800D01*
X016100Y001300D01*
X015850Y001050D01*
X015350Y001050D01*
X015100Y001300D01*
X015100Y001800D01*
X015350Y002050D01*
X015100Y002300D01*
X015100Y002800D01*
X015350Y003050D01*
X015100Y003300D01*
X015100Y003800D01*
X015350Y004050D01*
X015100Y004300D01*
X015100Y004800D01*
X015350Y005050D01*
X015100Y005300D01*
X015100Y005800D01*
X015350Y006050D01*
X015100Y006300D01*
X015100Y006800D01*
X009483Y005340D02*
X009485Y005355D01*
X009491Y005368D01*
X009500Y005380D01*
X009511Y005389D01*
X009525Y005395D01*
X009540Y005397D01*
X009555Y005395D01*
X009568Y005389D01*
X009580Y005380D01*
X009589Y005369D01*
X009595Y005355D01*
X009597Y005340D01*
X009595Y005325D01*
X009589Y005312D01*
X009580Y005300D01*
X009569Y005291D01*
X009555Y005285D01*
X009540Y005283D01*
X009525Y005285D01*
X009512Y005291D01*
X009500Y005300D01*
X009491Y005311D01*
X009485Y005325D01*
X009483Y005340D01*
X006072Y005694D02*
X006072Y006284D01*
X005128Y006284D01*
X005128Y005694D01*
X003519Y005360D02*
X003181Y005360D01*
X003031Y004906D02*
X003031Y004694D01*
X003181Y004240D02*
X003519Y004240D01*
X002100Y004800D02*
X001850Y004550D01*
X001350Y004550D01*
X001100Y004800D01*
X001100Y005300D01*
X001350Y005550D01*
X001100Y005800D01*
X001100Y006300D01*
X001350Y006550D01*
X001100Y006800D01*
X001100Y007300D01*
X001350Y007550D01*
X001850Y007550D01*
X002100Y007300D01*
X002100Y006800D01*
X001850Y006550D01*
X002100Y006300D01*
X002100Y005800D01*
X001850Y005550D01*
X002100Y005300D01*
X002100Y004800D01*
X005128Y004906D02*
X005128Y004473D01*
X005285Y004316D01*
X005915Y004316D01*
X006072Y004473D01*
X006072Y004906D01*
X004756Y006479D02*
X002944Y006479D01*
X002944Y006656D01*
X003456Y006656D02*
X003456Y007444D01*
X002944Y007444D02*
X002944Y007621D01*
X004756Y007621D01*
X004756Y007444D01*
X004756Y006656D02*
X004756Y006479D01*
X007850Y003050D02*
X008350Y003050D01*
X008600Y002800D01*
X008600Y001300D01*
X008850Y001050D01*
X009350Y001050D01*
X009600Y001300D01*
X009600Y002800D01*
X009850Y003050D01*
X010350Y003050D01*
X010600Y002800D01*
X010600Y001300D01*
X010350Y001050D01*
X009850Y001050D01*
X009600Y001300D01*
X008600Y001300D02*
X008350Y001050D01*
X007850Y001050D01*
X007600Y001300D01*
X007600Y002800D01*
X007850Y003050D01*
X008600Y002800D02*
X008850Y003050D01*
X009350Y003050D01*
X009600Y002800D01*
X008350Y000918D02*
X007850Y000918D01*
D14*
X004945Y001130D02*
X004945Y001180D01*
X004920Y001205D01*
X004945Y001252D02*
X004845Y001352D01*
X004820Y001352D01*
X004795Y001327D01*
X004795Y001277D01*
X004820Y001252D01*
X004820Y001205D02*
X004795Y001180D01*
X004795Y001130D01*
X004820Y001105D01*
X004920Y001105D01*
X004945Y001130D01*
X004945Y001252D02*
X004945Y001352D01*
X004920Y003130D02*
X004870Y003130D01*
X004870Y003205D01*
X004895Y003230D01*
X004920Y003230D01*
X004945Y003205D01*
X004945Y003155D01*
X004920Y003130D01*
X004870Y003130D02*
X004820Y003180D01*
X004795Y003230D01*
X004820Y003277D02*
X004845Y003277D01*
X004870Y003302D01*
X004870Y003352D01*
X004895Y003377D01*
X004920Y003377D01*
X004945Y003352D01*
X004945Y003302D01*
X004920Y003277D01*
X004895Y003277D01*
X004870Y003302D01*
X004870Y003352D02*
X004845Y003377D01*
X004820Y003377D01*
X004795Y003352D01*
X004795Y003302D01*
X004820Y003277D01*
X004845Y003425D02*
X004920Y003425D01*
X004945Y003450D01*
X004945Y003525D01*
X004845Y003525D01*
X004870Y003572D02*
X004870Y003622D01*
X004945Y003572D02*
X004795Y003572D01*
X004795Y003672D01*
X002495Y004480D02*
X002470Y004455D01*
X002345Y004455D01*
X002495Y004480D02*
X002495Y004530D01*
X002470Y004555D01*
X002345Y004555D01*
X002395Y004602D02*
X002345Y004652D01*
X002495Y004652D01*
X002495Y004602D02*
X002495Y004702D01*
X006149Y006035D02*
X006174Y006010D01*
X006274Y006010D01*
X006299Y006035D01*
X006299Y006085D01*
X006274Y006110D01*
X006299Y006158D02*
X006299Y006258D01*
X006299Y006208D02*
X006149Y006208D01*
X006199Y006158D01*
X006174Y006110D02*
X006149Y006085D01*
X006149Y006035D01*
X004708Y006245D02*
X004608Y006245D01*
X004658Y006245D02*
X004658Y006395D01*
X004608Y006345D01*
X004560Y006370D02*
X004535Y006395D01*
X004460Y006395D01*
X004460Y006245D01*
X004535Y006245D01*
X004560Y006270D01*
X004560Y006370D01*
X008970Y005752D02*
X009170Y005752D01*
X009145Y005727D02*
X009145Y005777D01*
X009120Y005802D01*
X009095Y005802D01*
X009070Y005777D01*
X009070Y005727D01*
X009045Y005702D01*
X009020Y005702D01*
X008995Y005727D01*
X008995Y005777D01*
X009020Y005802D01*
X009045Y005850D02*
X008995Y005900D01*
X009145Y005900D01*
X009145Y005850D02*
X009145Y005950D01*
X009145Y005727D02*
X009120Y005702D01*
X009120Y005655D02*
X008995Y005655D01*
X009120Y005655D02*
X009145Y005630D01*
X009145Y005580D01*
X009120Y005555D01*
X008995Y005555D01*
X012855Y005155D02*
X012855Y005005D01*
X012855Y005055D02*
X012930Y005055D01*
X012955Y005080D01*
X012955Y005130D01*
X012930Y005155D01*
X012855Y005155D01*
X012905Y005055D02*
X012955Y005005D01*
X013002Y005005D02*
X013102Y005005D01*
X013052Y005005D02*
X013052Y005155D01*
X013002Y005105D01*
X013027Y004155D02*
X013002Y004130D01*
X013027Y004155D02*
X013077Y004155D01*
X013102Y004130D01*
X013102Y004105D01*
X013002Y004005D01*
X013102Y004005D01*
X012955Y004005D02*
X012905Y004055D01*
X012930Y004055D02*
X012855Y004055D01*
X012855Y004005D02*
X012855Y004155D01*
X012930Y004155D01*
X012955Y004130D01*
X012955Y004080D01*
X012930Y004055D01*
X012930Y003155D02*
X012855Y003155D01*
X012855Y003005D01*
X012855Y003055D02*
X012930Y003055D01*
X012955Y003080D01*
X012955Y003130D01*
X012930Y003155D01*
X013002Y003130D02*
X013027Y003155D01*
X013077Y003155D01*
X013102Y003130D01*
X013102Y003105D01*
X013077Y003080D01*
X013102Y003055D01*
X013102Y003030D01*
X013077Y003005D01*
X013027Y003005D01*
X013002Y003030D01*
X012955Y003005D02*
X012905Y003055D01*
X013052Y003080D02*
X013077Y003080D01*
X013077Y002155D02*
X013002Y002080D01*
X013102Y002080D01*
X013077Y002005D02*
X013077Y002155D01*
X012955Y002130D02*
X012955Y002080D01*
X012930Y002055D01*
X012855Y002055D01*
X012855Y002005D02*
X012855Y002155D01*
X012930Y002155D01*
X012955Y002130D01*
X012905Y002055D02*
X012955Y002005D01*
D15*
X006191Y001802D02*
X006191Y001133D01*
X005009Y001133D01*
X005009Y001802D01*
X003649Y001355D02*
X003610Y001316D01*
X003452Y001316D01*
X003374Y001316D01*
X003334Y001316D01*
X003137Y001119D01*
X002350Y001119D01*
X001956Y001119D01*
X001563Y001119D01*
X001366Y001316D01*
X001090Y001316D01*
X001051Y001355D01*
X001051Y003245D01*
X001090Y003284D01*
X001248Y003284D01*
X001366Y003284D01*
X001563Y003481D01*
X001956Y003481D01*
X002350Y003481D01*
X003137Y003481D01*
X003334Y003284D01*
X003570Y003284D01*
X003610Y003284D01*
X003649Y003245D01*
X003649Y001355D01*
X003531Y001513D02*
X003334Y001316D01*
X003374Y001316D02*
X003452Y001316D01*
X003531Y001513D02*
X003531Y002300D01*
X003531Y003087D01*
X003334Y003284D01*
X003570Y003284D01*
X002350Y002694D02*
X002350Y002300D01*
X002350Y001906D01*
X002350Y002300D02*
X001956Y002300D01*
X002350Y002300D01*
X002744Y002300D01*
X002350Y002300D01*
X001169Y002300D02*
X001169Y003087D01*
X001366Y003284D01*
X001326Y003284D02*
X001248Y003284D01*
X001169Y002300D02*
X001169Y001513D01*
X001366Y001316D01*
X001563Y001119D02*
X001956Y001119D01*
X005088Y003101D02*
X006112Y003101D01*
X006191Y003298D02*
X006191Y003889D01*
X006112Y003967D01*
X005088Y003967D01*
X005009Y003889D01*
X005009Y003298D01*
X005200Y005150D02*
X006000Y005150D01*
M02*
