G75*
G70*
%OFA0B0*%
%FSLAX24Y24*%
%IPPOS*%
%LPD*%
%AMOC8*
5,1,8,0,0,1.08239X$1,22.5*
%
%ADD10C,0.0000*%
%ADD11C,0.0060*%
D10*
X000850Y000550D02*
X016070Y000550D01*
X016114Y000552D01*
X016157Y000558D01*
X016199Y000567D01*
X016241Y000580D01*
X016281Y000597D01*
X016320Y000617D01*
X016357Y000640D01*
X016391Y000667D01*
X016424Y000696D01*
X016453Y000729D01*
X016480Y000763D01*
X016503Y000800D01*
X016523Y000839D01*
X016540Y000879D01*
X016553Y000921D01*
X016562Y000963D01*
X016568Y001006D01*
X016570Y001050D01*
X016570Y007796D01*
X016568Y007840D01*
X016562Y007883D01*
X016553Y007925D01*
X016540Y007967D01*
X016523Y008007D01*
X016503Y008046D01*
X016480Y008083D01*
X016453Y008117D01*
X016424Y008150D01*
X016391Y008179D01*
X016357Y008206D01*
X016320Y008229D01*
X016281Y008249D01*
X016241Y008266D01*
X016199Y008279D01*
X016157Y008288D01*
X016114Y008294D01*
X016070Y008296D01*
X000850Y008296D01*
X000806Y008294D01*
X000763Y008288D01*
X000721Y008279D01*
X000679Y008266D01*
X000639Y008249D01*
X000600Y008229D01*
X000563Y008206D01*
X000529Y008179D01*
X000496Y008150D01*
X000467Y008117D01*
X000440Y008083D01*
X000417Y008046D01*
X000397Y008007D01*
X000380Y007967D01*
X000367Y007925D01*
X000358Y007883D01*
X000352Y007840D01*
X000350Y007796D01*
X000350Y001050D01*
X000352Y001006D01*
X000358Y000963D01*
X000367Y000921D01*
X000380Y000879D01*
X000397Y000839D01*
X000417Y000800D01*
X000440Y000763D01*
X000467Y000729D01*
X000496Y000696D01*
X000529Y000667D01*
X000563Y000640D01*
X000600Y000617D01*
X000639Y000597D01*
X000679Y000580D01*
X000721Y000567D01*
X000763Y000558D01*
X000806Y000552D01*
X000850Y000550D01*
D11*
X010526Y006330D02*
X010953Y006330D01*
X010526Y006757D01*
X010526Y006864D01*
X010632Y006971D01*
X010846Y006971D01*
X010953Y006864D01*
X011384Y006971D02*
X011384Y006330D01*
X011597Y006330D02*
X011170Y006330D01*
X011815Y006650D02*
X012242Y006650D01*
X012459Y006757D02*
X012459Y006864D01*
X012566Y006971D01*
X012780Y006971D01*
X012886Y006864D01*
X013104Y006864D02*
X013104Y006757D01*
X013531Y006330D01*
X013104Y006330D01*
X012886Y006330D02*
X012459Y006757D01*
X013104Y006864D02*
X013211Y006971D01*
X013424Y006971D01*
X013531Y006864D01*
X013748Y006650D02*
X014175Y006650D01*
X014393Y006650D02*
X014820Y006650D01*
X014500Y006971D01*
X014500Y006330D01*
X012886Y006330D02*
X012459Y006330D01*
X011597Y006757D02*
X011384Y006971D01*
X012030Y007223D02*
X012030Y007757D01*
X012350Y007757D01*
X012457Y007650D01*
X012457Y007437D01*
X012350Y007330D01*
X012030Y007330D01*
X011812Y007330D02*
X011812Y007757D01*
X011492Y007757D01*
X011385Y007650D01*
X011385Y007330D01*
X011168Y007437D02*
X011168Y007650D01*
X011061Y007757D01*
X010847Y007757D01*
X010741Y007650D01*
X010741Y007544D01*
X011168Y007544D01*
X011168Y007437D02*
X011061Y007330D01*
X010847Y007330D01*
X010523Y007437D02*
X010416Y007330D01*
X010096Y007330D01*
X010096Y007971D01*
X010096Y007757D02*
X010416Y007757D01*
X010523Y007650D01*
X010523Y007437D01*
X009234Y007330D02*
X009234Y007971D01*
X009234Y007757D02*
X008914Y007757D01*
X008807Y007650D01*
X008807Y007437D01*
X008914Y007330D01*
X009234Y007330D01*
X008589Y007437D02*
X008483Y007330D01*
X008162Y007330D01*
X008162Y007223D02*
X008269Y007116D01*
X008376Y007116D01*
X008162Y007223D02*
X008162Y007757D01*
X008589Y007757D02*
X008589Y007437D01*
X007300Y007544D02*
X006980Y007544D01*
X006873Y007650D01*
X006873Y007864D01*
X006980Y007971D01*
X007300Y007971D01*
X007300Y007330D01*
X007087Y007544D02*
X006873Y007330D01*
X006656Y007437D02*
X006549Y007330D01*
X006335Y007330D01*
X006229Y007437D01*
X006229Y007650D01*
X006335Y007757D01*
X006549Y007757D01*
X006656Y007650D01*
X006656Y007437D01*
X006011Y007437D02*
X005904Y007330D01*
X005584Y007330D01*
X005584Y007223D02*
X005691Y007116D01*
X005798Y007116D01*
X005584Y007223D02*
X005584Y007757D01*
X006011Y007757D02*
X006011Y007437D01*
X004722Y007437D02*
X004615Y007330D01*
X004402Y007330D01*
X004295Y007437D01*
X004078Y007437D02*
X003971Y007330D01*
X003757Y007330D01*
X003650Y007437D01*
X003650Y007650D01*
X003757Y007757D01*
X003971Y007757D01*
X004078Y007650D01*
X004078Y007437D01*
X004722Y007437D02*
X004722Y007864D01*
X004615Y007971D01*
X004402Y007971D01*
X004295Y007864D01*
X003433Y007971D02*
X003433Y007330D01*
X003006Y007330D02*
X003006Y007650D01*
X003113Y007757D01*
X003326Y007757D01*
X003433Y007650D01*
X002788Y007650D02*
X002788Y007437D01*
X002682Y007330D01*
X002468Y007330D01*
X002144Y007330D02*
X002144Y007757D01*
X001824Y007757D01*
X001717Y007650D01*
X001717Y007330D01*
X002361Y007544D02*
X002361Y007650D01*
X002468Y007757D01*
X002682Y007757D01*
X002788Y007650D01*
X002788Y007544D02*
X002361Y007544D01*
X012030Y007223D02*
X012136Y007116D01*
X012243Y007116D01*
X012673Y007330D02*
X012886Y007330D01*
X012780Y007330D02*
X012780Y007757D01*
X012886Y007757D01*
X013104Y007757D02*
X013424Y007757D01*
X013531Y007650D01*
X013424Y007544D01*
X013211Y007544D01*
X013104Y007437D01*
X013211Y007330D01*
X013531Y007330D01*
X013748Y007544D02*
X014175Y007544D01*
X014175Y007650D02*
X014175Y007437D01*
X014069Y007330D01*
X013855Y007330D01*
X013748Y007544D02*
X013748Y007650D01*
X013855Y007757D01*
X014069Y007757D01*
X014175Y007650D01*
X014393Y007437D02*
X014393Y007864D01*
X014500Y007971D01*
X014820Y007971D01*
X014820Y007330D01*
X014500Y007330D01*
X014393Y007437D01*
X012780Y007971D02*
X012780Y008077D01*
M02*
