G75*
G70*
%OFA0B0*%
%FSLAX24Y24*%
%IPPOS*%
%LPD*%
%AMOC8*
5,1,8,0,0,1.08239X$1,22.5*
%
%ADD10C,0.0000*%
%ADD11C,0.0060*%
D10*
X000800Y000550D02*
X016020Y000550D01*
X016064Y000552D01*
X016107Y000558D01*
X016149Y000567D01*
X016191Y000580D01*
X016231Y000597D01*
X016270Y000617D01*
X016307Y000640D01*
X016341Y000667D01*
X016374Y000696D01*
X016403Y000729D01*
X016430Y000763D01*
X016453Y000800D01*
X016473Y000839D01*
X016490Y000879D01*
X016503Y000921D01*
X016512Y000963D01*
X016518Y001006D01*
X016520Y001050D01*
X016520Y007796D01*
X016518Y007840D01*
X016512Y007883D01*
X016503Y007925D01*
X016490Y007967D01*
X016473Y008007D01*
X016453Y008046D01*
X016430Y008083D01*
X016403Y008117D01*
X016374Y008150D01*
X016341Y008179D01*
X016307Y008206D01*
X016270Y008229D01*
X016231Y008249D01*
X016191Y008266D01*
X016149Y008279D01*
X016107Y008288D01*
X016064Y008294D01*
X016020Y008296D01*
X000800Y008296D01*
X000818Y008446D02*
X016039Y008446D01*
X016083Y008448D01*
X016126Y008454D01*
X016168Y008463D01*
X016210Y008476D01*
X016250Y008493D01*
X016289Y008513D01*
X016326Y008536D01*
X016360Y008563D01*
X016393Y008592D01*
X016422Y008625D01*
X016449Y008659D01*
X016472Y008696D01*
X016492Y008735D01*
X016509Y008775D01*
X016522Y008817D01*
X016531Y008859D01*
X016537Y008902D01*
X016539Y008946D01*
X016539Y015692D01*
X016537Y015736D01*
X016531Y015779D01*
X016522Y015821D01*
X016509Y015863D01*
X016492Y015903D01*
X016472Y015942D01*
X016449Y015979D01*
X016422Y016013D01*
X016393Y016046D01*
X016360Y016075D01*
X016326Y016102D01*
X016289Y016125D01*
X016250Y016145D01*
X016210Y016162D01*
X016168Y016175D01*
X016126Y016184D01*
X016083Y016190D01*
X016039Y016192D01*
X000818Y016192D01*
X000774Y016190D01*
X000731Y016184D01*
X000689Y016175D01*
X000647Y016162D01*
X000607Y016145D01*
X000568Y016125D01*
X000531Y016102D01*
X000497Y016075D01*
X000464Y016046D01*
X000435Y016013D01*
X000408Y015979D01*
X000385Y015942D01*
X000365Y015903D01*
X000348Y015863D01*
X000335Y015821D01*
X000326Y015779D01*
X000320Y015736D01*
X000318Y015692D01*
X000318Y008946D01*
X000320Y008902D01*
X000326Y008859D01*
X000335Y008817D01*
X000348Y008775D01*
X000365Y008735D01*
X000385Y008696D01*
X000408Y008659D01*
X000435Y008625D01*
X000464Y008592D01*
X000497Y008563D01*
X000531Y008536D01*
X000568Y008513D01*
X000607Y008493D01*
X000647Y008476D01*
X000689Y008463D01*
X000731Y008454D01*
X000774Y008448D01*
X000818Y008446D01*
X000800Y008296D02*
X000756Y008294D01*
X000713Y008288D01*
X000671Y008279D01*
X000629Y008266D01*
X000589Y008249D01*
X000550Y008229D01*
X000513Y008206D01*
X000479Y008179D01*
X000446Y008150D01*
X000417Y008117D01*
X000390Y008083D01*
X000367Y008046D01*
X000347Y008007D01*
X000330Y007967D01*
X000317Y007925D01*
X000308Y007883D01*
X000302Y007840D01*
X000300Y007796D01*
X000300Y001050D01*
X000302Y001006D01*
X000308Y000963D01*
X000317Y000921D01*
X000330Y000879D01*
X000347Y000839D01*
X000367Y000800D01*
X000390Y000763D01*
X000417Y000729D01*
X000446Y000696D01*
X000479Y000667D01*
X000513Y000640D01*
X000550Y000617D01*
X000589Y000597D01*
X000629Y000580D01*
X000671Y000567D01*
X000713Y000558D01*
X000756Y000552D01*
X000800Y000550D01*
D11*
X000745Y001110D02*
X000532Y001110D01*
X000425Y001217D01*
X000425Y001430D01*
X000532Y001537D01*
X000638Y001537D01*
X000852Y001430D01*
X000852Y001751D01*
X000425Y001751D01*
X000852Y001217D02*
X000745Y001110D01*
X001069Y001110D02*
X001496Y001110D01*
X001283Y001110D02*
X001283Y001751D01*
X001496Y001537D01*
X001714Y001644D02*
X002141Y001217D01*
X002141Y001110D01*
X002358Y001217D02*
X002358Y001644D01*
X002465Y001751D01*
X002679Y001751D01*
X002785Y001644D01*
X002785Y001537D01*
X002679Y001430D01*
X002358Y001430D01*
X002358Y001217D02*
X002465Y001110D01*
X002679Y001110D01*
X002785Y001217D01*
X003003Y001430D02*
X003430Y001430D01*
X003110Y001751D01*
X003110Y001110D01*
X002141Y001751D02*
X001714Y001751D01*
X001714Y001644D01*
X005641Y007116D02*
X005748Y007116D01*
X005641Y007116D02*
X005534Y007223D01*
X005534Y007757D01*
X005961Y007757D02*
X005961Y007437D01*
X005854Y007330D01*
X005534Y007330D01*
X006179Y007437D02*
X006179Y007650D01*
X006285Y007757D01*
X006499Y007757D01*
X006606Y007650D01*
X006606Y007437D01*
X006499Y007330D01*
X006285Y007330D01*
X006179Y007437D01*
X006823Y007330D02*
X007037Y007544D01*
X006930Y007544D02*
X007250Y007544D01*
X007250Y007330D02*
X007250Y007971D01*
X006930Y007971D01*
X006823Y007864D01*
X006823Y007650D01*
X006930Y007544D01*
X008112Y007757D02*
X008112Y007223D01*
X008219Y007116D01*
X008326Y007116D01*
X008433Y007330D02*
X008112Y007330D01*
X008433Y007330D02*
X008539Y007437D01*
X008539Y007757D01*
X008757Y007650D02*
X008757Y007437D01*
X008864Y007330D01*
X009184Y007330D01*
X009184Y007971D01*
X009184Y007757D02*
X008864Y007757D01*
X008757Y007650D01*
X010046Y007757D02*
X010366Y007757D01*
X010473Y007650D01*
X010473Y007437D01*
X010366Y007330D01*
X010046Y007330D01*
X010046Y007971D01*
X010691Y007650D02*
X010691Y007544D01*
X011118Y007544D01*
X011118Y007650D02*
X011011Y007757D01*
X010797Y007757D01*
X010691Y007650D01*
X010797Y007330D02*
X011011Y007330D01*
X011118Y007437D01*
X011118Y007650D01*
X011335Y007650D02*
X011335Y007330D01*
X011335Y007650D02*
X011442Y007757D01*
X011762Y007757D01*
X011762Y007330D01*
X011980Y007330D02*
X012300Y007330D01*
X012407Y007437D01*
X012407Y007650D01*
X012300Y007757D01*
X011980Y007757D01*
X011980Y007223D01*
X012086Y007116D01*
X012193Y007116D01*
X012409Y006864D02*
X012516Y006971D01*
X012730Y006971D01*
X012836Y006864D01*
X013054Y006864D02*
X013054Y006757D01*
X013481Y006330D01*
X013054Y006330D01*
X012836Y006330D02*
X012409Y006757D01*
X012409Y006864D01*
X012192Y006650D02*
X011765Y006650D01*
X011547Y006757D02*
X011334Y006971D01*
X011334Y006330D01*
X011547Y006330D02*
X011120Y006330D01*
X010903Y006330D02*
X010476Y006757D01*
X010476Y006864D01*
X010582Y006971D01*
X010796Y006971D01*
X010903Y006864D01*
X010903Y006330D02*
X010476Y006330D01*
X012409Y006330D02*
X012836Y006330D01*
X013054Y006864D02*
X013161Y006971D01*
X013374Y006971D01*
X013481Y006864D01*
X013698Y006650D02*
X014125Y006650D01*
X014343Y006650D02*
X014770Y006650D01*
X014450Y006971D01*
X014450Y006330D01*
X014450Y007330D02*
X014343Y007437D01*
X014343Y007864D01*
X014450Y007971D01*
X014770Y007971D01*
X014770Y007330D01*
X014450Y007330D01*
X014125Y007437D02*
X014125Y007650D01*
X014019Y007757D01*
X013805Y007757D01*
X013698Y007650D01*
X013698Y007544D01*
X014125Y007544D01*
X014125Y007437D02*
X014019Y007330D01*
X013805Y007330D01*
X013481Y007330D02*
X013161Y007330D01*
X013054Y007437D01*
X013161Y007544D01*
X013374Y007544D01*
X013481Y007650D01*
X013374Y007757D01*
X013054Y007757D01*
X012836Y007757D02*
X012730Y007757D01*
X012730Y007330D01*
X012836Y007330D02*
X012623Y007330D01*
X012730Y007971D02*
X012730Y008077D01*
X012855Y014226D02*
X012428Y014226D01*
X012210Y014547D02*
X011783Y014547D01*
X011566Y014653D02*
X011352Y014867D01*
X011352Y014226D01*
X011139Y014226D02*
X011566Y014226D01*
X010921Y014226D02*
X010494Y014653D01*
X010494Y014760D01*
X010601Y014867D01*
X010814Y014867D01*
X010921Y014760D01*
X010816Y015226D02*
X011029Y015226D01*
X011136Y015333D01*
X011136Y015547D01*
X011029Y015653D01*
X010816Y015653D01*
X010709Y015547D01*
X010709Y015440D01*
X011136Y015440D01*
X011354Y015547D02*
X011460Y015653D01*
X011781Y015653D01*
X011781Y015226D01*
X011998Y015226D02*
X012318Y015226D01*
X012425Y015333D01*
X012425Y015547D01*
X012318Y015653D01*
X011998Y015653D01*
X011998Y015120D01*
X012105Y015013D01*
X012212Y015013D01*
X012428Y014760D02*
X012535Y014867D01*
X012748Y014867D01*
X012855Y014760D01*
X013072Y014760D02*
X013072Y014653D01*
X013499Y014226D01*
X013072Y014226D01*
X012855Y014226D02*
X012428Y014653D01*
X012428Y014760D01*
X012641Y015226D02*
X012855Y015226D01*
X012748Y015226D02*
X012748Y015653D01*
X012855Y015653D01*
X012748Y015867D02*
X012748Y015974D01*
X013072Y015653D02*
X013393Y015653D01*
X013499Y015547D01*
X013393Y015440D01*
X013179Y015440D01*
X013072Y015333D01*
X013179Y015226D01*
X013499Y015226D01*
X013717Y015440D02*
X014144Y015440D01*
X014144Y015333D02*
X014144Y015547D01*
X014037Y015653D01*
X013824Y015653D01*
X013717Y015547D01*
X013717Y015440D01*
X013824Y015226D02*
X014037Y015226D01*
X014144Y015333D01*
X014361Y015333D02*
X014361Y015760D01*
X014468Y015867D01*
X014788Y015867D01*
X014788Y015226D01*
X014468Y015226D01*
X014361Y015333D01*
X014468Y014867D02*
X014788Y014547D01*
X014361Y014547D01*
X014144Y014547D02*
X013717Y014547D01*
X013499Y014760D02*
X013393Y014867D01*
X013179Y014867D01*
X013072Y014760D01*
X014468Y014867D02*
X014468Y014226D01*
X011354Y015226D02*
X011354Y015547D01*
X010491Y015547D02*
X010491Y015333D01*
X010385Y015226D01*
X010064Y015226D01*
X010064Y015867D01*
X010064Y015653D02*
X010385Y015653D01*
X010491Y015547D01*
X009202Y015653D02*
X008882Y015653D01*
X008775Y015547D01*
X008775Y015333D01*
X008882Y015226D01*
X009202Y015226D01*
X009202Y015867D01*
X008558Y015653D02*
X008558Y015333D01*
X008451Y015226D01*
X008131Y015226D01*
X008131Y015120D02*
X008238Y015013D01*
X008344Y015013D01*
X008131Y015120D02*
X008131Y015653D01*
X007269Y015440D02*
X006948Y015440D01*
X006842Y015547D01*
X006842Y015760D01*
X006948Y015867D01*
X007269Y015867D01*
X007269Y015226D01*
X007055Y015440D02*
X006842Y015226D01*
X006624Y015333D02*
X006517Y015226D01*
X006304Y015226D01*
X006197Y015333D01*
X006197Y015547D01*
X006304Y015653D01*
X006517Y015653D01*
X006624Y015547D01*
X006624Y015333D01*
X005980Y015333D02*
X005873Y015226D01*
X005553Y015226D01*
X005553Y015120D02*
X005659Y015013D01*
X005766Y015013D01*
X005553Y015120D02*
X005553Y015653D01*
X005980Y015653D02*
X005980Y015333D01*
X004691Y015333D02*
X004584Y015226D01*
X004370Y015226D01*
X004264Y015333D01*
X004046Y015333D02*
X004046Y015547D01*
X003939Y015653D01*
X003726Y015653D01*
X003619Y015547D01*
X003619Y015333D01*
X003726Y015226D01*
X003939Y015226D01*
X004046Y015333D01*
X004264Y015760D02*
X004370Y015867D01*
X004584Y015867D01*
X004691Y015760D01*
X004691Y015333D01*
X003401Y015226D02*
X003401Y015867D01*
X003295Y015653D02*
X003081Y015653D01*
X002974Y015547D01*
X002974Y015226D01*
X002757Y015333D02*
X002757Y015547D01*
X002650Y015653D01*
X002437Y015653D01*
X002330Y015547D01*
X002330Y015440D01*
X002757Y015440D01*
X002757Y015333D02*
X002650Y015226D01*
X002437Y015226D01*
X002112Y015226D02*
X002112Y015653D01*
X001792Y015653D01*
X001685Y015547D01*
X001685Y015226D01*
X003295Y015653D02*
X003401Y015547D01*
X003128Y009647D02*
X003448Y009327D01*
X003021Y009327D01*
X002804Y009433D02*
X002804Y009540D01*
X002697Y009647D01*
X002484Y009647D01*
X002377Y009540D01*
X002377Y009113D01*
X002484Y009006D01*
X002697Y009006D01*
X002804Y009113D01*
X002697Y009327D02*
X002377Y009327D01*
X002159Y009113D02*
X002159Y009006D01*
X002159Y009113D02*
X001732Y009540D01*
X001732Y009647D01*
X002159Y009647D01*
X002697Y009327D02*
X002804Y009433D01*
X003128Y009647D02*
X003128Y009006D01*
X003383Y007971D02*
X003383Y007330D01*
X003600Y007437D02*
X003600Y007650D01*
X003707Y007757D01*
X003921Y007757D01*
X004028Y007650D01*
X004028Y007437D01*
X003921Y007330D01*
X003707Y007330D01*
X003600Y007437D01*
X003383Y007650D02*
X003276Y007757D01*
X003063Y007757D01*
X002956Y007650D01*
X002956Y007330D01*
X002738Y007437D02*
X002738Y007650D01*
X002632Y007757D01*
X002418Y007757D01*
X002311Y007650D01*
X002311Y007544D01*
X002738Y007544D01*
X002738Y007437D02*
X002632Y007330D01*
X002418Y007330D01*
X002094Y007330D02*
X002094Y007757D01*
X001774Y007757D01*
X001667Y007650D01*
X001667Y007330D01*
X001515Y009006D02*
X001088Y009006D01*
X001301Y009006D02*
X001301Y009647D01*
X001515Y009433D01*
X000870Y009327D02*
X000657Y009433D01*
X000550Y009433D01*
X000443Y009327D01*
X000443Y009113D01*
X000550Y009006D01*
X000764Y009006D01*
X000870Y009113D01*
X000870Y009327D02*
X000870Y009647D01*
X000443Y009647D01*
X004245Y007864D02*
X004352Y007971D01*
X004565Y007971D01*
X004672Y007864D01*
X004672Y007437D01*
X004565Y007330D01*
X004352Y007330D01*
X004245Y007437D01*
X010494Y014226D02*
X010921Y014226D01*
M02*
