G75*
G70*
%OFA0B0*%
%FSLAX24Y24*%
%IPPOS*%
%LPD*%
%AMOC8*
5,1,8,0,0,1.08239X$1,22.5*
%
%ADD10C,0.0000*%
%ADD11OC8,0.0740*%
%ADD12C,0.0740*%
%ADD13C,0.0356*%
%ADD14C,0.0100*%
%ADD15C,0.0060*%
%ADD16C,0.0360*%
%ADD17C,0.0240*%
D10*
X000800Y000550D02*
X016020Y000550D01*
X016064Y000552D01*
X016107Y000558D01*
X016149Y000567D01*
X016191Y000580D01*
X016231Y000597D01*
X016270Y000617D01*
X016307Y000640D01*
X016341Y000667D01*
X016374Y000696D01*
X016403Y000729D01*
X016430Y000763D01*
X016453Y000800D01*
X016473Y000839D01*
X016490Y000879D01*
X016503Y000921D01*
X016512Y000963D01*
X016518Y001006D01*
X016520Y001050D01*
X016520Y007796D01*
X016518Y007840D01*
X016512Y007883D01*
X016503Y007925D01*
X016490Y007967D01*
X016473Y008007D01*
X016453Y008046D01*
X016430Y008083D01*
X016403Y008117D01*
X016374Y008150D01*
X016341Y008179D01*
X016307Y008206D01*
X016270Y008229D01*
X016231Y008249D01*
X016191Y008266D01*
X016149Y008279D01*
X016107Y008288D01*
X016064Y008294D01*
X016020Y008296D01*
X000800Y008296D01*
X000818Y008446D02*
X016039Y008446D01*
X016083Y008448D01*
X016126Y008454D01*
X016168Y008463D01*
X016210Y008476D01*
X016250Y008493D01*
X016289Y008513D01*
X016326Y008536D01*
X016360Y008563D01*
X016393Y008592D01*
X016422Y008625D01*
X016449Y008659D01*
X016472Y008696D01*
X016492Y008735D01*
X016509Y008775D01*
X016522Y008817D01*
X016531Y008859D01*
X016537Y008902D01*
X016539Y008946D01*
X016539Y015692D01*
X016537Y015736D01*
X016531Y015779D01*
X016522Y015821D01*
X016509Y015863D01*
X016492Y015903D01*
X016472Y015942D01*
X016449Y015979D01*
X016422Y016013D01*
X016393Y016046D01*
X016360Y016075D01*
X016326Y016102D01*
X016289Y016125D01*
X016250Y016145D01*
X016210Y016162D01*
X016168Y016175D01*
X016126Y016184D01*
X016083Y016190D01*
X016039Y016192D01*
X000818Y016192D01*
X000774Y016190D01*
X000731Y016184D01*
X000689Y016175D01*
X000647Y016162D01*
X000607Y016145D01*
X000568Y016125D01*
X000531Y016102D01*
X000497Y016075D01*
X000464Y016046D01*
X000435Y016013D01*
X000408Y015979D01*
X000385Y015942D01*
X000365Y015903D01*
X000348Y015863D01*
X000335Y015821D01*
X000326Y015779D01*
X000320Y015736D01*
X000318Y015692D01*
X000318Y008946D01*
X000320Y008902D01*
X000326Y008859D01*
X000335Y008817D01*
X000348Y008775D01*
X000365Y008735D01*
X000385Y008696D01*
X000408Y008659D01*
X000435Y008625D01*
X000464Y008592D01*
X000497Y008563D01*
X000531Y008536D01*
X000568Y008513D01*
X000607Y008493D01*
X000647Y008476D01*
X000689Y008463D01*
X000731Y008454D01*
X000774Y008448D01*
X000818Y008446D01*
X000800Y008296D02*
X000756Y008294D01*
X000713Y008288D01*
X000671Y008279D01*
X000629Y008266D01*
X000589Y008249D01*
X000550Y008229D01*
X000513Y008206D01*
X000479Y008179D01*
X000446Y008150D01*
X000417Y008117D01*
X000390Y008083D01*
X000367Y008046D01*
X000347Y008007D01*
X000330Y007967D01*
X000317Y007925D01*
X000308Y007883D01*
X000302Y007840D01*
X000300Y007796D01*
X000300Y001050D01*
X000302Y001006D01*
X000308Y000963D01*
X000317Y000921D01*
X000330Y000879D01*
X000347Y000839D01*
X000367Y000800D01*
X000390Y000763D01*
X000417Y000729D01*
X000446Y000696D01*
X000479Y000667D01*
X000513Y000640D01*
X000550Y000617D01*
X000589Y000597D01*
X000629Y000580D01*
X000671Y000567D01*
X000713Y000558D01*
X000756Y000552D01*
X000800Y000550D01*
D11*
X008050Y001550D03*
X008050Y002550D03*
X009050Y002450D03*
X010050Y002550D03*
X010050Y001550D03*
X009050Y001450D03*
X009068Y009346D03*
X009068Y010346D03*
X008068Y010446D03*
X008068Y009446D03*
X010068Y009446D03*
X010068Y010446D03*
D12*
X015568Y010446D03*
X015568Y011446D03*
X015568Y012446D03*
X015568Y013446D03*
X015568Y014446D03*
X015568Y009446D03*
X015550Y006550D03*
X015550Y005550D03*
X015550Y004550D03*
X015550Y003550D03*
X015550Y002550D03*
X015550Y001550D03*
X001550Y005050D03*
X001550Y006050D03*
X001550Y007050D03*
X001568Y012946D03*
X001568Y013946D03*
X001568Y014946D03*
D13*
X002843Y013546D03*
X004818Y013196D03*
X002825Y005650D03*
X004800Y005300D03*
D14*
X004450Y005650D01*
X003950Y005650D01*
X002825Y005650D01*
X002495Y005790D02*
X002467Y005721D01*
X002467Y005579D01*
X002521Y005447D01*
X002622Y005346D01*
X002754Y005292D01*
X002896Y005292D01*
X003028Y005346D01*
X003101Y005420D01*
X004355Y005420D01*
X004442Y005333D01*
X004442Y005229D01*
X004496Y005097D01*
X004564Y005030D01*
X002100Y005030D01*
X002100Y005159D01*
X002016Y005362D01*
X001862Y005516D01*
X001780Y005550D01*
X001862Y005584D01*
X002016Y005738D01*
X002100Y005941D01*
X002100Y006159D01*
X002016Y006362D01*
X001862Y006516D01*
X001780Y006550D01*
X001862Y006584D01*
X002016Y006738D01*
X002100Y006941D01*
X002100Y007159D01*
X002016Y007362D01*
X001862Y007516D01*
X001659Y007600D01*
X001441Y007600D01*
X001238Y007516D01*
X001084Y007362D01*
X001000Y007159D01*
X001000Y006941D01*
X001084Y006738D01*
X001238Y006584D01*
X001320Y006550D01*
X001238Y006516D01*
X001084Y006362D01*
X001000Y006159D01*
X001000Y005941D01*
X001084Y005738D01*
X001238Y005584D01*
X001320Y005550D01*
X001238Y005516D01*
X001084Y005362D01*
X001000Y005159D01*
X001000Y004941D01*
X001084Y004738D01*
X001238Y004584D01*
X001441Y004500D01*
X001659Y004500D01*
X001828Y004570D01*
X006021Y004570D01*
X006096Y004495D01*
X006228Y004440D01*
X006372Y004440D01*
X006504Y004495D01*
X006605Y004596D01*
X006660Y004728D01*
X006660Y004872D01*
X006605Y005004D01*
X006504Y005105D01*
X006372Y005160D01*
X006228Y005160D01*
X006096Y005105D01*
X006021Y005030D01*
X005036Y005030D01*
X005104Y005097D01*
X005158Y005229D01*
X005158Y005371D01*
X005104Y005503D01*
X005003Y005604D01*
X004871Y005658D01*
X004767Y005658D01*
X004545Y005880D01*
X003101Y005880D01*
X003028Y005954D01*
X002896Y006008D01*
X002856Y006008D01*
X002883Y006075D01*
X003658Y006469D01*
X003728Y006440D01*
X003872Y006440D01*
X004004Y006495D01*
X004105Y006596D01*
X004160Y006728D01*
X004160Y006872D01*
X004105Y007004D01*
X004004Y007105D01*
X003872Y007160D01*
X003728Y007160D01*
X003596Y007105D01*
X003495Y007004D01*
X003442Y006875D01*
X002667Y006481D01*
X002597Y006510D01*
X002453Y006510D01*
X002321Y006455D01*
X002220Y006354D01*
X002165Y006222D01*
X002165Y006078D01*
X002220Y005946D01*
X002321Y005845D01*
X002453Y005790D01*
X002495Y005790D01*
X002468Y005725D02*
X002003Y005725D01*
X002051Y005824D02*
X002372Y005824D01*
X002244Y005922D02*
X002092Y005922D01*
X002100Y006021D02*
X002189Y006021D01*
X002165Y006119D02*
X002100Y006119D01*
X002076Y006218D02*
X002165Y006218D01*
X002204Y006316D02*
X002035Y006316D01*
X001963Y006415D02*
X002280Y006415D01*
X002525Y006150D02*
X003800Y006800D01*
X004112Y006612D02*
X015000Y006612D01*
X015000Y006659D02*
X015000Y006441D01*
X015084Y006238D01*
X015238Y006084D01*
X015320Y006050D01*
X015238Y006016D01*
X015084Y005862D01*
X015000Y005659D01*
X015000Y005441D01*
X015084Y005238D01*
X015238Y005084D01*
X015320Y005050D01*
X015238Y005016D01*
X015232Y005010D01*
X014713Y005010D01*
X014590Y004887D01*
X013589Y003886D01*
X013554Y003970D01*
X013470Y004054D01*
X013360Y004100D01*
X013240Y004100D01*
X013130Y004054D01*
X013086Y004010D01*
X011884Y004010D01*
X011970Y004046D01*
X012054Y004130D01*
X012100Y004240D01*
X012100Y004360D01*
X012054Y004470D01*
X011970Y004554D01*
X011860Y004600D01*
X011797Y004600D01*
X010510Y005887D01*
X010387Y006010D01*
X007014Y006010D01*
X006970Y006054D01*
X006860Y006100D01*
X006740Y006100D01*
X006630Y006054D01*
X006546Y005970D01*
X006500Y005860D01*
X006500Y005740D01*
X006546Y005630D01*
X006630Y005546D01*
X006740Y005500D01*
X006860Y005500D01*
X006970Y005546D01*
X007014Y005590D01*
X010213Y005590D01*
X011500Y004303D01*
X011500Y004240D01*
X011546Y004130D01*
X011630Y004046D01*
X011716Y004010D01*
X010213Y004010D01*
X009203Y003000D01*
X008822Y003000D01*
X008600Y002778D01*
X008278Y003100D01*
X007897Y003100D01*
X008297Y003500D01*
X008360Y003500D01*
X008470Y003546D01*
X008554Y003630D01*
X008600Y003740D01*
X008600Y003860D01*
X008554Y003970D01*
X008470Y004054D01*
X008360Y004100D01*
X008240Y004100D01*
X008130Y004054D01*
X008046Y003970D01*
X008000Y003860D01*
X008000Y003797D01*
X007213Y003010D01*
X007090Y002887D01*
X007090Y001713D01*
X007213Y001590D01*
X007500Y001590D01*
X007500Y001322D01*
X007822Y001000D01*
X008278Y001000D01*
X008290Y001013D01*
X008573Y000730D01*
X000800Y000730D01*
X000738Y000736D01*
X000622Y000784D01*
X000534Y000872D01*
X000486Y000988D01*
X000480Y001050D01*
X000480Y007796D01*
X000486Y007858D01*
X000534Y007974D01*
X000622Y008062D01*
X000738Y008110D01*
X000800Y008116D01*
X016020Y008116D01*
X016083Y008110D01*
X016198Y008062D01*
X016286Y007974D01*
X016334Y007858D01*
X016340Y007796D01*
X016340Y001050D01*
X016334Y000988D01*
X016286Y000872D01*
X016198Y000784D01*
X016083Y000736D01*
X016020Y000730D01*
X012027Y000730D01*
X013297Y002000D01*
X013360Y002000D01*
X013470Y002046D01*
X013554Y002130D01*
X013600Y002240D01*
X013600Y002360D01*
X013554Y002470D01*
X013470Y002554D01*
X013360Y002600D01*
X013240Y002600D01*
X013130Y002554D01*
X013046Y002470D01*
X013000Y002360D01*
X013000Y002297D01*
X011713Y001010D01*
X010288Y001010D01*
X010600Y001322D01*
X010600Y001778D01*
X010328Y002050D01*
X010600Y002322D01*
X010600Y002778D01*
X010587Y002790D01*
X010887Y003090D01*
X013387Y003090D01*
X014887Y004590D01*
X015000Y004590D01*
X015000Y004441D01*
X015084Y004238D01*
X015238Y004084D01*
X015320Y004050D01*
X015238Y004016D01*
X015084Y003862D01*
X015000Y003659D01*
X015000Y003441D01*
X015084Y003238D01*
X015238Y003084D01*
X015320Y003050D01*
X015238Y003016D01*
X015084Y002862D01*
X015000Y002659D01*
X015000Y002441D01*
X015084Y002238D01*
X015238Y002084D01*
X015320Y002050D01*
X015238Y002016D01*
X015084Y001862D01*
X015000Y001659D01*
X015000Y001441D01*
X015084Y001238D01*
X015238Y001084D01*
X015441Y001000D01*
X015659Y001000D01*
X015862Y001084D01*
X016016Y001238D01*
X016100Y001441D01*
X016100Y001659D01*
X016016Y001862D01*
X015862Y002016D01*
X015780Y002050D01*
X015862Y002084D01*
X016016Y002238D01*
X016100Y002441D01*
X016100Y002659D01*
X016016Y002862D01*
X015862Y003016D01*
X015780Y003050D01*
X015862Y003084D01*
X016016Y003238D01*
X016100Y003441D01*
X016100Y003659D01*
X016016Y003862D01*
X015862Y004016D01*
X015780Y004050D01*
X015862Y004084D01*
X016016Y004238D01*
X016100Y004441D01*
X016100Y004659D01*
X016016Y004862D01*
X015862Y005016D01*
X015780Y005050D01*
X015862Y005084D01*
X016016Y005238D01*
X016100Y005441D01*
X016100Y005659D01*
X016016Y005862D01*
X015862Y006016D01*
X015780Y006050D01*
X015862Y006084D01*
X016016Y006238D01*
X016100Y006441D01*
X016100Y006659D01*
X016016Y006862D01*
X015862Y007016D01*
X015659Y007100D01*
X015441Y007100D01*
X015238Y007016D01*
X015084Y006862D01*
X015000Y006659D01*
X015021Y006710D02*
X004152Y006710D01*
X004160Y006809D02*
X015062Y006809D01*
X015129Y006907D02*
X004145Y006907D01*
X004104Y007006D02*
X015228Y007006D01*
X015000Y006513D02*
X004022Y006513D01*
X003550Y006415D02*
X015011Y006415D01*
X015052Y006316D02*
X003357Y006316D01*
X003164Y006218D02*
X015105Y006218D01*
X015203Y006119D02*
X002971Y006119D01*
X002861Y006021D02*
X006596Y006021D01*
X006526Y005922D02*
X003059Y005922D01*
X002467Y005627D02*
X001904Y005627D01*
X001833Y005528D02*
X002488Y005528D01*
X002539Y005430D02*
X001948Y005430D01*
X002029Y005331D02*
X002659Y005331D01*
X002991Y005331D02*
X004442Y005331D01*
X004442Y005233D02*
X002070Y005233D01*
X002100Y005134D02*
X004481Y005134D01*
X004558Y005036D02*
X002100Y005036D01*
X001800Y004800D02*
X001550Y005050D01*
X001800Y004800D02*
X006300Y004800D01*
X006026Y005036D02*
X005042Y005036D01*
X005119Y005134D02*
X006166Y005134D01*
X006434Y005134D02*
X010669Y005134D01*
X010768Y005036D02*
X006574Y005036D01*
X006633Y004937D02*
X010866Y004937D01*
X010965Y004839D02*
X006660Y004839D01*
X006660Y004740D02*
X011063Y004740D01*
X011162Y004642D02*
X006624Y004642D01*
X006552Y004543D02*
X011260Y004543D01*
X011359Y004445D02*
X006382Y004445D01*
X006218Y004445D02*
X000480Y004445D01*
X000480Y004543D02*
X001337Y004543D01*
X001181Y004642D02*
X000480Y004642D01*
X000480Y004740D02*
X001083Y004740D01*
X001042Y004839D02*
X000480Y004839D01*
X000480Y004937D02*
X001001Y004937D01*
X001000Y005036D02*
X000480Y005036D01*
X000480Y005134D02*
X001000Y005134D01*
X001030Y005233D02*
X000480Y005233D01*
X000480Y005331D02*
X001071Y005331D01*
X001152Y005430D02*
X000480Y005430D01*
X000480Y005528D02*
X001267Y005528D01*
X001196Y005627D02*
X000480Y005627D01*
X000480Y005725D02*
X001097Y005725D01*
X001048Y005824D02*
X000480Y005824D01*
X000480Y005922D02*
X001008Y005922D01*
X001000Y006021D02*
X000480Y006021D01*
X000480Y006119D02*
X001000Y006119D01*
X001024Y006218D02*
X000480Y006218D01*
X000480Y006316D02*
X001065Y006316D01*
X001137Y006415D02*
X000480Y006415D01*
X000480Y006513D02*
X001235Y006513D01*
X001211Y006612D02*
X000480Y006612D01*
X000480Y006710D02*
X001112Y006710D01*
X001055Y006809D02*
X000480Y006809D01*
X000480Y006907D02*
X001014Y006907D01*
X001000Y007006D02*
X000480Y007006D01*
X000480Y007104D02*
X001000Y007104D01*
X001018Y007203D02*
X000480Y007203D01*
X000480Y007301D02*
X001059Y007301D01*
X001122Y007400D02*
X000480Y007400D01*
X000480Y007498D02*
X001220Y007498D01*
X001432Y007597D02*
X000480Y007597D01*
X000480Y007695D02*
X016340Y007695D01*
X016340Y007597D02*
X001668Y007597D01*
X001880Y007498D02*
X016340Y007498D01*
X016340Y007400D02*
X001978Y007400D01*
X002041Y007301D02*
X016340Y007301D01*
X016340Y007203D02*
X002082Y007203D01*
X002100Y007104D02*
X003595Y007104D01*
X003496Y007006D02*
X002100Y007006D01*
X002086Y006907D02*
X003455Y006907D01*
X003310Y006809D02*
X002045Y006809D01*
X001988Y006710D02*
X003117Y006710D01*
X002924Y006612D02*
X001889Y006612D01*
X001865Y006513D02*
X002731Y006513D01*
X004005Y007104D02*
X016340Y007104D01*
X016340Y007006D02*
X015872Y007006D01*
X015971Y006907D02*
X016340Y006907D01*
X016340Y006809D02*
X016038Y006809D01*
X016079Y006710D02*
X016340Y006710D01*
X016340Y006612D02*
X016100Y006612D01*
X016100Y006513D02*
X016340Y006513D01*
X016340Y006415D02*
X016089Y006415D01*
X016048Y006316D02*
X016340Y006316D01*
X016340Y006218D02*
X015995Y006218D01*
X015897Y006119D02*
X016340Y006119D01*
X016340Y006021D02*
X015851Y006021D01*
X015956Y005922D02*
X016340Y005922D01*
X016340Y005824D02*
X016032Y005824D01*
X016073Y005725D02*
X016340Y005725D01*
X016340Y005627D02*
X016100Y005627D01*
X016100Y005528D02*
X016340Y005528D01*
X016340Y005430D02*
X016095Y005430D01*
X016055Y005331D02*
X016340Y005331D01*
X016340Y005233D02*
X016010Y005233D01*
X015912Y005134D02*
X016340Y005134D01*
X016340Y005036D02*
X015815Y005036D01*
X015941Y004937D02*
X016340Y004937D01*
X016340Y004839D02*
X016026Y004839D01*
X016067Y004740D02*
X016340Y004740D01*
X016340Y004642D02*
X016100Y004642D01*
X016100Y004543D02*
X016340Y004543D01*
X016340Y004445D02*
X016100Y004445D01*
X016061Y004346D02*
X016340Y004346D01*
X016340Y004248D02*
X016020Y004248D01*
X015927Y004149D02*
X016340Y004149D01*
X016340Y004051D02*
X015781Y004051D01*
X015926Y003952D02*
X016340Y003952D01*
X016340Y003854D02*
X016020Y003854D01*
X016060Y003755D02*
X016340Y003755D01*
X016340Y003657D02*
X016100Y003657D01*
X016100Y003558D02*
X016340Y003558D01*
X016340Y003460D02*
X016100Y003460D01*
X016067Y003361D02*
X016340Y003361D01*
X016340Y003263D02*
X016026Y003263D01*
X015942Y003164D02*
X016340Y003164D01*
X016340Y003066D02*
X015818Y003066D01*
X015911Y002967D02*
X016340Y002967D01*
X016340Y002869D02*
X016009Y002869D01*
X016054Y002770D02*
X016340Y002770D01*
X016340Y002672D02*
X016095Y002672D01*
X016100Y002573D02*
X016340Y002573D01*
X016340Y002475D02*
X016100Y002475D01*
X016073Y002376D02*
X016340Y002376D01*
X016340Y002278D02*
X016032Y002278D01*
X015957Y002179D02*
X016340Y002179D01*
X016340Y002081D02*
X015854Y002081D01*
X015896Y001982D02*
X016340Y001982D01*
X016340Y001884D02*
X015994Y001884D01*
X016048Y001785D02*
X016340Y001785D01*
X016340Y001687D02*
X016089Y001687D01*
X016100Y001588D02*
X016340Y001588D01*
X016340Y001490D02*
X016100Y001490D01*
X016079Y001391D02*
X016340Y001391D01*
X016340Y001293D02*
X016039Y001293D01*
X015972Y001194D02*
X016340Y001194D01*
X016340Y001096D02*
X015873Y001096D01*
X016214Y000800D02*
X012097Y000800D01*
X012195Y000899D02*
X016297Y000899D01*
X016335Y000997D02*
X012294Y000997D01*
X012392Y001096D02*
X015227Y001096D01*
X015128Y001194D02*
X012491Y001194D01*
X012589Y001293D02*
X015061Y001293D01*
X015021Y001391D02*
X012688Y001391D01*
X012786Y001490D02*
X015000Y001490D01*
X015000Y001588D02*
X012885Y001588D01*
X012983Y001687D02*
X015011Y001687D01*
X015052Y001785D02*
X013082Y001785D01*
X013180Y001884D02*
X015106Y001884D01*
X015204Y001982D02*
X013279Y001982D01*
X013505Y002081D02*
X015246Y002081D01*
X015143Y002179D02*
X013575Y002179D01*
X013600Y002278D02*
X015068Y002278D01*
X015027Y002376D02*
X013593Y002376D01*
X013550Y002475D02*
X015000Y002475D01*
X015000Y002573D02*
X013425Y002573D01*
X013175Y002573D02*
X010600Y002573D01*
X010600Y002475D02*
X013050Y002475D01*
X013007Y002376D02*
X010600Y002376D01*
X010555Y002278D02*
X012981Y002278D01*
X012882Y002179D02*
X010457Y002179D01*
X010358Y002081D02*
X012784Y002081D01*
X012685Y001982D02*
X010396Y001982D01*
X010494Y001884D02*
X012587Y001884D01*
X012488Y001785D02*
X010593Y001785D01*
X010600Y001687D02*
X012390Y001687D01*
X012291Y001588D02*
X010600Y001588D01*
X010600Y001490D02*
X012193Y001490D01*
X012094Y001391D02*
X010600Y001391D01*
X010570Y001293D02*
X011996Y001293D01*
X011897Y001194D02*
X010472Y001194D01*
X010373Y001096D02*
X011799Y001096D01*
X010600Y002672D02*
X015005Y002672D01*
X015046Y002770D02*
X010600Y002770D01*
X010665Y002869D02*
X015091Y002869D01*
X015189Y002967D02*
X010764Y002967D01*
X010862Y003066D02*
X015282Y003066D01*
X015158Y003164D02*
X013461Y003164D01*
X013559Y003263D02*
X015074Y003263D01*
X015033Y003361D02*
X013658Y003361D01*
X013756Y003460D02*
X015000Y003460D01*
X015000Y003558D02*
X013855Y003558D01*
X013953Y003657D02*
X015000Y003657D01*
X015040Y003755D02*
X014052Y003755D01*
X014150Y003854D02*
X015080Y003854D01*
X015174Y003952D02*
X014249Y003952D01*
X014347Y004051D02*
X015319Y004051D01*
X015173Y004149D02*
X014446Y004149D01*
X014544Y004248D02*
X015080Y004248D01*
X015039Y004346D02*
X014643Y004346D01*
X014741Y004445D02*
X015000Y004445D01*
X015000Y004543D02*
X014840Y004543D01*
X014542Y004839D02*
X011558Y004839D01*
X011460Y004937D02*
X014640Y004937D01*
X014443Y004740D02*
X011657Y004740D01*
X011755Y004642D02*
X014345Y004642D01*
X014246Y004543D02*
X011981Y004543D01*
X012065Y004445D02*
X014148Y004445D01*
X014049Y004346D02*
X012100Y004346D01*
X012100Y004248D02*
X013951Y004248D01*
X013852Y004149D02*
X012062Y004149D01*
X011975Y004051D02*
X013126Y004051D01*
X013474Y004051D02*
X013754Y004051D01*
X013655Y003952D02*
X013562Y003952D01*
X013130Y003546D02*
X013086Y003590D01*
X010387Y003590D01*
X009897Y003100D01*
X010278Y003100D01*
X010290Y003087D01*
X010590Y003387D01*
X010713Y003510D01*
X013213Y003510D01*
X013214Y003511D01*
X013130Y003546D01*
X013118Y003558D02*
X010355Y003558D01*
X010256Y003460D02*
X010663Y003460D01*
X010564Y003361D02*
X010158Y003361D01*
X010059Y003263D02*
X010466Y003263D01*
X010367Y003164D02*
X009961Y003164D01*
X009663Y003460D02*
X008256Y003460D01*
X008158Y003361D02*
X009564Y003361D01*
X009466Y003263D02*
X008059Y003263D01*
X007961Y003164D02*
X009367Y003164D01*
X009269Y003066D02*
X008312Y003066D01*
X008411Y002967D02*
X008789Y002967D01*
X008691Y002869D02*
X008509Y002869D01*
X008600Y002778D02*
X008600Y002778D01*
X008500Y002222D02*
X008500Y002222D01*
X008772Y001950D01*
X008600Y001778D01*
X008600Y001778D01*
X008328Y002050D01*
X008500Y002222D01*
X008457Y002179D02*
X008543Y002179D01*
X008642Y002081D02*
X008358Y002081D01*
X008396Y001982D02*
X008740Y001982D01*
X008706Y001884D02*
X008494Y001884D01*
X008593Y001785D02*
X008607Y001785D01*
X009328Y001950D02*
X009600Y002222D01*
X009600Y002222D01*
X009772Y002050D01*
X009500Y001778D01*
X009500Y001778D01*
X009328Y001950D01*
X009360Y001982D02*
X009704Y001982D01*
X009742Y002081D02*
X009458Y002081D01*
X009557Y002179D02*
X009643Y002179D01*
X009606Y001884D02*
X009394Y001884D01*
X009493Y001785D02*
X009507Y001785D01*
X009600Y001222D02*
X009812Y001010D01*
X009388Y001010D01*
X009600Y001222D01*
X009600Y001222D01*
X009572Y001194D02*
X009628Y001194D01*
X009727Y001096D02*
X009473Y001096D01*
X008503Y000800D02*
X000606Y000800D01*
X000523Y000899D02*
X008405Y000899D01*
X008306Y000997D02*
X000485Y000997D01*
X000480Y001096D02*
X007727Y001096D01*
X007628Y001194D02*
X000480Y001194D01*
X000480Y001293D02*
X007530Y001293D01*
X007500Y001391D02*
X000480Y001391D01*
X000480Y001490D02*
X007500Y001490D01*
X007500Y001588D02*
X000480Y001588D01*
X000480Y001687D02*
X007117Y001687D01*
X007090Y001785D02*
X000480Y001785D01*
X000480Y001884D02*
X007090Y001884D01*
X007090Y001982D02*
X000480Y001982D01*
X000480Y002081D02*
X007090Y002081D01*
X007090Y002179D02*
X000480Y002179D01*
X000480Y002278D02*
X007090Y002278D01*
X007090Y002376D02*
X000480Y002376D01*
X000480Y002475D02*
X007090Y002475D01*
X007090Y002573D02*
X000480Y002573D01*
X000480Y002672D02*
X007090Y002672D01*
X007090Y002770D02*
X000480Y002770D01*
X000480Y002869D02*
X007090Y002869D01*
X007170Y002967D02*
X000480Y002967D01*
X000480Y003066D02*
X007269Y003066D01*
X007367Y003164D02*
X000480Y003164D01*
X000480Y003263D02*
X007466Y003263D01*
X007564Y003361D02*
X000480Y003361D01*
X000480Y003460D02*
X007663Y003460D01*
X007761Y003558D02*
X000480Y003558D01*
X000480Y003657D02*
X007860Y003657D01*
X007958Y003755D02*
X000480Y003755D01*
X000480Y003854D02*
X008000Y003854D01*
X008038Y003952D02*
X000480Y003952D01*
X000480Y004051D02*
X008126Y004051D01*
X008474Y004051D02*
X011625Y004051D01*
X011538Y004149D02*
X000480Y004149D01*
X000480Y004248D02*
X011500Y004248D01*
X011457Y004346D02*
X000480Y004346D01*
X001763Y004543D02*
X006048Y004543D01*
X005158Y005233D02*
X010571Y005233D01*
X010472Y005331D02*
X005158Y005331D01*
X005134Y005430D02*
X010374Y005430D01*
X010275Y005528D02*
X006927Y005528D01*
X006673Y005528D02*
X005078Y005528D01*
X004948Y005627D02*
X006549Y005627D01*
X006506Y005725D02*
X004700Y005725D01*
X004602Y005824D02*
X006500Y005824D01*
X007004Y006021D02*
X015249Y006021D01*
X015144Y005922D02*
X010475Y005922D01*
X010573Y005824D02*
X015068Y005824D01*
X015027Y005725D02*
X010672Y005725D01*
X010770Y005627D02*
X015000Y005627D01*
X015000Y005528D02*
X010869Y005528D01*
X010967Y005430D02*
X015005Y005430D01*
X015045Y005331D02*
X011066Y005331D01*
X011164Y005233D02*
X015090Y005233D01*
X015188Y005134D02*
X011263Y005134D01*
X011361Y005036D02*
X015285Y005036D01*
X016340Y007794D02*
X000480Y007794D01*
X000500Y007892D02*
X016320Y007892D01*
X016269Y007991D02*
X000551Y007991D01*
X000687Y008089D02*
X016133Y008089D01*
X016101Y008633D02*
X016039Y008626D01*
X012045Y008626D01*
X013315Y009896D01*
X013378Y009896D01*
X013488Y009942D01*
X013573Y010026D01*
X013618Y010137D01*
X013618Y010256D01*
X015052Y010256D01*
X015018Y010337D02*
X015102Y010135D01*
X015257Y009980D01*
X015338Y009946D01*
X015257Y009913D01*
X015102Y009758D01*
X015018Y009556D01*
X015018Y009337D01*
X015102Y009135D01*
X015257Y008980D01*
X015459Y008896D01*
X015678Y008896D01*
X015880Y008980D01*
X016035Y009135D01*
X016118Y009337D01*
X016118Y009556D01*
X016035Y009758D01*
X015880Y009913D01*
X015799Y009946D01*
X015880Y009980D01*
X016035Y010135D01*
X016118Y010337D01*
X016118Y010556D01*
X016035Y010758D01*
X015880Y010913D01*
X015799Y010946D01*
X015880Y010980D01*
X016035Y011135D01*
X016118Y011337D01*
X016118Y011556D01*
X016035Y011758D01*
X015880Y011913D01*
X015799Y011946D01*
X015880Y011980D01*
X016035Y012135D01*
X016118Y012337D01*
X016118Y012556D01*
X016035Y012758D01*
X015880Y012913D01*
X015799Y012946D01*
X015880Y012980D01*
X016035Y013135D01*
X016118Y013337D01*
X016118Y013556D01*
X016035Y013758D01*
X015880Y013913D01*
X015799Y013946D01*
X015880Y013980D01*
X016035Y014135D01*
X016118Y014337D01*
X016118Y014556D01*
X016035Y014758D01*
X015880Y014913D01*
X015678Y014996D01*
X015459Y014996D01*
X015257Y014913D01*
X015102Y014758D01*
X015018Y014556D01*
X015018Y014337D01*
X015102Y014135D01*
X015257Y013980D01*
X015338Y013946D01*
X015257Y013913D01*
X015102Y013758D01*
X015018Y013556D01*
X015018Y013337D01*
X015102Y013135D01*
X015257Y012980D01*
X015338Y012946D01*
X015257Y012913D01*
X015251Y012906D01*
X014731Y012906D01*
X014608Y012783D01*
X013608Y011782D01*
X013573Y011866D01*
X013488Y011951D01*
X013378Y011996D01*
X013259Y011996D01*
X013149Y011951D01*
X013104Y011906D01*
X011902Y011906D01*
X011988Y011942D01*
X012073Y012026D01*
X012118Y012137D01*
X012118Y012256D01*
X012073Y012366D01*
X011988Y012451D01*
X011878Y012496D01*
X011815Y012496D01*
X010528Y013783D01*
X010405Y013906D01*
X007033Y013906D01*
X006988Y013951D01*
X006878Y013996D01*
X006759Y013996D01*
X006649Y013951D01*
X006564Y013866D01*
X006518Y013756D01*
X006518Y013637D01*
X006564Y013526D01*
X006649Y013442D01*
X006759Y013396D01*
X006878Y013396D01*
X006988Y013442D01*
X007033Y013486D01*
X010231Y013486D01*
X011518Y012199D01*
X011518Y012137D01*
X011564Y012026D01*
X011649Y011942D01*
X011735Y011906D01*
X010231Y011906D01*
X009221Y010896D01*
X008841Y010896D01*
X008618Y010674D01*
X008618Y010674D01*
X008296Y010996D01*
X007915Y010996D01*
X008315Y011396D01*
X008378Y011396D01*
X008488Y011442D01*
X008573Y011526D01*
X008618Y011637D01*
X008618Y011756D01*
X008573Y011866D01*
X008488Y011951D01*
X008378Y011996D01*
X008259Y011996D01*
X008149Y011951D01*
X008064Y011866D01*
X008018Y011756D01*
X008018Y011693D01*
X007231Y010906D01*
X007108Y010783D01*
X007108Y009609D01*
X007231Y009486D01*
X007518Y009486D01*
X007518Y009219D01*
X007841Y008896D01*
X008296Y008896D01*
X008309Y008909D01*
X008591Y008626D01*
X000818Y008626D01*
X000756Y008633D01*
X000641Y008680D01*
X008538Y008680D01*
X008439Y008779D02*
X000548Y008779D01*
X000552Y008769D02*
X000505Y008884D01*
X000498Y008946D01*
X000498Y015692D01*
X000505Y015755D01*
X000552Y015870D01*
X000641Y015958D01*
X000756Y016006D01*
X000818Y016012D01*
X016039Y016012D01*
X016101Y016006D01*
X016216Y015958D01*
X016305Y015870D01*
X016352Y015755D01*
X016359Y015692D01*
X016359Y008946D01*
X016352Y008884D01*
X016305Y008769D01*
X016216Y008680D01*
X012099Y008680D01*
X012198Y008779D02*
X016309Y008779D01*
X016350Y008877D02*
X012296Y008877D01*
X012395Y008976D02*
X015268Y008976D01*
X015163Y009074D02*
X012493Y009074D01*
X012592Y009173D02*
X015087Y009173D01*
X015046Y009271D02*
X012690Y009271D01*
X012789Y009370D02*
X015018Y009370D01*
X015018Y009468D02*
X012887Y009468D01*
X012986Y009567D02*
X015023Y009567D01*
X015064Y009665D02*
X013084Y009665D01*
X013183Y009764D02*
X015108Y009764D01*
X015206Y009862D02*
X013281Y009862D01*
X013507Y009961D02*
X015304Y009961D01*
X015178Y010059D02*
X013586Y010059D01*
X013618Y010158D02*
X015093Y010158D01*
X015018Y010337D02*
X015018Y010556D01*
X015102Y010758D01*
X015257Y010913D01*
X015338Y010946D01*
X015257Y010980D01*
X015102Y011135D01*
X015018Y011337D01*
X015018Y011556D01*
X015102Y011758D01*
X015257Y011913D01*
X015338Y011946D01*
X015257Y011980D01*
X015102Y012135D01*
X015018Y012337D01*
X015018Y012486D01*
X014905Y012486D01*
X013405Y010986D01*
X010905Y010986D01*
X010606Y010687D01*
X010618Y010674D01*
X010618Y010219D01*
X010346Y009946D01*
X010618Y009674D01*
X010618Y009219D01*
X010306Y008906D01*
X011731Y008906D01*
X013018Y010193D01*
X013018Y010256D01*
X010618Y010256D01*
X010618Y010355D02*
X013059Y010355D01*
X013064Y010366D02*
X013018Y010256D01*
X012983Y010158D02*
X010557Y010158D01*
X010459Y010059D02*
X012884Y010059D01*
X012786Y009961D02*
X010360Y009961D01*
X010431Y009862D02*
X012687Y009862D01*
X012589Y009764D02*
X010529Y009764D01*
X010618Y009665D02*
X012490Y009665D01*
X012392Y009567D02*
X010618Y009567D01*
X010618Y009468D02*
X012293Y009468D01*
X012195Y009370D02*
X010618Y009370D01*
X010618Y009271D02*
X012096Y009271D01*
X011998Y009173D02*
X010572Y009173D01*
X010474Y009074D02*
X011899Y009074D01*
X011801Y008976D02*
X010375Y008976D01*
X009831Y008906D02*
X009406Y008906D01*
X009618Y009119D01*
X009831Y008906D01*
X009762Y008976D02*
X009475Y008976D01*
X009574Y009074D02*
X009663Y009074D01*
X009618Y009119D02*
X009618Y009119D01*
X009518Y009674D02*
X009346Y009846D01*
X009618Y010119D01*
X009791Y009946D01*
X009518Y009674D01*
X009518Y009674D01*
X009429Y009764D02*
X009608Y009764D01*
X009706Y009862D02*
X009362Y009862D01*
X009460Y009961D02*
X009776Y009961D01*
X009678Y010059D02*
X009559Y010059D01*
X009618Y010119D02*
X009618Y010119D01*
X008791Y009846D02*
X008618Y009674D01*
X008618Y009674D01*
X008346Y009946D01*
X008518Y010119D01*
X008518Y010119D01*
X008791Y009846D01*
X008775Y009862D02*
X008431Y009862D01*
X008360Y009961D02*
X008676Y009961D01*
X008578Y010059D02*
X008459Y010059D01*
X008529Y009764D02*
X008708Y009764D01*
X007791Y009946D02*
X007751Y009906D01*
X007528Y009906D01*
X007528Y010209D01*
X007791Y009946D01*
X007776Y009961D02*
X007528Y009961D01*
X007528Y010059D02*
X007678Y010059D01*
X007579Y010158D02*
X007528Y010158D01*
X007108Y010158D02*
X000498Y010158D01*
X000498Y010256D02*
X007108Y010256D01*
X007108Y010355D02*
X000498Y010355D01*
X000498Y010453D02*
X007108Y010453D01*
X007108Y010552D02*
X000498Y010552D01*
X000498Y010650D02*
X007108Y010650D01*
X007108Y010749D02*
X000498Y010749D01*
X000498Y010847D02*
X007172Y010847D01*
X007271Y010946D02*
X000498Y010946D01*
X000498Y011044D02*
X007369Y011044D01*
X007468Y011143D02*
X000498Y011143D01*
X000498Y011241D02*
X007566Y011241D01*
X007665Y011340D02*
X000498Y011340D01*
X000498Y011438D02*
X007763Y011438D01*
X007862Y011537D02*
X000498Y011537D01*
X000498Y011635D02*
X007960Y011635D01*
X008018Y011734D02*
X000498Y011734D01*
X000498Y011832D02*
X008050Y011832D01*
X008128Y011931D02*
X000498Y011931D01*
X000498Y012029D02*
X011563Y012029D01*
X011522Y012128D02*
X000498Y012128D01*
X000498Y012226D02*
X011492Y012226D01*
X011393Y012325D02*
X000498Y012325D01*
X000498Y012423D02*
X001395Y012423D01*
X001459Y012396D02*
X001678Y012396D01*
X001847Y012466D01*
X006039Y012466D01*
X006115Y012391D01*
X006247Y012336D01*
X006390Y012336D01*
X006522Y012391D01*
X006624Y012492D01*
X006678Y012625D01*
X006678Y012768D01*
X006624Y012900D01*
X006522Y013002D01*
X006390Y013056D01*
X006247Y013056D01*
X006115Y013002D01*
X006039Y012926D01*
X005055Y012926D01*
X005122Y012994D01*
X005177Y013125D01*
X005177Y013268D01*
X005122Y013399D01*
X005021Y013500D01*
X004890Y013554D01*
X004786Y013554D01*
X004564Y013776D01*
X003120Y013776D01*
X003046Y013850D01*
X002915Y013904D01*
X002874Y013904D01*
X002902Y013971D01*
X003676Y014366D01*
X003747Y014336D01*
X003890Y014336D01*
X004022Y014391D01*
X004124Y014492D01*
X004178Y014625D01*
X004178Y014768D01*
X004124Y014900D01*
X004022Y015002D01*
X003890Y015056D01*
X003747Y015056D01*
X003615Y015002D01*
X003513Y014900D01*
X003460Y014772D01*
X002686Y014377D01*
X002615Y014406D01*
X002472Y014406D01*
X002340Y014352D01*
X002238Y014250D01*
X002183Y014118D01*
X002183Y013975D01*
X002238Y013842D01*
X002340Y013741D01*
X002472Y013686D01*
X002514Y013686D01*
X002485Y013618D01*
X002485Y013475D01*
X002540Y013344D01*
X002641Y013243D01*
X002772Y013188D01*
X002915Y013188D01*
X003046Y013243D01*
X003120Y013316D01*
X004373Y013316D01*
X004460Y013229D01*
X004460Y013125D01*
X004515Y012994D01*
X004582Y012926D01*
X002118Y012926D01*
X002118Y013056D01*
X002035Y013258D01*
X001880Y013413D01*
X001799Y013446D01*
X001880Y013480D01*
X002035Y013635D01*
X002118Y013837D01*
X002118Y014056D01*
X002035Y014258D01*
X001880Y014413D01*
X001799Y014446D01*
X001880Y014480D01*
X002035Y014635D01*
X002118Y014837D01*
X002118Y015056D01*
X002035Y015258D01*
X001880Y015413D01*
X001678Y015496D01*
X001459Y015496D01*
X001257Y015413D01*
X001102Y015258D01*
X001018Y015056D01*
X001018Y014837D01*
X001102Y014635D01*
X001257Y014480D01*
X001338Y014446D01*
X001257Y014413D01*
X001102Y014258D01*
X001018Y014056D01*
X001018Y013837D01*
X001102Y013635D01*
X001257Y013480D01*
X001338Y013446D01*
X001257Y013413D01*
X001102Y013258D01*
X001018Y013056D01*
X001018Y012837D01*
X001102Y012635D01*
X001257Y012480D01*
X001459Y012396D01*
X001215Y012522D02*
X000498Y012522D01*
X000498Y012620D02*
X001117Y012620D01*
X001068Y012719D02*
X000498Y012719D01*
X000498Y012817D02*
X001027Y012817D01*
X001018Y012916D02*
X000498Y012916D01*
X000498Y013014D02*
X001018Y013014D01*
X001042Y013113D02*
X000498Y013113D01*
X000498Y013211D02*
X001083Y013211D01*
X001154Y013310D02*
X000498Y013310D01*
X000498Y013408D02*
X001252Y013408D01*
X001230Y013507D02*
X000498Y013507D01*
X000498Y013605D02*
X001132Y013605D01*
X001074Y013704D02*
X000498Y013704D01*
X000498Y013802D02*
X001033Y013802D01*
X001018Y013901D02*
X000498Y013901D01*
X000498Y013999D02*
X001018Y013999D01*
X001036Y014098D02*
X000498Y014098D01*
X000498Y014196D02*
X001077Y014196D01*
X001139Y014295D02*
X000498Y014295D01*
X000498Y014393D02*
X001237Y014393D01*
X001245Y014492D02*
X000498Y014492D01*
X000498Y014590D02*
X001147Y014590D01*
X001080Y014689D02*
X000498Y014689D01*
X000498Y014787D02*
X001039Y014787D01*
X001018Y014886D02*
X000498Y014886D01*
X000498Y014984D02*
X001018Y014984D01*
X001030Y015083D02*
X000498Y015083D01*
X000498Y015181D02*
X001070Y015181D01*
X001124Y015280D02*
X000498Y015280D01*
X000498Y015378D02*
X001222Y015378D01*
X001411Y015477D02*
X000498Y015477D01*
X000498Y015575D02*
X016359Y015575D01*
X016359Y015477D02*
X001726Y015477D01*
X001915Y015378D02*
X016359Y015378D01*
X016359Y015280D02*
X002013Y015280D01*
X002067Y015181D02*
X016359Y015181D01*
X016359Y015083D02*
X002107Y015083D01*
X002118Y014984D02*
X003597Y014984D01*
X003507Y014886D02*
X002118Y014886D01*
X002098Y014787D02*
X003466Y014787D01*
X003297Y014689D02*
X002057Y014689D01*
X001990Y014590D02*
X003104Y014590D01*
X002910Y014492D02*
X001891Y014492D01*
X001900Y014393D02*
X002440Y014393D01*
X002283Y014295D02*
X001998Y014295D01*
X002060Y014196D02*
X002216Y014196D01*
X002183Y014098D02*
X002101Y014098D01*
X002118Y013999D02*
X002183Y013999D01*
X002214Y013901D02*
X002118Y013901D01*
X002104Y013802D02*
X002279Y013802D01*
X002430Y013704D02*
X002063Y013704D01*
X002005Y013605D02*
X002485Y013605D01*
X002485Y013507D02*
X001906Y013507D01*
X001885Y013408D02*
X002513Y013408D01*
X002574Y013310D02*
X001983Y013310D01*
X002054Y013211D02*
X002717Y013211D01*
X002970Y013211D02*
X004460Y013211D01*
X004466Y013113D02*
X002095Y013113D01*
X002118Y013014D02*
X004506Y013014D01*
X004380Y013310D02*
X003113Y013310D01*
X002843Y013546D02*
X003968Y013546D01*
X004468Y013546D01*
X004818Y013196D01*
X005131Y013014D02*
X006145Y013014D01*
X006492Y013014D02*
X010704Y013014D01*
X010802Y012916D02*
X006608Y012916D01*
X006658Y012817D02*
X010901Y012817D01*
X010999Y012719D02*
X006678Y012719D01*
X006677Y012620D02*
X011098Y012620D01*
X011196Y012522D02*
X006636Y012522D01*
X006554Y012423D02*
X011295Y012423D01*
X011593Y012719D02*
X014544Y012719D01*
X014642Y012817D02*
X011495Y012817D01*
X011396Y012916D02*
X015264Y012916D01*
X015223Y013014D02*
X011298Y013014D01*
X011199Y013113D02*
X015124Y013113D01*
X015071Y013211D02*
X011101Y013211D01*
X011002Y013310D02*
X015030Y013310D01*
X015018Y013408D02*
X010904Y013408D01*
X010805Y013507D02*
X015018Y013507D01*
X015039Y013605D02*
X010707Y013605D01*
X010608Y013704D02*
X015080Y013704D01*
X015146Y013802D02*
X010510Y013802D01*
X010411Y013901D02*
X015245Y013901D01*
X015238Y013999D02*
X002957Y013999D01*
X002924Y013901D02*
X006598Y013901D01*
X006538Y013802D02*
X003094Y013802D01*
X003150Y014098D02*
X015139Y014098D01*
X015077Y014196D02*
X003343Y014196D01*
X003537Y014295D02*
X015036Y014295D01*
X015018Y014393D02*
X004024Y014393D01*
X004123Y014492D02*
X015018Y014492D01*
X015033Y014590D02*
X004164Y014590D01*
X004178Y014689D02*
X015073Y014689D01*
X015131Y014787D02*
X004171Y014787D01*
X004130Y014886D02*
X015230Y014886D01*
X015429Y014984D02*
X004040Y014984D01*
X003818Y014696D02*
X002543Y014046D01*
X002647Y014393D02*
X002717Y014393D01*
X001568Y012946D02*
X001818Y012696D01*
X006318Y012696D01*
X006083Y012423D02*
X001742Y012423D01*
X000498Y010059D02*
X007108Y010059D01*
X007108Y009961D02*
X000498Y009961D01*
X000498Y009862D02*
X007108Y009862D01*
X007108Y009764D02*
X000498Y009764D01*
X000498Y009665D02*
X007108Y009665D01*
X007151Y009567D02*
X000498Y009567D01*
X000498Y009468D02*
X007518Y009468D01*
X007518Y009370D02*
X000498Y009370D01*
X000498Y009271D02*
X007518Y009271D01*
X007565Y009173D02*
X000498Y009173D01*
X000498Y009074D02*
X007663Y009074D01*
X007762Y008976D02*
X000498Y008976D01*
X000507Y008877D02*
X008341Y008877D01*
X008544Y010749D02*
X008693Y010749D01*
X008791Y010847D02*
X008446Y010847D01*
X008347Y010946D02*
X009271Y010946D01*
X009369Y011044D02*
X007963Y011044D01*
X008062Y011143D02*
X009468Y011143D01*
X009566Y011241D02*
X008160Y011241D01*
X008259Y011340D02*
X009665Y011340D01*
X009763Y011438D02*
X008479Y011438D01*
X008577Y011537D02*
X009862Y011537D01*
X009960Y011635D02*
X008618Y011635D01*
X008618Y011734D02*
X010059Y011734D01*
X010157Y011832D02*
X008587Y011832D01*
X008509Y011931D02*
X011676Y011931D01*
X011961Y011931D02*
X013128Y011931D01*
X013509Y011931D02*
X013756Y011931D01*
X013854Y012029D02*
X012074Y012029D01*
X012115Y012128D02*
X013953Y012128D01*
X014051Y012226D02*
X012118Y012226D01*
X012090Y012325D02*
X014150Y012325D01*
X014248Y012423D02*
X012016Y012423D01*
X011790Y012522D02*
X014347Y012522D01*
X014445Y012620D02*
X011692Y012620D01*
X010605Y013113D02*
X005171Y013113D01*
X005177Y013211D02*
X010507Y013211D01*
X010408Y013310D02*
X005159Y013310D01*
X005113Y013408D02*
X006731Y013408D01*
X006906Y013408D02*
X010310Y013408D01*
X010405Y011486D02*
X013104Y011486D01*
X013149Y011442D01*
X013232Y011407D01*
X013231Y011406D01*
X010731Y011406D01*
X010608Y011283D01*
X010309Y010984D01*
X010296Y010996D01*
X009915Y010996D01*
X010405Y011486D01*
X010357Y011438D02*
X013158Y011438D01*
X013562Y011143D02*
X015099Y011143D01*
X015058Y011241D02*
X013660Y011241D01*
X013759Y011340D02*
X015018Y011340D01*
X015018Y011438D02*
X013857Y011438D01*
X013956Y011537D02*
X015018Y011537D01*
X015051Y011635D02*
X014054Y011635D01*
X014153Y011734D02*
X015092Y011734D01*
X015176Y011832D02*
X014251Y011832D01*
X014350Y011931D02*
X015300Y011931D01*
X015208Y012029D02*
X014448Y012029D01*
X014547Y012128D02*
X015109Y012128D01*
X015064Y012226D02*
X014645Y012226D01*
X014744Y012325D02*
X015024Y012325D01*
X015018Y012423D02*
X014842Y012423D01*
X015837Y011931D02*
X016359Y011931D01*
X016359Y012029D02*
X015929Y012029D01*
X016027Y012128D02*
X016359Y012128D01*
X016359Y012226D02*
X016073Y012226D01*
X016113Y012325D02*
X016359Y012325D01*
X016359Y012423D02*
X016118Y012423D01*
X016118Y012522D02*
X016359Y012522D01*
X016359Y012620D02*
X016092Y012620D01*
X016051Y012719D02*
X016359Y012719D01*
X016359Y012817D02*
X015976Y012817D01*
X015873Y012916D02*
X016359Y012916D01*
X016359Y013014D02*
X015914Y013014D01*
X016012Y013113D02*
X016359Y013113D01*
X016359Y013211D02*
X016066Y013211D01*
X016107Y013310D02*
X016359Y013310D01*
X016359Y013408D02*
X016118Y013408D01*
X016118Y013507D02*
X016359Y013507D01*
X016359Y013605D02*
X016098Y013605D01*
X016057Y013704D02*
X016359Y013704D01*
X016359Y013802D02*
X015991Y013802D01*
X015892Y013901D02*
X016359Y013901D01*
X016359Y013999D02*
X015899Y013999D01*
X015997Y014098D02*
X016359Y014098D01*
X016359Y014196D02*
X016060Y014196D01*
X016101Y014295D02*
X016359Y014295D01*
X016359Y014393D02*
X016118Y014393D01*
X016118Y014492D02*
X016359Y014492D01*
X016359Y014590D02*
X016104Y014590D01*
X016063Y014689D02*
X016359Y014689D01*
X016359Y014787D02*
X016006Y014787D01*
X015907Y014886D02*
X016359Y014886D01*
X016359Y014984D02*
X015708Y014984D01*
X016359Y015674D02*
X000498Y015674D01*
X000512Y015772D02*
X016345Y015772D01*
X016304Y015871D02*
X000553Y015871D01*
X000666Y015969D02*
X016191Y015969D01*
X016359Y011832D02*
X015961Y011832D01*
X016045Y011734D02*
X016359Y011734D01*
X016359Y011635D02*
X016086Y011635D01*
X016118Y011537D02*
X016359Y011537D01*
X016359Y011438D02*
X016118Y011438D01*
X016118Y011340D02*
X016359Y011340D01*
X016359Y011241D02*
X016079Y011241D01*
X016038Y011143D02*
X016359Y011143D01*
X016359Y011044D02*
X015944Y011044D01*
X015801Y010946D02*
X016359Y010946D01*
X016359Y010847D02*
X015946Y010847D01*
X016039Y010749D02*
X016359Y010749D01*
X016359Y010650D02*
X016079Y010650D01*
X016118Y010552D02*
X016359Y010552D01*
X016359Y010453D02*
X016118Y010453D01*
X016118Y010355D02*
X016359Y010355D01*
X016359Y010256D02*
X016085Y010256D01*
X016044Y010158D02*
X016359Y010158D01*
X016359Y010059D02*
X015959Y010059D01*
X015833Y009961D02*
X016359Y009961D01*
X016359Y009862D02*
X015931Y009862D01*
X016029Y009764D02*
X016359Y009764D01*
X016359Y009665D02*
X016073Y009665D01*
X016114Y009567D02*
X016359Y009567D01*
X016359Y009468D02*
X016118Y009468D01*
X016118Y009370D02*
X016359Y009370D01*
X016359Y009271D02*
X016091Y009271D01*
X016050Y009173D02*
X016359Y009173D01*
X016359Y009074D02*
X015974Y009074D01*
X015869Y008976D02*
X016359Y008976D01*
X016216Y008680D02*
X016101Y008633D01*
X015018Y010355D02*
X013578Y010355D01*
X013573Y010366D02*
X013488Y010451D01*
X013378Y010496D01*
X013259Y010496D01*
X013149Y010451D01*
X013064Y010366D01*
X013154Y010453D02*
X010618Y010453D01*
X010618Y010552D02*
X015018Y010552D01*
X015018Y010453D02*
X013483Y010453D01*
X013573Y010366D02*
X013618Y010256D01*
X013463Y011044D02*
X015193Y011044D01*
X015336Y010946D02*
X010865Y010946D01*
X010766Y010847D02*
X015191Y010847D01*
X015098Y010749D02*
X010668Y010749D01*
X010618Y010650D02*
X015058Y010650D01*
X013657Y011832D02*
X013587Y011832D01*
X010665Y011340D02*
X010259Y011340D01*
X010160Y011241D02*
X010566Y011241D01*
X010468Y011143D02*
X010062Y011143D01*
X009963Y011044D02*
X010369Y011044D01*
X006584Y013507D02*
X005005Y013507D01*
X004735Y013605D02*
X006532Y013605D01*
X006518Y013704D02*
X004637Y013704D01*
X000552Y008769D02*
X000641Y008680D01*
X000641Y008680D01*
X007510Y002312D02*
X007772Y002050D01*
X007732Y002010D01*
X007510Y002010D01*
X007510Y002312D01*
X007510Y002278D02*
X007545Y002278D01*
X007510Y002179D02*
X007643Y002179D01*
X007742Y002081D02*
X007510Y002081D01*
X008482Y003558D02*
X009761Y003558D01*
X009860Y003657D02*
X008565Y003657D01*
X008600Y003755D02*
X009958Y003755D01*
X010057Y003854D02*
X008600Y003854D01*
X008562Y003952D02*
X010155Y003952D01*
D15*
X010300Y003800D02*
X008800Y002300D01*
X009050Y002450D01*
X010050Y002550D02*
X010300Y002800D01*
X010800Y003300D01*
X013300Y003300D01*
X014800Y004800D01*
X015300Y004800D01*
X015550Y004550D01*
X013300Y003800D02*
X010300Y003800D01*
X011800Y004300D02*
X010300Y005800D01*
X006800Y005800D01*
X008300Y003800D02*
X007300Y002800D01*
X007300Y001800D01*
X007800Y001800D01*
X008050Y001550D01*
X008300Y001300D01*
X008800Y000800D01*
X011800Y000800D01*
X013300Y002300D01*
X011818Y008696D02*
X008818Y008696D01*
X008318Y009196D01*
X008068Y009446D01*
X007818Y009696D01*
X007318Y009696D01*
X007318Y010696D01*
X008318Y011696D01*
X009068Y010346D02*
X008818Y010196D01*
X010318Y011696D01*
X013318Y011696D01*
X013318Y011196D02*
X014818Y012696D01*
X015318Y012696D01*
X015568Y012446D01*
X013318Y011196D02*
X010818Y011196D01*
X010318Y010696D01*
X010068Y010446D01*
X011818Y012196D02*
X010318Y013696D01*
X006818Y013696D01*
X011818Y008696D02*
X013318Y010196D01*
D16*
X006318Y012696D03*
X003818Y014696D03*
X002543Y014046D03*
X003800Y006800D03*
X002525Y006150D03*
X006300Y004800D03*
D17*
X006800Y005800D03*
X008300Y003800D03*
X011800Y004300D03*
X013300Y003800D03*
X013300Y002300D03*
X013318Y010196D03*
X013318Y011696D03*
X011818Y012196D03*
X008318Y011696D03*
X006818Y013696D03*
M02*
