G75*
G70*
%OFA0B0*%
%FSLAX24Y24*%
%IPPOS*%
%LPD*%
%AMOC8*
5,1,8,0,0,1.08239X$1,22.5*
%
%ADD10C,0.0000*%
%ADD11C,0.0030*%
%ADD12C,0.0060*%
%ADD13C,0.0080*%
%ADD14C,0.0010*%
%ADD15C,0.0050*%
D10*
X000800Y000550D02*
X016020Y000550D01*
X016064Y000552D01*
X016107Y000558D01*
X016149Y000567D01*
X016191Y000580D01*
X016231Y000597D01*
X016270Y000617D01*
X016307Y000640D01*
X016341Y000667D01*
X016374Y000696D01*
X016403Y000729D01*
X016430Y000763D01*
X016453Y000800D01*
X016473Y000839D01*
X016490Y000879D01*
X016503Y000921D01*
X016512Y000963D01*
X016518Y001006D01*
X016520Y001050D01*
X016520Y007796D01*
X016518Y007840D01*
X016512Y007883D01*
X016503Y007925D01*
X016490Y007967D01*
X016473Y008007D01*
X016453Y008046D01*
X016430Y008083D01*
X016403Y008117D01*
X016374Y008150D01*
X016341Y008179D01*
X016307Y008206D01*
X016270Y008229D01*
X016231Y008249D01*
X016191Y008266D01*
X016149Y008279D01*
X016107Y008288D01*
X016064Y008294D01*
X016020Y008296D01*
X000800Y008296D01*
X000818Y008446D02*
X016039Y008446D01*
X016083Y008448D01*
X016126Y008454D01*
X016168Y008463D01*
X016210Y008476D01*
X016250Y008493D01*
X016289Y008513D01*
X016326Y008536D01*
X016360Y008563D01*
X016393Y008592D01*
X016422Y008625D01*
X016449Y008659D01*
X016472Y008696D01*
X016492Y008735D01*
X016509Y008775D01*
X016522Y008817D01*
X016531Y008859D01*
X016537Y008902D01*
X016539Y008946D01*
X016539Y015692D01*
X016537Y015736D01*
X016531Y015779D01*
X016522Y015821D01*
X016509Y015863D01*
X016492Y015903D01*
X016472Y015942D01*
X016449Y015979D01*
X016422Y016013D01*
X016393Y016046D01*
X016360Y016075D01*
X016326Y016102D01*
X016289Y016125D01*
X016250Y016145D01*
X016210Y016162D01*
X016168Y016175D01*
X016126Y016184D01*
X016083Y016190D01*
X016039Y016192D01*
X000818Y016192D01*
X000774Y016190D01*
X000731Y016184D01*
X000689Y016175D01*
X000647Y016162D01*
X000607Y016145D01*
X000568Y016125D01*
X000531Y016102D01*
X000497Y016075D01*
X000464Y016046D01*
X000435Y016013D01*
X000408Y015979D01*
X000385Y015942D01*
X000365Y015903D01*
X000348Y015863D01*
X000335Y015821D01*
X000326Y015779D01*
X000320Y015736D01*
X000318Y015692D01*
X000318Y008946D01*
X000320Y008902D01*
X000326Y008859D01*
X000335Y008817D01*
X000348Y008775D01*
X000365Y008735D01*
X000385Y008696D01*
X000408Y008659D01*
X000435Y008625D01*
X000464Y008592D01*
X000497Y008563D01*
X000531Y008536D01*
X000568Y008513D01*
X000607Y008493D01*
X000647Y008476D01*
X000689Y008463D01*
X000731Y008454D01*
X000774Y008448D01*
X000818Y008446D01*
X000800Y008296D02*
X000756Y008294D01*
X000713Y008288D01*
X000671Y008279D01*
X000629Y008266D01*
X000589Y008249D01*
X000550Y008229D01*
X000513Y008206D01*
X000479Y008179D01*
X000446Y008150D01*
X000417Y008117D01*
X000390Y008083D01*
X000367Y008046D01*
X000347Y008007D01*
X000330Y007967D01*
X000317Y007925D01*
X000308Y007883D01*
X000302Y007840D01*
X000300Y007796D01*
X000300Y001050D01*
X000302Y001006D01*
X000308Y000963D01*
X000317Y000921D01*
X000330Y000879D01*
X000347Y000839D01*
X000367Y000800D01*
X000390Y000763D01*
X000417Y000729D01*
X000446Y000696D01*
X000479Y000667D01*
X000513Y000640D01*
X000550Y000617D01*
X000589Y000597D01*
X000629Y000580D01*
X000671Y000567D01*
X000713Y000558D01*
X000756Y000552D01*
X000800Y000550D01*
D11*
X000883Y004865D02*
X000826Y004922D01*
X000883Y004865D02*
X000996Y004865D01*
X001053Y004922D01*
X001053Y005035D01*
X000996Y005092D01*
X000939Y005092D01*
X000826Y005035D01*
X000826Y005205D01*
X001053Y005205D01*
X000712Y004922D02*
X000712Y004865D01*
X000656Y004865D01*
X000656Y004922D01*
X000712Y004922D01*
X000542Y004865D02*
X000315Y004865D01*
X000428Y004865D02*
X000428Y005205D01*
X000315Y005092D01*
X000477Y005890D02*
X000415Y005952D01*
X000477Y005890D02*
X000600Y005890D01*
X000662Y005952D01*
X000662Y006013D01*
X000600Y006075D01*
X000538Y006075D01*
X000600Y006075D02*
X000662Y006137D01*
X000662Y006199D01*
X000600Y006260D01*
X000477Y006260D01*
X000415Y006199D01*
X000783Y006137D02*
X000907Y005890D01*
X001030Y006137D01*
X000912Y007103D02*
X000665Y007103D01*
X000731Y012761D02*
X000674Y012761D01*
X000674Y012818D01*
X000731Y012818D01*
X000731Y012761D01*
X000845Y012818D02*
X000901Y012761D01*
X001015Y012761D01*
X001071Y012818D01*
X001071Y012932D01*
X001015Y012988D01*
X000958Y012988D01*
X000845Y012932D01*
X000845Y013102D01*
X001071Y013102D01*
X000560Y012761D02*
X000333Y012761D01*
X000447Y012761D02*
X000447Y013102D01*
X000333Y012988D01*
X000495Y013786D02*
X000433Y013848D01*
X000495Y013786D02*
X000619Y013786D01*
X000680Y013848D01*
X000680Y013910D01*
X000619Y013972D01*
X000557Y013972D01*
X000619Y013972D02*
X000680Y014033D01*
X000680Y014095D01*
X000619Y014157D01*
X000495Y014157D01*
X000433Y014095D01*
X000802Y014033D02*
X000925Y013786D01*
X001049Y014033D01*
X000930Y015000D02*
X000683Y015000D01*
X016133Y011458D02*
X016257Y011582D01*
X016257Y011211D01*
X016380Y011211D02*
X016133Y011211D01*
X016195Y010582D02*
X016133Y010520D01*
X016195Y010582D02*
X016319Y010582D01*
X016380Y010520D01*
X016380Y010458D01*
X016133Y010211D01*
X016380Y010211D01*
X016319Y009582D02*
X016195Y009582D01*
X016133Y009520D01*
X016257Y009397D02*
X016319Y009397D01*
X016380Y009335D01*
X016380Y009273D01*
X016319Y009211D01*
X016195Y009211D01*
X016133Y009273D01*
X016319Y009397D02*
X016380Y009458D01*
X016380Y009520D01*
X016319Y009582D01*
X016263Y006685D02*
X016387Y006562D01*
X016387Y006315D01*
X016387Y006500D02*
X016140Y006500D01*
X016140Y006562D02*
X016140Y006315D01*
X016140Y006562D02*
X016263Y006685D01*
X016325Y005710D02*
X016140Y005710D01*
X016140Y005340D01*
X016325Y005340D01*
X016387Y005402D01*
X016387Y005463D01*
X016325Y005525D01*
X016140Y005525D01*
X016325Y005525D02*
X016387Y005587D01*
X016387Y005649D01*
X016325Y005710D01*
X016412Y004578D02*
X016165Y004578D01*
X016238Y003685D02*
X016238Y003315D01*
X016115Y003315D02*
X016362Y003315D01*
X016115Y003562D02*
X016238Y003685D01*
X016177Y002685D02*
X016115Y002624D01*
X016177Y002685D02*
X016300Y002685D01*
X016362Y002624D01*
X016362Y002562D01*
X016115Y002315D01*
X016362Y002315D01*
X016300Y001685D02*
X016362Y001624D01*
X016362Y001562D01*
X016300Y001500D01*
X016362Y001438D01*
X016362Y001377D01*
X016300Y001315D01*
X016177Y001315D01*
X016115Y001377D01*
X016238Y001500D02*
X016300Y001500D01*
X016300Y001685D02*
X016177Y001685D01*
X016115Y001624D01*
X016183Y012475D02*
X016430Y012475D01*
X016344Y013236D02*
X016158Y013236D01*
X016158Y013607D01*
X016344Y013607D01*
X016405Y013545D01*
X016405Y013483D01*
X016344Y013422D01*
X016158Y013422D01*
X016344Y013422D02*
X016405Y013360D01*
X016405Y013298D01*
X016344Y013236D01*
X016405Y014211D02*
X016405Y014458D01*
X016282Y014582D01*
X016158Y014458D01*
X016158Y014211D01*
X016158Y014397D02*
X016405Y014397D01*
D12*
X014354Y014951D02*
X014354Y015378D01*
X014140Y015592D01*
X013927Y015378D01*
X013927Y014951D01*
X013927Y015272D02*
X014354Y015272D01*
X013709Y015272D02*
X013282Y015272D01*
X013065Y015165D02*
X013065Y015592D01*
X013065Y015165D02*
X012851Y014951D01*
X012638Y015165D01*
X012638Y015592D01*
X012420Y015592D02*
X011993Y015592D01*
X011993Y014951D01*
X012420Y014951D01*
X012207Y015272D02*
X011993Y015272D01*
X011776Y015272D02*
X011669Y015165D01*
X011348Y015165D01*
X011562Y015165D02*
X011776Y014951D01*
X011776Y015272D02*
X011776Y015485D01*
X011669Y015592D01*
X011348Y015592D01*
X011348Y014951D01*
X009828Y014876D02*
X007819Y014876D01*
X007819Y013016D02*
X009828Y013016D01*
X011330Y007696D02*
X011650Y007696D01*
X011757Y007589D01*
X011757Y007375D01*
X011650Y007269D01*
X011330Y007269D01*
X011330Y007055D02*
X011330Y007696D01*
X011544Y007269D02*
X011757Y007055D01*
X011975Y007055D02*
X012402Y007055D01*
X012619Y007269D02*
X012833Y007055D01*
X013046Y007269D01*
X013046Y007696D01*
X013264Y007375D02*
X013691Y007375D01*
X013908Y007375D02*
X014335Y007375D01*
X014335Y007482D02*
X014335Y007055D01*
X013908Y007055D02*
X013908Y007482D01*
X014122Y007696D01*
X014335Y007482D01*
X012619Y007696D02*
X012619Y007269D01*
X012188Y007375D02*
X011975Y007375D01*
X011975Y007055D02*
X011975Y007696D01*
X012402Y007696D01*
X009810Y006980D02*
X007800Y006980D01*
X007800Y005120D02*
X009810Y005120D01*
D13*
X009433Y005340D02*
X009435Y005355D01*
X009441Y005368D01*
X009450Y005380D01*
X009461Y005389D01*
X009475Y005395D01*
X009490Y005397D01*
X009505Y005395D01*
X009518Y005389D01*
X009530Y005380D01*
X009539Y005369D01*
X009545Y005355D01*
X009547Y005340D01*
X009545Y005325D01*
X009539Y005312D01*
X009530Y005300D01*
X009519Y005291D01*
X009505Y005285D01*
X009490Y005283D01*
X009475Y005285D01*
X009462Y005291D01*
X009450Y005300D01*
X009441Y005311D01*
X009435Y005325D01*
X009433Y005340D01*
X009300Y003050D02*
X008800Y003050D01*
X008550Y002800D01*
X008550Y001300D01*
X008800Y001050D01*
X009300Y001050D01*
X009550Y001300D01*
X009550Y002800D01*
X009800Y003050D01*
X010300Y003050D01*
X010550Y002800D01*
X010550Y001300D01*
X010300Y001050D01*
X009800Y001050D01*
X009550Y001300D01*
X008550Y001300D02*
X008300Y001050D01*
X007800Y001050D01*
X007550Y001300D01*
X007550Y002800D01*
X007800Y003050D01*
X008300Y003050D01*
X008550Y002800D01*
X009300Y003050D02*
X009550Y002800D01*
X008300Y000918D02*
X007800Y000918D01*
X005865Y004316D02*
X005235Y004316D01*
X005078Y004473D01*
X005078Y004906D01*
X005078Y005694D02*
X005078Y006284D01*
X006022Y006284D01*
X006022Y005694D01*
X006022Y004906D02*
X006022Y004473D01*
X005865Y004316D01*
X004706Y006479D02*
X002894Y006479D01*
X002894Y006656D01*
X003406Y006656D02*
X003406Y007444D01*
X002894Y007444D02*
X002894Y007621D01*
X004706Y007621D01*
X004706Y007444D01*
X004706Y006656D02*
X004706Y006479D01*
X003469Y005360D02*
X003131Y005360D01*
X002981Y004906D02*
X002981Y004694D01*
X003131Y004240D02*
X003469Y004240D01*
X002050Y004800D02*
X001800Y004550D01*
X001300Y004550D01*
X001050Y004800D01*
X001050Y005300D01*
X001300Y005550D01*
X001050Y005800D01*
X001050Y006300D01*
X001300Y006550D01*
X001050Y006800D01*
X001050Y007300D01*
X001300Y007550D01*
X001800Y007550D01*
X002050Y007300D01*
X002050Y006800D01*
X001800Y006550D01*
X002050Y006300D01*
X002050Y005800D01*
X001800Y005550D01*
X002050Y005300D01*
X002050Y004800D01*
X007568Y009196D02*
X007568Y010696D01*
X007818Y010946D01*
X008318Y010946D01*
X008568Y010696D01*
X008568Y009196D01*
X008818Y008946D01*
X009318Y008946D01*
X009568Y009196D01*
X009568Y010696D01*
X009818Y010946D01*
X010318Y010946D01*
X010568Y010696D01*
X010568Y009196D01*
X010318Y008946D01*
X009818Y008946D01*
X009568Y009196D01*
X008568Y009196D02*
X008318Y008946D01*
X007818Y008946D01*
X007568Y009196D01*
X007818Y008814D02*
X008318Y008814D01*
X008568Y010696D02*
X008818Y010946D01*
X009318Y010946D01*
X009568Y010696D01*
X009451Y013236D02*
X009453Y013251D01*
X009459Y013264D01*
X009468Y013276D01*
X009479Y013285D01*
X009493Y013291D01*
X009508Y013293D01*
X009523Y013291D01*
X009536Y013285D01*
X009548Y013276D01*
X009557Y013265D01*
X009563Y013251D01*
X009565Y013236D01*
X009563Y013221D01*
X009557Y013208D01*
X009548Y013196D01*
X009537Y013187D01*
X009523Y013181D01*
X009508Y013179D01*
X009493Y013181D01*
X009480Y013187D01*
X009468Y013196D01*
X009459Y013207D01*
X009453Y013221D01*
X009451Y013236D01*
X006041Y013590D02*
X006041Y014181D01*
X005096Y014181D01*
X005096Y013590D01*
X005096Y012803D02*
X005096Y012370D01*
X005254Y012212D01*
X005883Y012212D01*
X006041Y012370D01*
X006041Y012803D01*
X004724Y014375D02*
X002913Y014375D01*
X002913Y014553D01*
X003425Y014553D02*
X003425Y015340D01*
X002913Y015340D02*
X002913Y015517D01*
X004724Y015517D01*
X004724Y015340D01*
X004724Y014553D02*
X004724Y014375D01*
X003488Y013256D02*
X003149Y013256D01*
X002999Y012802D02*
X002999Y012591D01*
X003149Y012136D02*
X003488Y012136D01*
X002068Y012696D02*
X001818Y012446D01*
X001318Y012446D01*
X001068Y012696D01*
X001068Y013196D01*
X001318Y013446D01*
X001068Y013696D01*
X001068Y014196D01*
X001318Y014446D01*
X001068Y014696D01*
X001068Y015196D01*
X001318Y015446D01*
X001818Y015446D01*
X002068Y015196D01*
X002068Y014696D01*
X001818Y014446D01*
X002068Y014196D01*
X002068Y013696D01*
X001818Y013446D01*
X002068Y013196D01*
X002068Y012696D01*
X015068Y012696D02*
X015068Y012196D01*
X015318Y011946D01*
X015068Y011696D01*
X015068Y011196D01*
X015318Y010946D01*
X015068Y010696D01*
X015068Y010196D01*
X015318Y009946D01*
X015068Y009696D01*
X015068Y009196D01*
X015318Y008946D01*
X015818Y008946D01*
X016068Y009196D01*
X016068Y009696D01*
X015818Y009946D01*
X016068Y010196D01*
X016068Y010696D01*
X015818Y010946D01*
X016068Y011196D01*
X016068Y011696D01*
X015818Y011946D01*
X016068Y012196D01*
X016068Y012696D01*
X015818Y012946D01*
X016068Y013196D01*
X016068Y013696D01*
X015818Y013946D01*
X016068Y014196D01*
X016068Y014696D01*
X015818Y014946D01*
X015318Y014946D01*
X015068Y014696D01*
X015068Y014196D01*
X015318Y013946D01*
X015068Y013696D01*
X015068Y013196D01*
X015318Y012946D01*
X015068Y012696D01*
X015300Y007050D02*
X015050Y006800D01*
X015050Y006300D01*
X015300Y006050D01*
X015050Y005800D01*
X015050Y005300D01*
X015300Y005050D01*
X015050Y004800D01*
X015050Y004300D01*
X015300Y004050D01*
X015050Y003800D01*
X015050Y003300D01*
X015300Y003050D01*
X015050Y002800D01*
X015050Y002300D01*
X015300Y002050D01*
X015050Y001800D01*
X015050Y001300D01*
X015300Y001050D01*
X015800Y001050D01*
X016050Y001300D01*
X016050Y001800D01*
X015800Y002050D01*
X016050Y002300D01*
X016050Y002800D01*
X015800Y003050D01*
X016050Y003300D01*
X016050Y003800D01*
X015800Y004050D01*
X016050Y004300D01*
X016050Y004800D01*
X015800Y005050D01*
X016050Y005300D01*
X016050Y005800D01*
X015800Y006050D01*
X016050Y006300D01*
X016050Y006800D01*
X015800Y007050D01*
X015300Y007050D01*
D14*
X013052Y005005D02*
X012952Y005005D01*
X012905Y005005D02*
X012855Y005055D01*
X012880Y005055D02*
X012805Y005055D01*
X012805Y005005D02*
X012805Y005155D01*
X012880Y005155D01*
X012905Y005130D01*
X012905Y005080D01*
X012880Y005055D01*
X012952Y005105D02*
X013002Y005155D01*
X013002Y005005D01*
X012977Y004155D02*
X012952Y004130D01*
X012977Y004155D02*
X013027Y004155D01*
X013052Y004130D01*
X013052Y004105D01*
X012952Y004005D01*
X013052Y004005D01*
X012905Y004005D02*
X012855Y004055D01*
X012880Y004055D02*
X012805Y004055D01*
X012805Y004005D02*
X012805Y004155D01*
X012880Y004155D01*
X012905Y004130D01*
X012905Y004080D01*
X012880Y004055D01*
X012880Y003155D02*
X012805Y003155D01*
X012805Y003005D01*
X012805Y003055D02*
X012880Y003055D01*
X012905Y003080D01*
X012905Y003130D01*
X012880Y003155D01*
X012952Y003130D02*
X012977Y003155D01*
X013027Y003155D01*
X013052Y003130D01*
X013052Y003105D01*
X013027Y003080D01*
X013052Y003055D01*
X013052Y003030D01*
X013027Y003005D01*
X012977Y003005D01*
X012952Y003030D01*
X012905Y003005D02*
X012855Y003055D01*
X013002Y003080D02*
X013027Y003080D01*
X013027Y002155D02*
X012952Y002080D01*
X013052Y002080D01*
X013027Y002005D02*
X013027Y002155D01*
X012905Y002130D02*
X012905Y002080D01*
X012880Y002055D01*
X012805Y002055D01*
X012805Y002005D02*
X012805Y002155D01*
X012880Y002155D01*
X012905Y002130D01*
X012855Y002055D02*
X012905Y002005D01*
X009095Y005580D02*
X009095Y005630D01*
X009070Y005655D01*
X008945Y005655D01*
X008970Y005702D02*
X008945Y005727D01*
X008945Y005777D01*
X008970Y005802D01*
X008995Y005850D02*
X008945Y005900D01*
X009095Y005900D01*
X009095Y005850D02*
X009095Y005950D01*
X009070Y005802D02*
X009045Y005802D01*
X009020Y005777D01*
X009020Y005727D01*
X008995Y005702D01*
X008970Y005702D01*
X008920Y005752D02*
X009120Y005752D01*
X009095Y005727D02*
X009095Y005777D01*
X009070Y005802D01*
X009095Y005727D02*
X009070Y005702D01*
X009095Y005580D02*
X009070Y005555D01*
X008945Y005555D01*
X006249Y006035D02*
X006224Y006010D01*
X006124Y006010D01*
X006099Y006035D01*
X006099Y006085D01*
X006124Y006110D01*
X006149Y006158D02*
X006099Y006208D01*
X006249Y006208D01*
X006249Y006158D02*
X006249Y006258D01*
X006224Y006110D02*
X006249Y006085D01*
X006249Y006035D01*
X004658Y006245D02*
X004558Y006245D01*
X004608Y006245D02*
X004608Y006395D01*
X004558Y006345D01*
X004510Y006370D02*
X004510Y006270D01*
X004485Y006245D01*
X004410Y006245D01*
X004410Y006395D01*
X004485Y006395D01*
X004510Y006370D01*
X002445Y004702D02*
X002445Y004602D01*
X002445Y004652D02*
X002295Y004652D01*
X002345Y004602D01*
X002295Y004555D02*
X002420Y004555D01*
X002445Y004530D01*
X002445Y004480D01*
X002420Y004455D01*
X002295Y004455D01*
X004745Y003672D02*
X004745Y003572D01*
X004895Y003572D01*
X004895Y003525D02*
X004795Y003525D01*
X004820Y003572D02*
X004820Y003622D01*
X004895Y003525D02*
X004895Y003450D01*
X004870Y003425D01*
X004795Y003425D01*
X004795Y003377D02*
X004820Y003352D01*
X004820Y003302D01*
X004795Y003277D01*
X004770Y003277D01*
X004745Y003302D01*
X004745Y003352D01*
X004770Y003377D01*
X004795Y003377D01*
X004820Y003352D02*
X004845Y003377D01*
X004870Y003377D01*
X004895Y003352D01*
X004895Y003302D01*
X004870Y003277D01*
X004845Y003277D01*
X004820Y003302D01*
X004845Y003230D02*
X004820Y003205D01*
X004820Y003130D01*
X004870Y003130D01*
X004895Y003155D01*
X004895Y003205D01*
X004870Y003230D01*
X004845Y003230D01*
X004770Y003180D02*
X004820Y003130D01*
X004770Y003180D02*
X004745Y003230D01*
X004770Y001352D02*
X004745Y001327D01*
X004745Y001277D01*
X004770Y001252D01*
X004770Y001205D02*
X004745Y001180D01*
X004745Y001130D01*
X004770Y001105D01*
X004870Y001105D01*
X004895Y001130D01*
X004895Y001180D01*
X004870Y001205D01*
X004895Y001252D02*
X004795Y001352D01*
X004770Y001352D01*
X004895Y001352D02*
X004895Y001252D01*
X004788Y009001D02*
X004888Y009001D01*
X004913Y009026D01*
X004913Y009076D01*
X004888Y009101D01*
X004838Y009149D02*
X004763Y009224D01*
X004913Y009224D01*
X004838Y009249D02*
X004838Y009149D01*
X004788Y009101D02*
X004763Y009076D01*
X004763Y009026D01*
X004788Y009001D01*
X004838Y011026D02*
X004788Y011076D01*
X004763Y011126D01*
X004788Y011174D02*
X004813Y011174D01*
X004838Y011199D01*
X004838Y011249D01*
X004863Y011274D01*
X004888Y011274D01*
X004913Y011249D01*
X004913Y011199D01*
X004888Y011174D01*
X004863Y011174D01*
X004838Y011199D01*
X004838Y011249D02*
X004813Y011274D01*
X004788Y011274D01*
X004763Y011249D01*
X004763Y011199D01*
X004788Y011174D01*
X004838Y011101D02*
X004838Y011026D01*
X004888Y011026D01*
X004913Y011051D01*
X004913Y011101D01*
X004888Y011126D01*
X004863Y011126D01*
X004838Y011101D01*
X004813Y011321D02*
X004888Y011321D01*
X004913Y011346D01*
X004913Y011421D01*
X004813Y011421D01*
X004838Y011468D02*
X004838Y011518D01*
X004913Y011468D02*
X004763Y011468D01*
X004763Y011568D01*
X002463Y012376D02*
X002463Y012426D01*
X002438Y012451D01*
X002313Y012451D01*
X002338Y012499D02*
X002313Y012524D01*
X002313Y012574D01*
X002338Y012599D01*
X002363Y012599D01*
X002463Y012499D01*
X002463Y012599D01*
X002463Y012376D02*
X002438Y012351D01*
X002313Y012351D01*
X004429Y014141D02*
X004429Y014291D01*
X004504Y014291D01*
X004529Y014266D01*
X004529Y014166D01*
X004504Y014141D01*
X004429Y014141D01*
X004576Y014141D02*
X004676Y014241D01*
X004676Y014266D01*
X004651Y014291D01*
X004601Y014291D01*
X004576Y014266D01*
X004576Y014141D02*
X004676Y014141D01*
X006117Y014129D02*
X006142Y014154D01*
X006167Y014154D01*
X006192Y014129D01*
X006217Y014154D01*
X006242Y014154D01*
X006267Y014129D01*
X006267Y014079D01*
X006242Y014054D01*
X006242Y014007D02*
X006267Y013982D01*
X006267Y013932D01*
X006242Y013907D01*
X006142Y013907D01*
X006117Y013932D01*
X006117Y013982D01*
X006142Y014007D01*
X006142Y014054D02*
X006117Y014079D01*
X006117Y014129D01*
X006192Y014129D02*
X006192Y014104D01*
X008938Y013649D02*
X009139Y013649D01*
X009113Y013674D02*
X009088Y013699D01*
X009063Y013699D01*
X009038Y013674D01*
X009038Y013624D01*
X009013Y013599D01*
X008988Y013599D01*
X008963Y013624D01*
X008963Y013674D01*
X008988Y013699D01*
X008988Y013746D02*
X008963Y013771D01*
X008963Y013821D01*
X008988Y013846D01*
X009013Y013846D01*
X009113Y013746D01*
X009113Y013846D01*
X009113Y013674D02*
X009113Y013624D01*
X009088Y013599D01*
X009088Y013551D02*
X008963Y013551D01*
X008963Y013451D02*
X009088Y013451D01*
X009113Y013476D01*
X009113Y013526D01*
X009088Y013551D01*
X012823Y013051D02*
X012823Y012901D01*
X012823Y012951D02*
X012899Y012951D01*
X012924Y012976D01*
X012924Y013026D01*
X012899Y013051D01*
X012823Y013051D01*
X012874Y012951D02*
X012924Y012901D01*
X012971Y012926D02*
X012996Y012901D01*
X013046Y012901D01*
X013071Y012926D01*
X013071Y012976D01*
X013046Y013001D01*
X013021Y013001D01*
X012971Y012976D01*
X012971Y013051D01*
X013071Y013051D01*
X013071Y012051D02*
X013021Y012026D01*
X012971Y011976D01*
X013046Y011976D01*
X013071Y011951D01*
X013071Y011926D01*
X013046Y011901D01*
X012996Y011901D01*
X012971Y011926D01*
X012971Y011976D01*
X012924Y011976D02*
X012899Y011951D01*
X012823Y011951D01*
X012823Y011901D02*
X012823Y012051D01*
X012899Y012051D01*
X012924Y012026D01*
X012924Y011976D01*
X012874Y011951D02*
X012924Y011901D01*
X012899Y011051D02*
X012823Y011051D01*
X012823Y010901D01*
X012823Y010951D02*
X012899Y010951D01*
X012924Y010976D01*
X012924Y011026D01*
X012899Y011051D01*
X012971Y011051D02*
X013071Y011051D01*
X013071Y011026D01*
X012971Y010926D01*
X012971Y010901D01*
X012924Y010901D02*
X012874Y010951D01*
X012899Y010051D02*
X012823Y010051D01*
X012823Y009901D01*
X012823Y009951D02*
X012899Y009951D01*
X012924Y009976D01*
X012924Y010026D01*
X012899Y010051D01*
X012971Y010026D02*
X012971Y010001D01*
X012996Y009976D01*
X013046Y009976D01*
X013071Y009951D01*
X013071Y009926D01*
X013046Y009901D01*
X012996Y009901D01*
X012971Y009926D01*
X012971Y009951D01*
X012996Y009976D01*
X013046Y009976D02*
X013071Y010001D01*
X013071Y010026D01*
X013046Y010051D01*
X012996Y010051D01*
X012971Y010026D01*
X012874Y009951D02*
X012924Y009901D01*
D15*
X006159Y009698D02*
X006159Y009029D01*
X004978Y009029D01*
X004978Y009698D01*
X003618Y009251D02*
X003578Y009212D01*
X003421Y009212D01*
X003342Y009212D01*
X003303Y009212D01*
X003106Y009015D01*
X002318Y009015D01*
X001925Y009015D01*
X001531Y009015D01*
X001334Y009212D01*
X001059Y009212D01*
X001019Y009251D01*
X001019Y011141D01*
X001059Y011181D01*
X001216Y011181D01*
X001334Y011181D01*
X001531Y011377D01*
X001925Y011377D01*
X002318Y011377D01*
X003106Y011377D01*
X003303Y011181D01*
X003539Y011181D01*
X003578Y011181D01*
X003618Y011141D01*
X003618Y009251D01*
X003500Y009409D02*
X003303Y009212D01*
X003342Y009212D02*
X003421Y009212D01*
X003500Y009409D02*
X003500Y010196D01*
X003500Y010984D01*
X003303Y011181D01*
X003539Y011181D01*
X002712Y010196D02*
X002318Y010196D01*
X002318Y010590D01*
X002318Y010196D02*
X001925Y010196D01*
X002318Y010196D01*
X002318Y009803D01*
X002318Y010196D02*
X002712Y010196D01*
X001925Y009015D02*
X001531Y009015D01*
X001334Y009212D02*
X001137Y009409D01*
X001137Y010196D01*
X001137Y010984D01*
X001334Y011181D01*
X001295Y011181D02*
X001216Y011181D01*
X004978Y011194D02*
X004978Y011785D01*
X005057Y011864D01*
X006080Y011864D01*
X006159Y011785D01*
X006159Y011194D01*
X006080Y010998D02*
X005057Y010998D01*
X005168Y013046D02*
X005968Y013046D01*
X005950Y005150D02*
X005150Y005150D01*
X005038Y003967D02*
X006062Y003967D01*
X006141Y003889D01*
X006141Y003298D01*
X006062Y003101D02*
X005038Y003101D01*
X004959Y003298D02*
X004959Y003889D01*
X005038Y003967D01*
X003599Y003245D02*
X003599Y001355D01*
X003560Y001316D01*
X003402Y001316D01*
X003324Y001316D01*
X003284Y001316D01*
X003087Y001119D01*
X002300Y001119D01*
X001906Y001119D01*
X001513Y001119D01*
X001316Y001316D01*
X001040Y001316D01*
X001001Y001355D01*
X001001Y003245D01*
X001040Y003284D01*
X001198Y003284D01*
X001316Y003284D01*
X001513Y003481D01*
X001906Y003481D01*
X002300Y003481D01*
X003087Y003481D01*
X003284Y003284D01*
X003520Y003284D01*
X003560Y003284D01*
X003599Y003245D01*
X003520Y003284D02*
X003284Y003284D01*
X003481Y003087D01*
X003481Y002300D01*
X003481Y001513D01*
X003284Y001316D01*
X003324Y001316D02*
X003402Y001316D01*
X002694Y002300D02*
X002300Y002300D01*
X002300Y002694D01*
X002300Y002300D02*
X001906Y002300D01*
X002300Y002300D01*
X002300Y001906D01*
X002300Y002300D02*
X002694Y002300D01*
X001906Y001119D02*
X001513Y001119D01*
X001316Y001316D02*
X001119Y001513D01*
X001119Y002300D01*
X001119Y003087D01*
X001316Y003284D01*
X001276Y003284D02*
X001198Y003284D01*
X004959Y001802D02*
X004959Y001133D01*
X006141Y001133D01*
X006141Y001802D01*
M02*
