%
M48
M72
T01C0.0120
T02C0.0236
T03C0.0240
T04C0.0400
%
T01
X6800Y5800
X8300Y3800
X11800Y4300
X13300Y3800
X13300Y2300
X13318Y10196
X13318Y11696
X11818Y12196
X8318Y11696
X6818Y13696
T02
X4818Y13196
X2843Y13546
X2825Y5650
X4800Y5300
T03
X6300Y4800
X3800Y6800
X2525Y6150
X6318Y12696
X3818Y14696
X2543Y14046
T04
X1550Y5050
X1550Y6050
X1550Y7050
X1568Y12946
X1568Y13946
X1568Y14946
X8068Y10446
X9068Y10346
X9068Y9346
X8068Y9446
X10068Y9446
X10068Y10446
X15568Y10446
X15568Y11446
X15568Y12446
X15568Y13446
X15568Y14446
X15568Y9446
X15550Y6550
X15550Y5550
X15550Y4550
X15550Y3550
X15550Y2550
X15550Y1550
X10050Y1550
X10050Y2550
X9050Y2450
X8050Y2550
X8050Y1550
X9050Y1450
M30
