G75*
G70*
%OFA0B0*%
%FSLAX24Y24*%
%IPPOS*%
%LPD*%
%AMOC8*
5,1,8,0,0,1.08239X$1,22.5*
%
%ADD10C,0.0000*%
%ADD11OC8,0.0740*%
%ADD12R,0.0870X0.0240*%
%ADD13C,0.0740*%
%ADD14R,0.0472X0.0217*%
%ADD15R,0.0500X0.0579*%
%ADD16R,0.0630X0.0551*%
%ADD17R,0.0945X0.0512*%
%ADD18R,0.0630X0.2244*%
%ADD19R,0.0630X0.0709*%
%ADD20C,0.0100*%
%ADD21C,0.0356*%
%ADD22C,0.0060*%
%ADD23C,0.0120*%
%ADD24C,0.0360*%
%ADD25C,0.0240*%
D10*
X000800Y000550D02*
X016020Y000550D01*
X016064Y000552D01*
X016107Y000558D01*
X016149Y000567D01*
X016191Y000580D01*
X016231Y000597D01*
X016270Y000617D01*
X016307Y000640D01*
X016341Y000667D01*
X016374Y000696D01*
X016403Y000729D01*
X016430Y000763D01*
X016453Y000800D01*
X016473Y000839D01*
X016490Y000879D01*
X016503Y000921D01*
X016512Y000963D01*
X016518Y001006D01*
X016520Y001050D01*
X016520Y007796D01*
X016518Y007840D01*
X016512Y007883D01*
X016503Y007925D01*
X016490Y007967D01*
X016473Y008007D01*
X016453Y008046D01*
X016430Y008083D01*
X016403Y008117D01*
X016374Y008150D01*
X016341Y008179D01*
X016307Y008206D01*
X016270Y008229D01*
X016231Y008249D01*
X016191Y008266D01*
X016149Y008279D01*
X016107Y008288D01*
X016064Y008294D01*
X016020Y008296D01*
X000800Y008296D01*
X000818Y008446D02*
X016039Y008446D01*
X016083Y008448D01*
X016126Y008454D01*
X016168Y008463D01*
X016210Y008476D01*
X016250Y008493D01*
X016289Y008513D01*
X016326Y008536D01*
X016360Y008563D01*
X016393Y008592D01*
X016422Y008625D01*
X016449Y008659D01*
X016472Y008696D01*
X016492Y008735D01*
X016509Y008775D01*
X016522Y008817D01*
X016531Y008859D01*
X016537Y008902D01*
X016539Y008946D01*
X016539Y015692D01*
X016537Y015736D01*
X016531Y015779D01*
X016522Y015821D01*
X016509Y015863D01*
X016492Y015903D01*
X016472Y015942D01*
X016449Y015979D01*
X016422Y016013D01*
X016393Y016046D01*
X016360Y016075D01*
X016326Y016102D01*
X016289Y016125D01*
X016250Y016145D01*
X016210Y016162D01*
X016168Y016175D01*
X016126Y016184D01*
X016083Y016190D01*
X016039Y016192D01*
X000818Y016192D01*
X000774Y016190D01*
X000731Y016184D01*
X000689Y016175D01*
X000647Y016162D01*
X000607Y016145D01*
X000568Y016125D01*
X000531Y016102D01*
X000497Y016075D01*
X000464Y016046D01*
X000435Y016013D01*
X000408Y015979D01*
X000385Y015942D01*
X000365Y015903D01*
X000348Y015863D01*
X000335Y015821D01*
X000326Y015779D01*
X000320Y015736D01*
X000318Y015692D01*
X000318Y008946D01*
X000320Y008902D01*
X000326Y008859D01*
X000335Y008817D01*
X000348Y008775D01*
X000365Y008735D01*
X000385Y008696D01*
X000408Y008659D01*
X000435Y008625D01*
X000464Y008592D01*
X000497Y008563D01*
X000531Y008536D01*
X000568Y008513D01*
X000607Y008493D01*
X000647Y008476D01*
X000689Y008463D01*
X000731Y008454D01*
X000774Y008448D01*
X000818Y008446D01*
X000800Y008296D02*
X000756Y008294D01*
X000713Y008288D01*
X000671Y008279D01*
X000629Y008266D01*
X000589Y008249D01*
X000550Y008229D01*
X000513Y008206D01*
X000479Y008179D01*
X000446Y008150D01*
X000417Y008117D01*
X000390Y008083D01*
X000367Y008046D01*
X000347Y008007D01*
X000330Y007967D01*
X000317Y007925D01*
X000308Y007883D01*
X000302Y007840D01*
X000300Y007796D01*
X000300Y001050D01*
X000302Y001006D01*
X000308Y000963D01*
X000317Y000921D01*
X000330Y000879D01*
X000347Y000839D01*
X000367Y000800D01*
X000390Y000763D01*
X000417Y000729D01*
X000446Y000696D01*
X000479Y000667D01*
X000513Y000640D01*
X000550Y000617D01*
X000589Y000597D01*
X000629Y000580D01*
X000671Y000567D01*
X000713Y000558D01*
X000756Y000552D01*
X000800Y000550D01*
D11*
X008050Y001550D03*
X008050Y002550D03*
X009050Y002450D03*
X010050Y002550D03*
X010050Y001550D03*
X009050Y001450D03*
X009068Y009346D03*
X009068Y010346D03*
X008068Y010446D03*
X008068Y009446D03*
X010068Y009446D03*
X010068Y010446D03*
D12*
X010148Y013196D03*
X010148Y013696D03*
X010148Y014196D03*
X010148Y014696D03*
X007498Y014696D03*
X007498Y014196D03*
X007498Y013696D03*
X007498Y013196D03*
X007480Y006800D03*
X007480Y006300D03*
X007480Y005800D03*
X007480Y005300D03*
X010130Y005300D03*
X010130Y005800D03*
X010130Y006300D03*
X010130Y006800D03*
D13*
X015550Y006550D03*
X015550Y005550D03*
X015550Y004550D03*
X015550Y003550D03*
X015550Y002550D03*
X015550Y001550D03*
X015568Y009446D03*
X015568Y010446D03*
X015568Y011446D03*
X015568Y012446D03*
X015568Y013446D03*
X015568Y014446D03*
X001568Y013946D03*
X001568Y012946D03*
X001568Y014946D03*
X001550Y007050D03*
X001550Y006050D03*
X001550Y005050D03*
D14*
X002788Y005174D03*
X002788Y004426D03*
X003812Y004426D03*
X003812Y004800D03*
X003812Y005174D03*
X003830Y012322D03*
X003830Y012696D03*
X003830Y013070D03*
X002807Y013070D03*
X002807Y012322D03*
D15*
X002972Y014946D03*
X004665Y014946D03*
X004646Y007050D03*
X002954Y007050D03*
D16*
X005550Y005851D03*
X005550Y004749D03*
X005568Y012645D03*
X005568Y013748D03*
D17*
X005568Y011470D03*
X005568Y009423D03*
X005550Y003574D03*
X005550Y001526D03*
D18*
X003225Y002300D03*
X001375Y002320D03*
X001393Y010216D03*
X003244Y010196D03*
D19*
X012767Y010446D03*
X012767Y011446D03*
X012767Y012446D03*
X013870Y012446D03*
X013870Y011446D03*
X013870Y010446D03*
X013870Y009446D03*
X012767Y009446D03*
X012749Y004550D03*
X012749Y003550D03*
X012749Y002550D03*
X012749Y001550D03*
X013851Y001550D03*
X013851Y002550D03*
X013851Y003550D03*
X013851Y004550D03*
D20*
X013801Y004543D02*
X013244Y004543D01*
X013244Y004445D02*
X013386Y004445D01*
X013386Y004500D02*
X013386Y004176D01*
X013396Y004138D01*
X013416Y004104D01*
X013444Y004076D01*
X013450Y004072D01*
X013443Y004066D01*
X013360Y004100D01*
X013240Y004100D01*
X013210Y004088D01*
X013244Y004121D01*
X013244Y004979D01*
X013138Y005084D01*
X012359Y005084D01*
X012285Y005010D01*
X011510Y005010D01*
X011510Y005387D01*
X011010Y005887D01*
X010887Y006010D01*
X010730Y006010D01*
X010690Y006050D01*
X010730Y006090D01*
X014713Y006090D01*
X015042Y005761D01*
X015000Y005659D01*
X015000Y005441D01*
X015084Y005238D01*
X015238Y005084D01*
X015358Y005034D01*
X015350Y005032D01*
X015277Y004995D01*
X015211Y004947D01*
X015153Y004889D01*
X015105Y004823D01*
X015068Y004750D01*
X015043Y004672D01*
X015031Y004600D01*
X015500Y004600D01*
X015500Y004500D01*
X015031Y004500D01*
X015043Y004428D01*
X015068Y004350D01*
X015105Y004277D01*
X015153Y004211D01*
X015211Y004153D01*
X015277Y004105D01*
X015350Y004068D01*
X015358Y004066D01*
X015296Y004040D01*
X014285Y004040D01*
X014253Y004072D01*
X014258Y004076D01*
X014286Y004104D01*
X014306Y004138D01*
X014316Y004176D01*
X014316Y004500D01*
X013901Y004500D01*
X013901Y004600D01*
X013801Y004600D01*
X013801Y004500D01*
X013386Y004500D01*
X013386Y004600D02*
X013801Y004600D01*
X013801Y005054D01*
X013516Y005054D01*
X013478Y005044D01*
X013444Y005024D01*
X013416Y004996D01*
X013396Y004962D01*
X013386Y004924D01*
X013386Y004600D01*
X013386Y004642D02*
X013244Y004642D01*
X013244Y004740D02*
X013386Y004740D01*
X013386Y004839D02*
X013244Y004839D01*
X013244Y004937D02*
X013390Y004937D01*
X013463Y005036D02*
X013187Y005036D01*
X013801Y005036D02*
X013901Y005036D01*
X013901Y005054D02*
X013901Y004600D01*
X014316Y004600D01*
X014316Y004924D01*
X014306Y004962D01*
X014286Y004996D01*
X014258Y005024D01*
X014224Y005044D01*
X014186Y005054D01*
X013901Y005054D01*
X013901Y004937D02*
X013801Y004937D01*
X013801Y004839D02*
X013901Y004839D01*
X013901Y004740D02*
X013801Y004740D01*
X013801Y004642D02*
X013901Y004642D01*
X013901Y004543D02*
X015500Y004543D01*
X015600Y004543D02*
X016090Y004543D01*
X016069Y004500D02*
X015600Y004500D01*
X015600Y004600D01*
X016069Y004600D01*
X016057Y004672D01*
X016032Y004750D01*
X015995Y004823D01*
X015947Y004889D01*
X015889Y004947D01*
X015823Y004995D01*
X015750Y005032D01*
X015742Y005034D01*
X015862Y005084D01*
X016016Y005238D01*
X016090Y005416D01*
X016090Y003684D01*
X016016Y003862D01*
X015862Y004016D01*
X015742Y004066D01*
X015750Y004068D01*
X015823Y004105D01*
X015889Y004153D01*
X015947Y004211D01*
X015995Y004277D01*
X016032Y004350D01*
X016057Y004428D01*
X016069Y004500D01*
X016060Y004445D02*
X016090Y004445D01*
X016090Y004346D02*
X016030Y004346D01*
X015973Y004248D02*
X016090Y004248D01*
X016090Y004149D02*
X015883Y004149D01*
X015779Y004051D02*
X016090Y004051D01*
X016090Y003952D02*
X015926Y003952D01*
X016020Y003854D02*
X016090Y003854D01*
X016090Y003755D02*
X016060Y003755D01*
X016090Y003416D02*
X016090Y002684D01*
X016016Y002862D01*
X015862Y003016D01*
X015780Y003050D01*
X015862Y003084D01*
X016016Y003238D01*
X016090Y003416D01*
X016090Y003361D02*
X016067Y003361D01*
X016090Y003263D02*
X016026Y003263D01*
X016090Y003164D02*
X015942Y003164D01*
X015818Y003066D02*
X016090Y003066D01*
X016090Y002967D02*
X015911Y002967D01*
X016009Y002869D02*
X016090Y002869D01*
X016090Y002770D02*
X016054Y002770D01*
X016090Y002416D02*
X016090Y001684D01*
X016016Y001862D01*
X015862Y002016D01*
X015780Y002050D01*
X015862Y002084D01*
X016016Y002238D01*
X016090Y002416D01*
X016090Y002376D02*
X016073Y002376D01*
X016090Y002278D02*
X016032Y002278D01*
X016090Y002179D02*
X015957Y002179D01*
X015854Y002081D02*
X016090Y002081D01*
X016090Y001982D02*
X015896Y001982D01*
X015994Y001884D02*
X016090Y001884D01*
X016090Y001785D02*
X016048Y001785D01*
X016089Y001687D02*
X016090Y001687D01*
X016090Y001416D02*
X016069Y001366D01*
X016090Y001387D01*
X016090Y001416D01*
X016090Y001391D02*
X016079Y001391D01*
X016339Y001042D02*
X016334Y000988D01*
X016286Y000872D01*
X016198Y000784D01*
X016083Y000736D01*
X016028Y000731D01*
X016339Y001042D01*
X016335Y000997D02*
X016294Y000997D01*
X016297Y000899D02*
X016195Y000899D01*
X016214Y000800D02*
X016097Y000800D01*
X015734Y001031D02*
X015684Y001010D01*
X015713Y001010D01*
X015734Y001031D01*
X015416Y001010D02*
X011510Y001010D01*
X011510Y004216D01*
X011546Y004130D01*
X011590Y004086D01*
X011590Y001713D01*
X011713Y001590D01*
X012254Y001590D01*
X012254Y001121D01*
X012359Y001016D01*
X013138Y001016D01*
X013244Y001121D01*
X013244Y001979D01*
X013210Y002012D01*
X013240Y002000D01*
X013360Y002000D01*
X013390Y002012D01*
X013356Y001979D01*
X013356Y001121D01*
X013462Y001016D01*
X014241Y001016D01*
X014346Y001121D01*
X014346Y001560D01*
X015000Y001560D01*
X015000Y001441D01*
X015084Y001238D01*
X015238Y001084D01*
X015416Y001010D01*
X015227Y001096D02*
X014321Y001096D01*
X014346Y001194D02*
X015128Y001194D01*
X015061Y001293D02*
X014346Y001293D01*
X014346Y001391D02*
X015021Y001391D01*
X015000Y001490D02*
X014346Y001490D01*
X014300Y001800D02*
X014125Y001800D01*
X013800Y001800D01*
X013851Y001550D01*
X013356Y001588D02*
X013244Y001588D01*
X013244Y001490D02*
X013356Y001490D01*
X013356Y001391D02*
X013244Y001391D01*
X013244Y001293D02*
X013356Y001293D01*
X013356Y001194D02*
X013244Y001194D01*
X013218Y001096D02*
X013382Y001096D01*
X013356Y001687D02*
X013244Y001687D01*
X013244Y001785D02*
X013356Y001785D01*
X013356Y001884D02*
X013244Y001884D01*
X013241Y001982D02*
X013359Y001982D01*
X013356Y002600D02*
X013244Y002600D01*
X013244Y002979D01*
X013173Y003050D01*
X013244Y003121D01*
X013244Y003500D01*
X013356Y003500D01*
X013356Y003121D01*
X013427Y003050D01*
X013356Y002979D01*
X013356Y002600D01*
X013356Y002672D02*
X013244Y002672D01*
X013244Y002770D02*
X013356Y002770D01*
X013356Y002869D02*
X013244Y002869D01*
X013244Y002967D02*
X013356Y002967D01*
X013412Y003066D02*
X013188Y003066D01*
X013244Y003164D02*
X013356Y003164D01*
X013356Y003263D02*
X013244Y003263D01*
X013244Y003361D02*
X013356Y003361D01*
X013356Y003460D02*
X013244Y003460D01*
X013851Y003550D02*
X013800Y003800D01*
X014300Y003800D01*
X015300Y003800D01*
X015550Y003550D01*
X015158Y003164D02*
X014346Y003164D01*
X014346Y003121D02*
X014346Y003560D01*
X015000Y003560D01*
X015000Y003441D01*
X015084Y003238D01*
X015238Y003084D01*
X015320Y003050D01*
X015296Y003040D01*
X014285Y003040D01*
X014275Y003050D01*
X014346Y003121D01*
X014291Y003066D02*
X015282Y003066D01*
X015300Y002800D02*
X015550Y002550D01*
X015300Y002800D02*
X014300Y002800D01*
X014100Y002800D01*
X013800Y002800D01*
X013851Y002550D01*
X014346Y002560D02*
X014346Y002121D01*
X014275Y002050D01*
X014285Y002040D01*
X015296Y002040D01*
X015320Y002050D01*
X015238Y002084D01*
X015084Y002238D01*
X015000Y002441D01*
X015000Y002560D01*
X014346Y002560D01*
X014346Y002475D02*
X015000Y002475D01*
X015027Y002376D02*
X014346Y002376D01*
X014346Y002278D02*
X015068Y002278D01*
X015143Y002179D02*
X014346Y002179D01*
X014306Y002081D02*
X015246Y002081D01*
X015300Y001800D02*
X015550Y001550D01*
X015300Y001800D02*
X014300Y001800D01*
X014346Y003263D02*
X015074Y003263D01*
X015033Y003361D02*
X014346Y003361D01*
X014346Y003460D02*
X015000Y003460D01*
X015000Y003558D02*
X014346Y003558D01*
X014275Y004051D02*
X015321Y004051D01*
X015217Y004149D02*
X014309Y004149D01*
X014316Y004248D02*
X015127Y004248D01*
X015070Y004346D02*
X014316Y004346D01*
X014316Y004445D02*
X015040Y004445D01*
X015038Y004642D02*
X014316Y004642D01*
X014316Y004740D02*
X015065Y004740D01*
X015117Y004839D02*
X014316Y004839D01*
X014313Y004937D02*
X015202Y004937D01*
X015355Y005036D02*
X014239Y005036D01*
X015045Y005331D02*
X011510Y005331D01*
X011510Y005233D02*
X015090Y005233D01*
X015188Y005134D02*
X011510Y005134D01*
X011510Y005036D02*
X012310Y005036D01*
X012254Y004590D02*
X011884Y004590D01*
X011970Y004554D01*
X012054Y004470D01*
X012100Y004360D01*
X012100Y004240D01*
X012054Y004130D01*
X012010Y004086D01*
X012010Y002010D01*
X012285Y002010D01*
X012325Y002050D01*
X012254Y002121D01*
X012254Y002979D01*
X012325Y003050D01*
X012254Y003121D01*
X012254Y003979D01*
X012325Y004050D01*
X012254Y004121D01*
X012254Y004590D01*
X012254Y004543D02*
X011981Y004543D01*
X012065Y004445D02*
X012254Y004445D01*
X012254Y004346D02*
X012100Y004346D01*
X012100Y004248D02*
X012254Y004248D01*
X012254Y004149D02*
X012062Y004149D01*
X012010Y004051D02*
X012324Y004051D01*
X012254Y003952D02*
X012010Y003952D01*
X012010Y003854D02*
X012254Y003854D01*
X012254Y003755D02*
X012010Y003755D01*
X012010Y003657D02*
X012254Y003657D01*
X012254Y003558D02*
X012010Y003558D01*
X012010Y003460D02*
X012254Y003460D01*
X012254Y003361D02*
X012010Y003361D01*
X012010Y003263D02*
X012254Y003263D01*
X012254Y003164D02*
X012010Y003164D01*
X012010Y003066D02*
X012309Y003066D01*
X012254Y002967D02*
X012010Y002967D01*
X012010Y002869D02*
X012254Y002869D01*
X012254Y002770D02*
X012010Y002770D01*
X012010Y002672D02*
X012254Y002672D01*
X012254Y002573D02*
X012010Y002573D01*
X012010Y002475D02*
X012254Y002475D01*
X012254Y002376D02*
X012010Y002376D01*
X012010Y002278D02*
X012254Y002278D01*
X012254Y002179D02*
X012010Y002179D01*
X012010Y002081D02*
X012294Y002081D01*
X012254Y001588D02*
X011510Y001588D01*
X011510Y001490D02*
X012254Y001490D01*
X012254Y001391D02*
X011510Y001391D01*
X011510Y001293D02*
X012254Y001293D01*
X012254Y001194D02*
X011510Y001194D01*
X011510Y001096D02*
X012279Y001096D01*
X011617Y001687D02*
X011510Y001687D01*
X011510Y001785D02*
X011590Y001785D01*
X011590Y001884D02*
X011510Y001884D01*
X011510Y001982D02*
X011590Y001982D01*
X011590Y002081D02*
X011510Y002081D01*
X011510Y002179D02*
X011590Y002179D01*
X011590Y002278D02*
X011510Y002278D01*
X011510Y002376D02*
X011590Y002376D01*
X011590Y002475D02*
X011510Y002475D01*
X011510Y002573D02*
X011590Y002573D01*
X011590Y002672D02*
X011510Y002672D01*
X011510Y002770D02*
X011590Y002770D01*
X011590Y002869D02*
X011510Y002869D01*
X011510Y002967D02*
X011590Y002967D01*
X011590Y003066D02*
X011510Y003066D01*
X011510Y003164D02*
X011590Y003164D01*
X011590Y003263D02*
X011510Y003263D01*
X011510Y003361D02*
X011590Y003361D01*
X011590Y003460D02*
X011510Y003460D01*
X011510Y003558D02*
X011590Y003558D01*
X011590Y003657D02*
X011510Y003657D01*
X011510Y003755D02*
X011590Y003755D01*
X011590Y003854D02*
X011510Y003854D01*
X011510Y003952D02*
X011590Y003952D01*
X011590Y004051D02*
X011510Y004051D01*
X011510Y004149D02*
X011538Y004149D01*
X011510Y004384D02*
X011510Y004590D01*
X011716Y004590D01*
X011630Y004554D01*
X011546Y004470D01*
X011510Y004384D01*
X011510Y004445D02*
X011535Y004445D01*
X011510Y004543D02*
X011619Y004543D01*
X011090Y004543D02*
X011010Y004543D01*
X011010Y004445D02*
X011090Y004445D01*
X011090Y004346D02*
X011010Y004346D01*
X011010Y004248D02*
X011090Y004248D01*
X011090Y004149D02*
X011010Y004149D01*
X011010Y004051D02*
X011090Y004051D01*
X011090Y003952D02*
X011010Y003952D01*
X011010Y003854D02*
X011090Y003854D01*
X011090Y003755D02*
X011010Y003755D01*
X011010Y003657D02*
X011090Y003657D01*
X011090Y003558D02*
X011010Y003558D01*
X011010Y003460D02*
X011090Y003460D01*
X011090Y003361D02*
X011010Y003361D01*
X011010Y003263D02*
X011090Y003263D01*
X011090Y003164D02*
X011010Y003164D01*
X011010Y003066D02*
X011090Y003066D01*
X011090Y002967D02*
X011010Y002967D01*
X011010Y002869D02*
X011090Y002869D01*
X011090Y002770D02*
X011010Y002770D01*
X011010Y002672D02*
X011090Y002672D01*
X011090Y002573D02*
X011010Y002573D01*
X011010Y002475D02*
X011090Y002475D01*
X011090Y002376D02*
X011010Y002376D01*
X011010Y002278D02*
X011090Y002278D01*
X011090Y002179D02*
X010976Y002179D01*
X011010Y002213D02*
X011010Y004887D01*
X010887Y005010D01*
X010745Y005152D01*
X010745Y005495D01*
X010690Y005550D01*
X010721Y005582D01*
X011090Y005213D01*
X011090Y001010D01*
X010288Y001010D01*
X010600Y001322D01*
X010600Y001778D01*
X010587Y001790D01*
X011010Y002213D01*
X011090Y002081D02*
X010877Y002081D01*
X010779Y001982D02*
X011090Y001982D01*
X011090Y001884D02*
X010680Y001884D01*
X010593Y001785D02*
X011090Y001785D01*
X011090Y001687D02*
X010600Y001687D01*
X010600Y001588D02*
X011090Y001588D01*
X011090Y001490D02*
X010600Y001490D01*
X010600Y001391D02*
X011090Y001391D01*
X011090Y001293D02*
X010570Y001293D01*
X010472Y001194D02*
X011090Y001194D01*
X011090Y001096D02*
X010373Y001096D01*
X009573Y000730D02*
X006531Y000730D01*
X006540Y000752D01*
X006540Y002560D01*
X007500Y002560D01*
X007500Y002322D01*
X007772Y002050D01*
X007500Y001778D01*
X007500Y001322D01*
X007822Y001000D01*
X008278Y001000D01*
X008500Y001222D01*
X008822Y000900D01*
X009278Y000900D01*
X009340Y000963D01*
X009573Y000730D01*
X009503Y000800D02*
X006540Y000800D01*
X006540Y000899D02*
X009405Y000899D01*
X008725Y000997D02*
X006540Y000997D01*
X006540Y001096D02*
X007727Y001096D01*
X007628Y001194D02*
X006540Y001194D01*
X006540Y001293D02*
X007530Y001293D01*
X007500Y001391D02*
X006540Y001391D01*
X006540Y001490D02*
X007500Y001490D01*
X007500Y001588D02*
X006540Y001588D01*
X006540Y001687D02*
X007500Y001687D01*
X007507Y001785D02*
X006540Y001785D01*
X006540Y001884D02*
X007606Y001884D01*
X007704Y001982D02*
X006540Y001982D01*
X006540Y002081D02*
X007742Y002081D01*
X007643Y002179D02*
X006540Y002179D01*
X006540Y002278D02*
X007545Y002278D01*
X007500Y002376D02*
X006540Y002376D01*
X006540Y002475D02*
X007500Y002475D01*
X007762Y003040D02*
X006540Y003040D01*
X006540Y004201D01*
X007339Y005000D01*
X007990Y005000D01*
X008090Y005100D01*
X008090Y004014D01*
X008046Y003970D01*
X008000Y003860D01*
X008000Y003740D01*
X008046Y003630D01*
X008130Y003546D01*
X008240Y003500D01*
X008360Y003500D01*
X008470Y003546D01*
X008554Y003630D01*
X008590Y003716D01*
X008590Y002788D01*
X008278Y003100D01*
X007822Y003100D01*
X007762Y003040D01*
X007788Y003066D02*
X006540Y003066D01*
X006540Y003164D02*
X008590Y003164D01*
X008590Y003066D02*
X008312Y003066D01*
X008411Y002967D02*
X008590Y002967D01*
X008590Y002869D02*
X008509Y002869D01*
X008590Y003263D02*
X006540Y003263D01*
X006540Y003361D02*
X008590Y003361D01*
X008590Y003460D02*
X006540Y003460D01*
X006540Y003558D02*
X008118Y003558D01*
X008035Y003657D02*
X006540Y003657D01*
X006540Y003755D02*
X008000Y003755D01*
X008000Y003854D02*
X006540Y003854D01*
X006540Y003952D02*
X008038Y003952D01*
X008090Y004051D02*
X006540Y004051D01*
X006540Y004149D02*
X008090Y004149D01*
X008090Y004248D02*
X006587Y004248D01*
X006685Y004346D02*
X008090Y004346D01*
X008090Y004445D02*
X006784Y004445D01*
X006882Y004543D02*
X008090Y004543D01*
X008090Y004642D02*
X006981Y004642D01*
X007079Y004740D02*
X008090Y004740D01*
X008090Y004839D02*
X007178Y004839D01*
X007276Y004937D02*
X008090Y004937D01*
X008090Y005036D02*
X008025Y005036D01*
X008090Y005500D02*
X008040Y005550D01*
X008090Y005600D01*
X008090Y005500D01*
X008090Y005528D02*
X008062Y005528D01*
X008510Y005528D02*
X008590Y005528D01*
X008590Y005430D02*
X008510Y005430D01*
X008510Y005331D02*
X008590Y005331D01*
X008590Y005233D02*
X008510Y005233D01*
X008510Y005134D02*
X008590Y005134D01*
X008590Y005036D02*
X008510Y005036D01*
X008510Y004937D02*
X008590Y004937D01*
X008590Y004839D02*
X008510Y004839D01*
X008510Y004740D02*
X008590Y004740D01*
X008590Y004642D02*
X008510Y004642D01*
X008510Y004543D02*
X008590Y004543D01*
X008590Y004445D02*
X008510Y004445D01*
X008510Y004346D02*
X008590Y004346D01*
X008590Y004248D02*
X008510Y004248D01*
X008510Y004149D02*
X008590Y004149D01*
X008590Y004051D02*
X008510Y004051D01*
X008510Y004014D02*
X008510Y005793D01*
X008590Y005713D01*
X008590Y003884D01*
X008554Y003970D01*
X008510Y004014D01*
X008562Y003952D02*
X008590Y003952D01*
X008590Y003657D02*
X008565Y003657D01*
X008590Y003558D02*
X008482Y003558D01*
X009010Y003558D02*
X010590Y003558D01*
X010590Y003460D02*
X009010Y003460D01*
X009010Y003361D02*
X010590Y003361D01*
X010590Y003263D02*
X009010Y003263D01*
X009010Y003164D02*
X010590Y003164D01*
X010590Y003066D02*
X010270Y003066D01*
X010265Y003070D02*
X010100Y003070D01*
X010100Y002600D01*
X010000Y002600D01*
X010000Y003070D01*
X009835Y003070D01*
X009530Y002765D01*
X009530Y002748D01*
X009278Y003000D01*
X009010Y003000D01*
X009010Y005887D01*
X008887Y006010D01*
X008095Y006802D01*
X008095Y006995D01*
X007990Y007100D01*
X006970Y007100D01*
X006865Y006995D01*
X006865Y006605D01*
X006920Y006550D01*
X006865Y006495D01*
X006865Y006105D01*
X006878Y006092D01*
X006860Y006100D01*
X006740Y006100D01*
X006630Y006054D01*
X006546Y005970D01*
X006500Y005860D01*
X006500Y005740D01*
X006546Y005630D01*
X006630Y005546D01*
X006740Y005500D01*
X006860Y005500D01*
X006878Y005508D01*
X006865Y005495D01*
X006865Y005204D01*
X006623Y004962D01*
X006605Y005004D01*
X006504Y005105D01*
X006372Y005160D01*
X006228Y005160D01*
X006096Y005105D01*
X006045Y005054D01*
X006045Y005099D01*
X005940Y005204D01*
X005160Y005204D01*
X005055Y005099D01*
X005055Y004399D01*
X005160Y004293D01*
X005940Y004293D01*
X006045Y004399D01*
X006045Y004546D01*
X006096Y004495D01*
X006138Y004477D01*
X006097Y004436D01*
X005670Y004010D01*
X005003Y004010D01*
X004898Y003904D01*
X004898Y003243D01*
X005003Y003138D01*
X006060Y003138D01*
X006060Y001928D01*
X006042Y001932D01*
X005600Y001932D01*
X005600Y001576D01*
X005500Y001576D01*
X005500Y001476D01*
X005600Y001476D01*
X005600Y001120D01*
X006042Y001120D01*
X006060Y001125D01*
X006060Y001040D01*
X004899Y001040D01*
X004540Y001399D01*
X004540Y004348D01*
X004503Y004436D01*
X004228Y004711D01*
X004228Y004983D01*
X004224Y004987D01*
X004228Y004991D01*
X004228Y005357D01*
X004123Y005462D01*
X003510Y005462D01*
X003510Y006387D01*
X003297Y006600D01*
X003384Y006686D01*
X003384Y007414D01*
X003278Y007519D01*
X002906Y007519D01*
X002895Y007530D01*
X002827Y007530D01*
X002761Y007546D01*
X002735Y007530D01*
X002705Y007530D01*
X002694Y007519D01*
X002629Y007519D01*
X002524Y007414D01*
X002524Y007349D01*
X002035Y006860D01*
X002057Y006928D01*
X002069Y007000D01*
X001600Y007000D01*
X001600Y007100D01*
X001500Y007100D01*
X001500Y007569D01*
X001428Y007557D01*
X001350Y007532D01*
X001277Y007495D01*
X001211Y007447D01*
X001153Y007389D01*
X001105Y007323D01*
X001068Y007250D01*
X001043Y007172D01*
X001031Y007100D01*
X001500Y007100D01*
X001500Y007000D01*
X001031Y007000D01*
X001043Y006928D01*
X001068Y006850D01*
X001105Y006777D01*
X001153Y006711D01*
X001211Y006653D01*
X001277Y006605D01*
X001350Y006568D01*
X001358Y006566D01*
X001238Y006516D01*
X001084Y006362D01*
X001000Y006159D01*
X001000Y005941D01*
X001084Y005738D01*
X001238Y005584D01*
X001320Y005550D01*
X001238Y005516D01*
X001084Y005362D01*
X001000Y005159D01*
X001000Y004941D01*
X001070Y004772D01*
X001070Y003622D01*
X000985Y003622D01*
X000880Y003516D01*
X000880Y001123D01*
X000985Y001018D01*
X001764Y001018D01*
X001870Y001123D01*
X001870Y003516D01*
X001764Y003622D01*
X001530Y003622D01*
X001530Y004500D01*
X001659Y004500D01*
X001862Y004584D01*
X002016Y004738D01*
X002070Y004868D01*
X002070Y003205D01*
X002730Y002544D01*
X002730Y001103D01*
X002836Y000998D01*
X003615Y000998D01*
X003720Y001103D01*
X003720Y003497D01*
X003615Y003602D01*
X002836Y003602D01*
X002730Y003497D01*
X002730Y003195D01*
X002530Y003395D01*
X002530Y004138D01*
X003099Y004138D01*
X003204Y004243D01*
X003204Y004599D01*
X003213Y004590D01*
X003396Y004590D01*
X003396Y004243D01*
X003501Y004138D01*
X004060Y004138D01*
X004060Y001252D01*
X004097Y001164D01*
X004164Y001097D01*
X004531Y000730D01*
X000800Y000730D01*
X000738Y000736D01*
X000622Y000784D01*
X000534Y000872D01*
X000486Y000988D01*
X000480Y001050D01*
X000480Y007796D01*
X000486Y007858D01*
X000534Y007974D01*
X000622Y008062D01*
X000738Y008110D01*
X000800Y008116D01*
X016020Y008116D01*
X016083Y008110D01*
X016198Y008062D01*
X016286Y007974D01*
X016334Y007858D01*
X016340Y007796D01*
X016340Y006057D01*
X016058Y006339D01*
X016100Y006441D01*
X016100Y006659D01*
X016016Y006862D01*
X015862Y007016D01*
X015659Y007100D01*
X015441Y007100D01*
X015238Y007016D01*
X015084Y006862D01*
X015000Y006659D01*
X015000Y006441D01*
X015031Y006366D01*
X014887Y006510D01*
X014713Y006510D01*
X010730Y006510D01*
X010668Y006571D01*
X010685Y006588D01*
X010705Y006622D01*
X010715Y006660D01*
X010715Y006790D01*
X010140Y006790D01*
X010140Y006810D01*
X010120Y006810D01*
X010120Y007070D01*
X009675Y007070D01*
X009637Y007060D01*
X009603Y007040D01*
X009575Y007012D01*
X009555Y006978D01*
X009545Y006940D01*
X009545Y006810D01*
X010120Y006810D01*
X010120Y006790D01*
X009545Y006790D01*
X009545Y006660D01*
X009555Y006622D01*
X009575Y006588D01*
X009592Y006571D01*
X009515Y006495D01*
X009515Y006105D01*
X009570Y006050D01*
X009515Y005995D01*
X009515Y005605D01*
X009570Y005550D01*
X009515Y005495D01*
X009515Y005105D01*
X009620Y005000D01*
X010303Y005000D01*
X010590Y004713D01*
X010590Y002387D01*
X010570Y002367D01*
X010570Y002500D01*
X010100Y002500D01*
X010100Y002600D01*
X010570Y002600D01*
X010570Y002765D01*
X010265Y003070D01*
X010368Y002967D02*
X010590Y002967D01*
X010590Y002869D02*
X010467Y002869D01*
X010565Y002770D02*
X010590Y002770D01*
X010590Y002672D02*
X010570Y002672D01*
X010590Y002573D02*
X010100Y002573D01*
X010100Y002672D02*
X010000Y002672D01*
X010000Y002770D02*
X010100Y002770D01*
X010100Y002869D02*
X010000Y002869D01*
X010000Y002967D02*
X010100Y002967D01*
X010100Y003066D02*
X010000Y003066D01*
X009830Y003066D02*
X009010Y003066D01*
X009311Y002967D02*
X009732Y002967D01*
X009633Y002869D02*
X009409Y002869D01*
X009508Y002770D02*
X009535Y002770D01*
X009600Y002265D02*
X009793Y002071D01*
X009500Y001778D01*
X009500Y001778D01*
X009328Y001950D01*
X009600Y002222D01*
X009600Y002265D01*
X009557Y002179D02*
X009686Y002179D01*
X009784Y002081D02*
X009458Y002081D01*
X009360Y001982D02*
X009704Y001982D01*
X009606Y001884D02*
X009394Y001884D01*
X009493Y001785D02*
X009507Y001785D01*
X008772Y001950D02*
X008600Y001778D01*
X008600Y001778D01*
X008328Y002050D01*
X008500Y002222D01*
X008772Y001950D01*
X008740Y001982D02*
X008396Y001982D01*
X008358Y002081D02*
X008642Y002081D01*
X008543Y002179D02*
X008457Y002179D01*
X008500Y002222D02*
X008500Y002222D01*
X008494Y001884D02*
X008706Y001884D01*
X008607Y001785D02*
X008593Y001785D01*
X008500Y001222D02*
X008500Y001222D01*
X008472Y001194D02*
X008528Y001194D01*
X008627Y001096D02*
X008373Y001096D01*
X006060Y001096D02*
X004844Y001096D01*
X004745Y001194D02*
X004949Y001194D01*
X004958Y001178D02*
X004985Y001150D01*
X005020Y001131D01*
X005058Y001120D01*
X005500Y001120D01*
X005500Y001476D01*
X004928Y001476D01*
X004928Y001251D01*
X004938Y001213D01*
X004958Y001178D01*
X004928Y001293D02*
X004647Y001293D01*
X004548Y001391D02*
X004928Y001391D01*
X004928Y001576D02*
X005500Y001576D01*
X005500Y001932D01*
X005058Y001932D01*
X005020Y001922D01*
X004985Y001902D01*
X004958Y001874D01*
X004938Y001840D01*
X004928Y001802D01*
X004928Y001576D01*
X004928Y001588D02*
X004540Y001588D01*
X004540Y001490D02*
X005500Y001490D01*
X005550Y001526D02*
X005300Y001300D01*
X004800Y001800D01*
X004800Y005300D01*
X005300Y005800D01*
X005550Y005851D01*
X005300Y005800D01*
X005300Y007800D01*
X002300Y007800D01*
X001800Y007300D01*
X001550Y007050D01*
X001500Y007006D02*
X000480Y007006D01*
X000480Y007104D02*
X001032Y007104D01*
X001053Y007203D02*
X000480Y007203D01*
X000480Y007301D02*
X001094Y007301D01*
X001164Y007400D02*
X000480Y007400D01*
X000480Y007498D02*
X001284Y007498D01*
X001500Y007498D02*
X001600Y007498D01*
X001600Y007569D02*
X001600Y007100D01*
X002069Y007100D01*
X002057Y007172D01*
X002032Y007250D01*
X001995Y007323D01*
X001947Y007389D01*
X001889Y007447D01*
X001823Y007495D01*
X001750Y007532D01*
X001672Y007557D01*
X001600Y007569D01*
X001600Y007400D02*
X001500Y007400D01*
X001500Y007301D02*
X001600Y007301D01*
X001600Y007203D02*
X001500Y007203D01*
X001500Y007104D02*
X001600Y007104D01*
X001600Y007006D02*
X002180Y007006D01*
X002279Y007104D02*
X002068Y007104D01*
X002047Y007203D02*
X002377Y007203D01*
X002476Y007301D02*
X002006Y007301D01*
X001936Y007400D02*
X002524Y007400D01*
X002608Y007498D02*
X001816Y007498D01*
X001800Y007300D02*
X002300Y007800D01*
X005300Y007800D01*
X004992Y007498D02*
X016340Y007498D01*
X016340Y007400D02*
X005076Y007400D01*
X005076Y007414D02*
X004971Y007519D01*
X004322Y007519D01*
X004216Y007414D01*
X004216Y007030D01*
X004079Y007030D01*
X004004Y007105D01*
X003872Y007160D01*
X003728Y007160D01*
X003596Y007105D01*
X003495Y007004D01*
X003440Y006872D01*
X003440Y006728D01*
X003495Y006596D01*
X003596Y006495D01*
X003728Y006440D01*
X003872Y006440D01*
X004004Y006495D01*
X004079Y006570D01*
X004773Y006570D01*
X004839Y006554D01*
X004865Y006570D01*
X004895Y006570D01*
X004906Y006581D01*
X004971Y006581D01*
X005076Y006686D01*
X005076Y007414D01*
X005076Y007301D02*
X016340Y007301D01*
X016340Y007203D02*
X005076Y007203D01*
X005076Y007104D02*
X016340Y007104D01*
X016340Y007006D02*
X015872Y007006D01*
X015971Y006907D02*
X016340Y006907D01*
X016340Y006809D02*
X016038Y006809D01*
X016079Y006710D02*
X016340Y006710D01*
X016340Y006612D02*
X016100Y006612D01*
X016100Y006513D02*
X016340Y006513D01*
X016340Y006415D02*
X016089Y006415D01*
X016081Y006316D02*
X016340Y006316D01*
X016340Y006218D02*
X016179Y006218D01*
X016278Y006119D02*
X016340Y006119D01*
X016069Y005734D02*
X016090Y005684D01*
X016090Y005713D01*
X016069Y005734D01*
X016073Y005725D02*
X016078Y005725D01*
X016055Y005331D02*
X016090Y005331D01*
X016090Y005233D02*
X016010Y005233D01*
X016090Y005134D02*
X015912Y005134D01*
X015745Y005036D02*
X016090Y005036D01*
X016090Y004937D02*
X015898Y004937D01*
X015983Y004839D02*
X016090Y004839D01*
X016090Y004740D02*
X016035Y004740D01*
X016062Y004642D02*
X016090Y004642D01*
X015005Y005430D02*
X011467Y005430D01*
X011369Y005528D02*
X015000Y005528D01*
X015000Y005627D02*
X011270Y005627D01*
X011172Y005725D02*
X015027Y005725D01*
X014980Y005824D02*
X011073Y005824D01*
X010975Y005922D02*
X014881Y005922D01*
X014783Y006021D02*
X010719Y006021D01*
X010727Y006513D02*
X015000Y006513D01*
X015000Y006612D02*
X010699Y006612D01*
X010715Y006710D02*
X015021Y006710D01*
X015062Y006809D02*
X010140Y006809D01*
X010140Y006810D02*
X010715Y006810D01*
X010715Y006940D01*
X010705Y006978D01*
X010685Y007012D01*
X010657Y007040D01*
X010623Y007060D01*
X010585Y007070D01*
X010140Y007070D01*
X010140Y006810D01*
X010120Y006809D02*
X008095Y006809D01*
X008095Y006907D02*
X009545Y006907D01*
X009571Y007006D02*
X008084Y007006D01*
X008187Y006710D02*
X009545Y006710D01*
X009561Y006612D02*
X008285Y006612D01*
X008384Y006513D02*
X009533Y006513D01*
X009515Y006415D02*
X008482Y006415D01*
X008581Y006316D02*
X009515Y006316D01*
X009515Y006218D02*
X008679Y006218D01*
X008778Y006119D02*
X009515Y006119D01*
X009541Y006021D02*
X008876Y006021D01*
X008975Y005922D02*
X009515Y005922D01*
X009515Y005824D02*
X009010Y005824D01*
X009010Y005725D02*
X009515Y005725D01*
X009515Y005627D02*
X009010Y005627D01*
X009010Y005528D02*
X009548Y005528D01*
X009515Y005430D02*
X009010Y005430D01*
X009010Y005331D02*
X009515Y005331D01*
X009515Y005233D02*
X009010Y005233D01*
X009010Y005134D02*
X009515Y005134D01*
X009585Y005036D02*
X009010Y005036D01*
X009010Y004937D02*
X010366Y004937D01*
X010465Y004839D02*
X009010Y004839D01*
X009010Y004740D02*
X010563Y004740D01*
X010590Y004642D02*
X009010Y004642D01*
X009010Y004543D02*
X010590Y004543D01*
X010590Y004445D02*
X009010Y004445D01*
X009010Y004346D02*
X010590Y004346D01*
X010590Y004248D02*
X009010Y004248D01*
X009010Y004149D02*
X010590Y004149D01*
X010590Y004051D02*
X009010Y004051D01*
X009010Y003952D02*
X010590Y003952D01*
X010590Y003854D02*
X009010Y003854D01*
X009010Y003755D02*
X010590Y003755D01*
X010590Y003657D02*
X009010Y003657D01*
X010570Y002475D02*
X010590Y002475D01*
X010579Y002376D02*
X010570Y002376D01*
X011010Y004642D02*
X011090Y004642D01*
X011090Y004740D02*
X011010Y004740D01*
X011010Y004839D02*
X011090Y004839D01*
X011090Y004937D02*
X010960Y004937D01*
X010861Y005036D02*
X011090Y005036D01*
X011090Y005134D02*
X010763Y005134D01*
X010745Y005233D02*
X011071Y005233D01*
X010972Y005331D02*
X010745Y005331D01*
X010745Y005430D02*
X010874Y005430D01*
X010775Y005528D02*
X010712Y005528D01*
X010715Y006907D02*
X015129Y006907D01*
X015228Y007006D02*
X010689Y007006D01*
X010140Y007006D02*
X010120Y007006D01*
X010120Y006907D02*
X010140Y006907D01*
X008590Y005627D02*
X008510Y005627D01*
X008510Y005725D02*
X008578Y005725D01*
X006883Y006513D02*
X004022Y006513D01*
X003800Y006800D02*
X004800Y006800D01*
X004646Y007050D01*
X005076Y007006D02*
X006876Y007006D01*
X006865Y006907D02*
X005076Y006907D01*
X005076Y006809D02*
X006865Y006809D01*
X006865Y006710D02*
X005076Y006710D01*
X005002Y006612D02*
X006865Y006612D01*
X006865Y006415D02*
X003482Y006415D01*
X003510Y006316D02*
X006865Y006316D01*
X006865Y006218D02*
X005986Y006218D01*
X005985Y006219D02*
X005957Y006247D01*
X005923Y006267D01*
X005885Y006277D01*
X005600Y006277D01*
X005600Y005901D01*
X006015Y005901D01*
X006015Y006147D01*
X006005Y006185D01*
X005985Y006219D01*
X006015Y006119D02*
X006865Y006119D01*
X006596Y006021D02*
X006015Y006021D01*
X006015Y005922D02*
X006526Y005922D01*
X006500Y005824D02*
X005600Y005824D01*
X005600Y005801D02*
X005600Y005901D01*
X005500Y005901D01*
X005500Y005801D01*
X005600Y005801D01*
X005600Y005426D01*
X005885Y005426D01*
X005923Y005436D01*
X005957Y005456D01*
X005985Y005483D01*
X006005Y005518D01*
X006015Y005556D01*
X006015Y005801D01*
X005600Y005801D01*
X005600Y005725D02*
X005500Y005725D01*
X005500Y005801D02*
X005500Y005426D01*
X005215Y005426D01*
X005177Y005436D01*
X005143Y005456D01*
X005115Y005483D01*
X005095Y005518D01*
X005085Y005556D01*
X005085Y005801D01*
X005500Y005801D01*
X005500Y005824D02*
X003510Y005824D01*
X003510Y005922D02*
X005085Y005922D01*
X005085Y005901D02*
X005500Y005901D01*
X005500Y006277D01*
X005215Y006277D01*
X005177Y006267D01*
X005143Y006247D01*
X005115Y006219D01*
X005095Y006185D01*
X005085Y006147D01*
X005085Y005901D01*
X005085Y006021D02*
X003510Y006021D01*
X003510Y006119D02*
X005085Y006119D01*
X005114Y006218D02*
X003510Y006218D01*
X003578Y006513D02*
X003384Y006513D01*
X003309Y006612D02*
X003488Y006612D01*
X003448Y006710D02*
X003384Y006710D01*
X003384Y006809D02*
X003440Y006809D01*
X003455Y006907D02*
X003384Y006907D01*
X003384Y007006D02*
X003496Y007006D01*
X003595Y007104D02*
X003384Y007104D01*
X003384Y007203D02*
X004216Y007203D01*
X004216Y007301D02*
X003384Y007301D01*
X003384Y007400D02*
X004216Y007400D01*
X004301Y007498D02*
X003299Y007498D01*
X002800Y007300D02*
X002954Y007050D01*
X002800Y007300D02*
X001800Y006300D01*
X001550Y006050D01*
X002051Y005824D02*
X002201Y005824D01*
X002227Y005922D02*
X002092Y005922D01*
X002100Y005941D02*
X002100Y006159D01*
X002066Y006241D01*
X002524Y006698D01*
X002524Y006686D01*
X002629Y006581D01*
X002722Y006581D01*
X003090Y006213D01*
X003090Y005418D01*
X003082Y005422D01*
X003044Y005432D01*
X002792Y005432D01*
X002792Y005178D01*
X002784Y005178D01*
X002784Y005432D01*
X002573Y005432D01*
X002676Y005823D01*
X002729Y005845D01*
X002830Y005946D01*
X002885Y006078D01*
X002885Y006222D01*
X002830Y006354D01*
X002729Y006455D01*
X002597Y006510D01*
X002453Y006510D01*
X002321Y006455D01*
X002220Y006354D01*
X002165Y006222D01*
X002165Y006078D01*
X002220Y005946D01*
X002230Y005936D01*
X002094Y005419D01*
X002070Y005395D01*
X002070Y005330D01*
X002054Y005270D01*
X002016Y005362D01*
X001862Y005516D01*
X001780Y005550D01*
X001862Y005584D01*
X002016Y005738D01*
X002100Y005941D01*
X002100Y006021D02*
X002189Y006021D01*
X002165Y006119D02*
X002100Y006119D01*
X002076Y006218D02*
X002165Y006218D01*
X002141Y006316D02*
X002204Y006316D01*
X002240Y006415D02*
X002280Y006415D01*
X002338Y006513D02*
X002790Y006513D01*
X002770Y006415D02*
X002889Y006415D01*
X002846Y006316D02*
X002987Y006316D01*
X003086Y006218D02*
X002885Y006218D01*
X002885Y006119D02*
X003090Y006119D01*
X003090Y006021D02*
X002861Y006021D01*
X002806Y005922D02*
X003090Y005922D01*
X003090Y005824D02*
X002678Y005824D01*
X002650Y005725D02*
X003090Y005725D01*
X003090Y005627D02*
X002624Y005627D01*
X002598Y005528D02*
X003090Y005528D01*
X003090Y005430D02*
X003054Y005430D01*
X002792Y005430D02*
X002784Y005430D01*
X002784Y005331D02*
X002792Y005331D01*
X002784Y005233D02*
X002792Y005233D01*
X002788Y005174D02*
X002788Y005613D01*
X002825Y005650D01*
X002792Y005170D02*
X002792Y004916D01*
X003044Y004916D01*
X003082Y004926D01*
X003090Y004930D01*
X003090Y004714D01*
X002711Y004714D01*
X002530Y004895D01*
X002530Y004916D01*
X002532Y004916D01*
X002784Y004916D01*
X002784Y005170D01*
X002792Y005170D01*
X002784Y005134D02*
X002792Y005134D01*
X002784Y005036D02*
X002792Y005036D01*
X002784Y004937D02*
X002792Y004937D01*
X002685Y004740D02*
X003090Y004740D01*
X003090Y004839D02*
X002587Y004839D01*
X002300Y004800D02*
X002550Y004550D01*
X002650Y004450D02*
X002674Y004426D01*
X002788Y004426D01*
X002650Y004450D02*
X002300Y004800D01*
X002300Y005300D01*
X002300Y004800D01*
X002300Y005300D01*
X002525Y006150D01*
X002175Y005725D02*
X002003Y005725D01*
X001904Y005627D02*
X002149Y005627D01*
X002122Y005528D02*
X001833Y005528D01*
X001948Y005430D02*
X002096Y005430D01*
X002070Y005331D02*
X002029Y005331D01*
X002061Y005253D02*
X002070Y005232D01*
X002070Y005238D01*
X002061Y005253D01*
X002070Y005233D02*
X002070Y005233D01*
X002058Y004839D02*
X002070Y004839D01*
X002070Y004740D02*
X002017Y004740D01*
X002070Y004642D02*
X001919Y004642D01*
X002070Y004543D02*
X001763Y004543D01*
X001530Y004445D02*
X002070Y004445D01*
X002070Y004346D02*
X001530Y004346D01*
X001530Y004248D02*
X002070Y004248D01*
X002070Y004149D02*
X001530Y004149D01*
X001530Y004051D02*
X002070Y004051D01*
X002070Y003952D02*
X001530Y003952D01*
X001530Y003854D02*
X002070Y003854D01*
X002070Y003755D02*
X001530Y003755D01*
X001530Y003657D02*
X002070Y003657D01*
X002070Y003558D02*
X001828Y003558D01*
X001870Y003460D02*
X002070Y003460D01*
X002070Y003361D02*
X001870Y003361D01*
X001870Y003263D02*
X002070Y003263D01*
X002111Y003164D02*
X001870Y003164D01*
X001870Y003066D02*
X002209Y003066D01*
X002308Y002967D02*
X001870Y002967D01*
X001870Y002869D02*
X002406Y002869D01*
X002505Y002770D02*
X001870Y002770D01*
X001870Y002672D02*
X002603Y002672D01*
X002702Y002573D02*
X001870Y002573D01*
X001870Y002475D02*
X002730Y002475D01*
X002730Y002376D02*
X001870Y002376D01*
X001870Y002278D02*
X002730Y002278D01*
X002730Y002179D02*
X001870Y002179D01*
X001870Y002081D02*
X002730Y002081D01*
X002730Y001982D02*
X001870Y001982D01*
X001870Y001884D02*
X002730Y001884D01*
X002730Y001785D02*
X001870Y001785D01*
X001870Y001687D02*
X002730Y001687D01*
X002730Y001588D02*
X001870Y001588D01*
X001870Y001490D02*
X002730Y001490D01*
X002730Y001391D02*
X001870Y001391D01*
X001870Y001293D02*
X002730Y001293D01*
X002730Y001194D02*
X001870Y001194D01*
X001842Y001096D02*
X002738Y001096D01*
X003712Y001096D02*
X004165Y001096D01*
X004084Y001194D02*
X003720Y001194D01*
X003720Y001293D02*
X004060Y001293D01*
X004060Y001391D02*
X003720Y001391D01*
X003720Y001490D02*
X004060Y001490D01*
X004060Y001588D02*
X003720Y001588D01*
X003720Y001687D02*
X004060Y001687D01*
X004060Y001785D02*
X003720Y001785D01*
X003720Y001884D02*
X004060Y001884D01*
X004060Y001982D02*
X003720Y001982D01*
X003720Y002081D02*
X004060Y002081D01*
X004060Y002179D02*
X003720Y002179D01*
X003720Y002278D02*
X004060Y002278D01*
X004060Y002376D02*
X003720Y002376D01*
X003720Y002475D02*
X004060Y002475D01*
X004060Y002573D02*
X003720Y002573D01*
X003720Y002672D02*
X004060Y002672D01*
X004060Y002770D02*
X003720Y002770D01*
X003720Y002869D02*
X004060Y002869D01*
X004060Y002967D02*
X003720Y002967D01*
X003720Y003066D02*
X004060Y003066D01*
X004060Y003164D02*
X003720Y003164D01*
X003720Y003263D02*
X004060Y003263D01*
X004060Y003361D02*
X003720Y003361D01*
X003720Y003460D02*
X004060Y003460D01*
X004060Y003558D02*
X003659Y003558D01*
X004060Y003657D02*
X002530Y003657D01*
X002530Y003755D02*
X004060Y003755D01*
X004060Y003854D02*
X002530Y003854D01*
X002530Y003952D02*
X004060Y003952D01*
X004060Y004051D02*
X002530Y004051D01*
X002530Y003558D02*
X002792Y003558D01*
X002730Y003460D02*
X002530Y003460D01*
X002564Y003361D02*
X002730Y003361D01*
X002730Y003263D02*
X002663Y003263D01*
X002300Y003300D02*
X003300Y002300D01*
X003225Y002300D01*
X002300Y003300D02*
X002300Y004800D01*
X001550Y005050D02*
X001300Y004800D01*
X001300Y002800D01*
X001375Y002320D01*
X000880Y002278D02*
X000480Y002278D01*
X000480Y002376D02*
X000880Y002376D01*
X000880Y002475D02*
X000480Y002475D01*
X000480Y002573D02*
X000880Y002573D01*
X000880Y002672D02*
X000480Y002672D01*
X000480Y002770D02*
X000880Y002770D01*
X000880Y002869D02*
X000480Y002869D01*
X000480Y002967D02*
X000880Y002967D01*
X000880Y003066D02*
X000480Y003066D01*
X000480Y003164D02*
X000880Y003164D01*
X000880Y003263D02*
X000480Y003263D01*
X000480Y003361D02*
X000880Y003361D01*
X000880Y003460D02*
X000480Y003460D01*
X000480Y003558D02*
X000922Y003558D01*
X001070Y003657D02*
X000480Y003657D01*
X000480Y003755D02*
X001070Y003755D01*
X001070Y003854D02*
X000480Y003854D01*
X000480Y003952D02*
X001070Y003952D01*
X001070Y004051D02*
X000480Y004051D01*
X000480Y004149D02*
X001070Y004149D01*
X001070Y004248D02*
X000480Y004248D01*
X000480Y004346D02*
X001070Y004346D01*
X001070Y004445D02*
X000480Y004445D01*
X000480Y004543D02*
X001070Y004543D01*
X001070Y004642D02*
X000480Y004642D01*
X000480Y004740D02*
X001070Y004740D01*
X001042Y004839D02*
X000480Y004839D01*
X000480Y004937D02*
X001001Y004937D01*
X001000Y005036D02*
X000480Y005036D01*
X000480Y005134D02*
X001000Y005134D01*
X001030Y005233D02*
X000480Y005233D01*
X000480Y005331D02*
X001071Y005331D01*
X001152Y005430D02*
X000480Y005430D01*
X000480Y005528D02*
X001267Y005528D01*
X001196Y005627D02*
X000480Y005627D01*
X000480Y005725D02*
X001097Y005725D01*
X001048Y005824D02*
X000480Y005824D01*
X000480Y005922D02*
X001008Y005922D01*
X001000Y006021D02*
X000480Y006021D01*
X000480Y006119D02*
X001000Y006119D01*
X001024Y006218D02*
X000480Y006218D01*
X000480Y006316D02*
X001065Y006316D01*
X001137Y006415D02*
X000480Y006415D01*
X000480Y006513D02*
X001235Y006513D01*
X001269Y006612D02*
X000480Y006612D01*
X000480Y006710D02*
X001155Y006710D01*
X001089Y006809D02*
X000480Y006809D01*
X000480Y006907D02*
X001050Y006907D01*
X000480Y007597D02*
X016340Y007597D01*
X016340Y007695D02*
X000480Y007695D01*
X000480Y007794D02*
X016340Y007794D01*
X016320Y007892D02*
X000500Y007892D01*
X000551Y007991D02*
X016269Y007991D01*
X016133Y008089D02*
X000687Y008089D01*
X000756Y008633D02*
X000641Y008680D01*
X004495Y008680D01*
X004549Y008626D02*
X000818Y008626D01*
X000756Y008633D01*
X000641Y008680D02*
X000552Y008769D01*
X000505Y008884D01*
X000498Y008946D01*
X000498Y015692D01*
X000505Y015755D01*
X000552Y015870D01*
X000641Y015958D01*
X000756Y016006D01*
X000818Y016012D01*
X016039Y016012D01*
X016101Y016006D01*
X016216Y015958D01*
X016305Y015870D01*
X016352Y015755D01*
X016359Y015692D01*
X016359Y013953D01*
X016076Y014235D01*
X016118Y014337D01*
X016118Y014556D01*
X016035Y014758D01*
X015880Y014913D01*
X015678Y014996D01*
X015459Y014996D01*
X015257Y014913D01*
X015102Y014758D01*
X015018Y014556D01*
X015018Y014337D01*
X015049Y014263D01*
X014905Y014406D01*
X014731Y014406D01*
X010748Y014406D01*
X010687Y014468D01*
X010704Y014484D01*
X010723Y014518D01*
X010733Y014557D01*
X010733Y014686D01*
X010158Y014686D01*
X010158Y014706D01*
X010138Y014706D01*
X010138Y014686D01*
X009563Y014686D01*
X009563Y014557D01*
X009574Y014518D01*
X009593Y014484D01*
X009610Y014468D01*
X009533Y014391D01*
X009533Y014002D01*
X009589Y013946D01*
X009533Y013891D01*
X009533Y013502D01*
X009589Y013446D01*
X009533Y013391D01*
X009533Y013002D01*
X009639Y012896D01*
X010321Y012896D01*
X010608Y012609D01*
X010608Y010283D01*
X010588Y010263D01*
X010588Y010396D01*
X010118Y010396D01*
X010118Y010496D01*
X010018Y010496D01*
X010018Y010966D01*
X009853Y010966D01*
X009548Y010662D01*
X009548Y010644D01*
X009296Y010896D01*
X009028Y010896D01*
X009028Y013783D01*
X008905Y013906D01*
X008113Y014698D01*
X008113Y014891D01*
X008008Y014996D01*
X006989Y014996D01*
X006883Y014891D01*
X006883Y014502D01*
X006939Y014446D01*
X006883Y014391D01*
X006883Y014002D01*
X006897Y013989D01*
X006878Y013996D01*
X006759Y013996D01*
X006649Y013951D01*
X006564Y013866D01*
X006518Y013756D01*
X006518Y013637D01*
X006564Y013526D01*
X006649Y013442D01*
X006759Y013396D01*
X006878Y013396D01*
X006897Y013404D01*
X006883Y013391D01*
X006883Y013101D01*
X006641Y012858D01*
X006624Y012900D01*
X006522Y013002D01*
X006390Y013056D01*
X006247Y013056D01*
X006115Y013002D01*
X006063Y012950D01*
X006063Y012995D01*
X005958Y013101D01*
X005179Y013101D01*
X005074Y012995D01*
X005074Y012295D01*
X005179Y012190D01*
X005958Y012190D01*
X006063Y012295D01*
X006063Y012442D01*
X006115Y012391D01*
X006157Y012374D01*
X006115Y012332D01*
X005689Y011906D01*
X005021Y011906D01*
X004916Y011800D01*
X004916Y011140D01*
X005021Y011034D01*
X006078Y011034D01*
X006078Y009824D01*
X006061Y009829D01*
X005618Y009829D01*
X005618Y009473D01*
X005518Y009473D01*
X005518Y009373D01*
X004946Y009373D01*
X004946Y009147D01*
X004956Y009109D01*
X004976Y009075D01*
X005004Y009047D01*
X005038Y009027D01*
X005076Y009017D01*
X005518Y009017D01*
X005518Y009373D01*
X005618Y009373D01*
X005618Y009017D01*
X006061Y009017D01*
X006078Y009022D01*
X006078Y008936D01*
X004918Y008936D01*
X004558Y009296D01*
X004558Y012244D01*
X004522Y012332D01*
X004247Y012608D01*
X004247Y012879D01*
X004242Y012883D01*
X004247Y012888D01*
X004247Y013253D01*
X004141Y013359D01*
X003528Y013359D01*
X003528Y014283D01*
X003316Y014496D01*
X003402Y014582D01*
X003402Y015310D01*
X003297Y015416D01*
X002924Y015416D01*
X002914Y015426D01*
X002846Y015426D01*
X002779Y015442D01*
X002753Y015426D01*
X002723Y015426D01*
X002713Y015416D01*
X002647Y015416D01*
X002542Y015310D01*
X002542Y015245D01*
X002054Y014757D01*
X002076Y014825D01*
X002087Y014896D01*
X001618Y014896D01*
X001618Y014996D01*
X001518Y014996D01*
X001518Y014896D01*
X001050Y014896D01*
X001061Y014825D01*
X001087Y014747D01*
X001124Y014674D01*
X001172Y014608D01*
X001230Y014550D01*
X001296Y014502D01*
X001369Y014464D01*
X001376Y014462D01*
X001257Y014413D01*
X001102Y014258D01*
X001018Y014056D01*
X001018Y013837D01*
X001102Y013635D01*
X001257Y013480D01*
X001338Y013446D01*
X001257Y013413D01*
X001102Y013258D01*
X001018Y013056D01*
X001018Y012837D01*
X001088Y012668D01*
X001088Y011518D01*
X001004Y011518D01*
X000898Y011413D01*
X000898Y009019D01*
X001004Y008914D01*
X001783Y008914D01*
X001888Y009019D01*
X001888Y011413D01*
X001783Y011518D01*
X001548Y011518D01*
X001548Y012396D01*
X001678Y012396D01*
X001880Y012480D01*
X002035Y012635D01*
X002088Y012765D01*
X002088Y011101D01*
X002749Y010441D01*
X002749Y009000D01*
X002854Y008894D01*
X003633Y008894D01*
X003739Y009000D01*
X003739Y011393D01*
X003633Y011498D01*
X002854Y011498D01*
X002749Y011393D01*
X002749Y011091D01*
X002548Y011292D01*
X002548Y012034D01*
X003117Y012034D01*
X003223Y012140D01*
X003223Y012495D01*
X003231Y012486D01*
X003414Y012486D01*
X003414Y012140D01*
X003520Y012034D01*
X004078Y012034D01*
X004078Y009149D01*
X004115Y009060D01*
X004183Y008993D01*
X004549Y008626D01*
X004397Y008779D02*
X000548Y008779D01*
X000507Y008877D02*
X004298Y008877D01*
X004200Y008976D02*
X003714Y008976D01*
X003739Y009074D02*
X004109Y009074D01*
X004078Y009173D02*
X003739Y009173D01*
X003739Y009271D02*
X004078Y009271D01*
X004078Y009370D02*
X003739Y009370D01*
X003739Y009468D02*
X004078Y009468D01*
X004078Y009567D02*
X003739Y009567D01*
X003739Y009665D02*
X004078Y009665D01*
X004078Y009764D02*
X003739Y009764D01*
X003739Y009862D02*
X004078Y009862D01*
X004078Y009961D02*
X003739Y009961D01*
X003739Y010059D02*
X004078Y010059D01*
X004078Y010158D02*
X003739Y010158D01*
X003739Y010256D02*
X004078Y010256D01*
X004078Y010355D02*
X003739Y010355D01*
X003739Y010453D02*
X004078Y010453D01*
X004078Y010552D02*
X003739Y010552D01*
X003739Y010650D02*
X004078Y010650D01*
X004078Y010749D02*
X003739Y010749D01*
X003739Y010847D02*
X004078Y010847D01*
X004078Y010946D02*
X003739Y010946D01*
X003739Y011044D02*
X004078Y011044D01*
X004078Y011143D02*
X003739Y011143D01*
X003739Y011241D02*
X004078Y011241D01*
X004078Y011340D02*
X003739Y011340D01*
X003694Y011438D02*
X004078Y011438D01*
X004078Y011537D02*
X002548Y011537D01*
X002548Y011635D02*
X004078Y011635D01*
X004078Y011734D02*
X002548Y011734D01*
X002548Y011832D02*
X004078Y011832D01*
X004078Y011931D02*
X002548Y011931D01*
X002548Y012029D02*
X004078Y012029D01*
X003830Y012322D02*
X003830Y012696D01*
X004247Y012719D02*
X005074Y012719D01*
X005074Y012817D02*
X004247Y012817D01*
X004247Y012916D02*
X005074Y012916D01*
X005092Y013014D02*
X004247Y013014D01*
X004247Y013113D02*
X006883Y013113D01*
X006883Y013211D02*
X004247Y013211D01*
X004190Y013310D02*
X006883Y013310D01*
X006731Y013408D02*
X006020Y013408D01*
X006023Y013414D02*
X006033Y013452D01*
X006033Y013698D01*
X005618Y013698D01*
X005618Y013322D01*
X005903Y013322D01*
X005941Y013332D01*
X005976Y013352D01*
X006003Y013380D01*
X006023Y013414D01*
X006033Y013507D02*
X006584Y013507D01*
X006532Y013605D02*
X006033Y013605D01*
X006033Y013798D02*
X006033Y014043D01*
X006023Y014081D01*
X006003Y014115D01*
X005976Y014143D01*
X005941Y014163D01*
X005903Y014173D01*
X005618Y014173D01*
X005618Y013798D01*
X005518Y013798D01*
X005518Y013698D01*
X005104Y013698D01*
X005104Y013452D01*
X005114Y013414D01*
X005133Y013380D01*
X005161Y013352D01*
X005196Y013332D01*
X005234Y013322D01*
X005518Y013322D01*
X005518Y013698D01*
X005618Y013698D01*
X005618Y013798D01*
X006033Y013798D01*
X006033Y013802D02*
X006538Y013802D01*
X006518Y013704D02*
X005618Y013704D01*
X005568Y013748D02*
X005318Y013696D01*
X004818Y013196D01*
X004818Y009696D01*
X005318Y009196D01*
X005568Y009423D01*
X005518Y009468D02*
X004558Y009468D01*
X004558Y009370D02*
X004946Y009370D01*
X004946Y009271D02*
X004583Y009271D01*
X004682Y009173D02*
X004946Y009173D01*
X004977Y009074D02*
X004780Y009074D01*
X004879Y008976D02*
X006078Y008976D01*
X005618Y009074D02*
X005518Y009074D01*
X005518Y009173D02*
X005618Y009173D01*
X005618Y009271D02*
X005518Y009271D01*
X005518Y009370D02*
X005618Y009370D01*
X005518Y009473D02*
X004946Y009473D01*
X004946Y009698D01*
X004956Y009737D01*
X004976Y009771D01*
X005004Y009799D01*
X005038Y009818D01*
X005076Y009829D01*
X005518Y009829D01*
X005518Y009473D01*
X005518Y009567D02*
X005618Y009567D01*
X005618Y009665D02*
X005518Y009665D01*
X005518Y009764D02*
X005618Y009764D01*
X006078Y009862D02*
X004558Y009862D01*
X004558Y009764D02*
X004972Y009764D01*
X004946Y009665D02*
X004558Y009665D01*
X004558Y009567D02*
X004946Y009567D01*
X004558Y009961D02*
X006078Y009961D01*
X006078Y010059D02*
X004558Y010059D01*
X004558Y010158D02*
X006078Y010158D01*
X006078Y010256D02*
X004558Y010256D01*
X004558Y010355D02*
X006078Y010355D01*
X006078Y010453D02*
X004558Y010453D01*
X004558Y010552D02*
X006078Y010552D01*
X006078Y010650D02*
X004558Y010650D01*
X004558Y010749D02*
X006078Y010749D01*
X006078Y010847D02*
X004558Y010847D01*
X004558Y010946D02*
X006078Y010946D01*
X006558Y010946D02*
X007790Y010946D01*
X007781Y010936D02*
X006558Y010936D01*
X006558Y012097D01*
X007358Y012896D01*
X008008Y012896D01*
X008108Y012997D01*
X008108Y011911D01*
X008064Y011866D01*
X008018Y011756D01*
X008018Y011637D01*
X008064Y011526D01*
X008149Y011442D01*
X008259Y011396D01*
X008378Y011396D01*
X008488Y011442D01*
X008573Y011526D01*
X008608Y011613D01*
X008608Y010684D01*
X008296Y010996D01*
X007841Y010996D01*
X007781Y010936D01*
X007518Y010456D02*
X007518Y010219D01*
X007791Y009946D01*
X007518Y009674D01*
X007518Y009219D01*
X007841Y008896D01*
X008296Y008896D01*
X008518Y009119D01*
X008518Y009119D01*
X008841Y008796D01*
X009296Y008796D01*
X009359Y008859D01*
X009591Y008626D01*
X006549Y008626D01*
X006558Y008649D01*
X006558Y010456D01*
X007518Y010456D01*
X007518Y010453D02*
X006558Y010453D01*
X006558Y010355D02*
X007518Y010355D01*
X007518Y010256D02*
X006558Y010256D01*
X006558Y010158D02*
X007579Y010158D01*
X007678Y010059D02*
X006558Y010059D01*
X006558Y009961D02*
X007776Y009961D01*
X007706Y009862D02*
X006558Y009862D01*
X006558Y009764D02*
X007608Y009764D01*
X007518Y009665D02*
X006558Y009665D01*
X006558Y009567D02*
X007518Y009567D01*
X007518Y009468D02*
X006558Y009468D01*
X006558Y009370D02*
X007518Y009370D01*
X007518Y009271D02*
X006558Y009271D01*
X006558Y009173D02*
X007565Y009173D01*
X007663Y009074D02*
X006558Y009074D01*
X006558Y008976D02*
X007762Y008976D01*
X008375Y008976D02*
X008662Y008976D01*
X008760Y008877D02*
X006558Y008877D01*
X006558Y008779D02*
X009439Y008779D01*
X009538Y008680D02*
X006558Y008680D01*
X008346Y009946D02*
X008518Y010119D01*
X008518Y010119D01*
X008791Y009846D01*
X008618Y009674D01*
X008618Y009674D01*
X008346Y009946D01*
X008360Y009961D02*
X008676Y009961D01*
X008578Y010059D02*
X008459Y010059D01*
X008431Y009862D02*
X008775Y009862D01*
X008708Y009764D02*
X008529Y009764D01*
X008563Y009074D02*
X008474Y009074D01*
X009346Y009846D02*
X009618Y010119D01*
X009618Y010161D01*
X009812Y009968D01*
X009518Y009674D01*
X009346Y009846D01*
X009362Y009862D02*
X009706Y009862D01*
X009608Y009764D02*
X009429Y009764D01*
X009518Y009674D02*
X009518Y009674D01*
X009460Y009961D02*
X009805Y009961D01*
X009720Y010059D02*
X009559Y010059D01*
X009618Y010158D02*
X009622Y010158D01*
X010018Y010552D02*
X010118Y010552D01*
X010118Y010496D02*
X010118Y010966D01*
X010284Y010966D01*
X010588Y010662D01*
X010588Y010496D01*
X010118Y010496D01*
X010118Y010453D02*
X010608Y010453D01*
X010608Y010355D02*
X010588Y010355D01*
X010588Y010552D02*
X010608Y010552D01*
X010608Y010650D02*
X010588Y010650D01*
X010608Y010749D02*
X010502Y010749D01*
X010403Y010847D02*
X010608Y010847D01*
X010608Y010946D02*
X010305Y010946D01*
X010608Y011044D02*
X009028Y011044D01*
X009028Y010946D02*
X009832Y010946D01*
X009734Y010847D02*
X009346Y010847D01*
X009444Y010749D02*
X009635Y010749D01*
X009548Y010650D02*
X009543Y010650D01*
X010018Y010650D02*
X010118Y010650D01*
X010118Y010749D02*
X010018Y010749D01*
X010018Y010847D02*
X010118Y010847D01*
X010118Y010946D02*
X010018Y010946D01*
X010608Y011143D02*
X009028Y011143D01*
X009028Y011241D02*
X010608Y011241D01*
X010608Y011340D02*
X009028Y011340D01*
X009028Y011438D02*
X010608Y011438D01*
X010608Y011537D02*
X009028Y011537D01*
X009028Y011635D02*
X010608Y011635D01*
X010608Y011734D02*
X009028Y011734D01*
X009028Y011832D02*
X010608Y011832D01*
X010608Y011931D02*
X009028Y011931D01*
X009028Y012029D02*
X010608Y012029D01*
X010608Y012128D02*
X009028Y012128D01*
X009028Y012226D02*
X010608Y012226D01*
X010608Y012325D02*
X009028Y012325D01*
X009028Y012423D02*
X010608Y012423D01*
X010608Y012522D02*
X009028Y012522D01*
X009028Y012620D02*
X010598Y012620D01*
X010499Y012719D02*
X009028Y012719D01*
X009028Y012817D02*
X010401Y012817D01*
X010763Y013048D02*
X010763Y013391D01*
X010708Y013446D01*
X010740Y013478D01*
X011108Y013109D01*
X011108Y008906D01*
X010306Y008906D01*
X010618Y009219D01*
X010618Y009674D01*
X010606Y009687D01*
X011028Y010109D01*
X011028Y012783D01*
X010905Y012906D01*
X010763Y013048D01*
X010798Y013014D02*
X011108Y013014D01*
X011108Y012916D02*
X010896Y012916D01*
X010995Y012817D02*
X011108Y012817D01*
X011108Y012719D02*
X011028Y012719D01*
X011028Y012620D02*
X011108Y012620D01*
X011108Y012522D02*
X011028Y012522D01*
X011028Y012423D02*
X011108Y012423D01*
X011108Y012325D02*
X011028Y012325D01*
X011028Y012226D02*
X011108Y012226D01*
X011108Y012128D02*
X011028Y012128D01*
X011028Y012029D02*
X011108Y012029D01*
X011108Y011931D02*
X011028Y011931D01*
X011028Y011832D02*
X011108Y011832D01*
X011108Y011734D02*
X011028Y011734D01*
X011028Y011635D02*
X011108Y011635D01*
X011108Y011537D02*
X011028Y011537D01*
X011028Y011438D02*
X011108Y011438D01*
X011108Y011340D02*
X011028Y011340D01*
X011028Y011241D02*
X011108Y011241D01*
X011108Y011143D02*
X011028Y011143D01*
X011028Y011044D02*
X011108Y011044D01*
X011108Y010946D02*
X011028Y010946D01*
X011028Y010847D02*
X011108Y010847D01*
X011108Y010749D02*
X011028Y010749D01*
X011028Y010650D02*
X011108Y010650D01*
X011108Y010552D02*
X011028Y010552D01*
X011028Y010453D02*
X011108Y010453D01*
X011108Y010355D02*
X011028Y010355D01*
X011028Y010256D02*
X011108Y010256D01*
X011108Y010158D02*
X011028Y010158D01*
X010978Y010059D02*
X011108Y010059D01*
X011108Y009961D02*
X010880Y009961D01*
X010781Y009862D02*
X011108Y009862D01*
X011108Y009764D02*
X010683Y009764D01*
X010618Y009665D02*
X011108Y009665D01*
X011108Y009567D02*
X010618Y009567D01*
X010618Y009468D02*
X011108Y009468D01*
X011108Y009370D02*
X010618Y009370D01*
X010618Y009271D02*
X011108Y009271D01*
X011108Y009173D02*
X010572Y009173D01*
X010474Y009074D02*
X011108Y009074D01*
X011108Y008976D02*
X010375Y008976D01*
X011528Y008976D02*
X012314Y008976D01*
X012272Y009017D02*
X012378Y008912D01*
X013157Y008912D01*
X013262Y009017D01*
X013262Y009875D01*
X013229Y009909D01*
X013259Y009896D01*
X013378Y009896D01*
X013408Y009909D01*
X013375Y009875D01*
X013375Y009017D01*
X013480Y008912D01*
X014259Y008912D01*
X014365Y009017D01*
X014365Y009456D01*
X015018Y009456D01*
X015018Y009337D01*
X015102Y009135D01*
X015257Y008980D01*
X015435Y008906D01*
X011528Y008906D01*
X011528Y012113D01*
X011564Y012026D01*
X011608Y011982D01*
X011608Y009609D01*
X011731Y009486D01*
X012272Y009486D01*
X012272Y009017D01*
X012272Y009074D02*
X011528Y009074D01*
X011528Y009173D02*
X012272Y009173D01*
X012272Y009271D02*
X011528Y009271D01*
X011528Y009370D02*
X012272Y009370D01*
X012272Y009468D02*
X011528Y009468D01*
X011528Y009567D02*
X011651Y009567D01*
X011608Y009665D02*
X011528Y009665D01*
X011528Y009764D02*
X011608Y009764D01*
X011608Y009862D02*
X011528Y009862D01*
X011528Y009961D02*
X011608Y009961D01*
X011608Y010059D02*
X011528Y010059D01*
X011528Y010158D02*
X011608Y010158D01*
X011608Y010256D02*
X011528Y010256D01*
X011528Y010355D02*
X011608Y010355D01*
X011608Y010453D02*
X011528Y010453D01*
X011528Y010552D02*
X011608Y010552D01*
X011608Y010650D02*
X011528Y010650D01*
X011528Y010749D02*
X011608Y010749D01*
X011608Y010847D02*
X011528Y010847D01*
X011528Y010946D02*
X011608Y010946D01*
X011608Y011044D02*
X011528Y011044D01*
X011528Y011143D02*
X011608Y011143D01*
X011608Y011241D02*
X011528Y011241D01*
X011528Y011340D02*
X011608Y011340D01*
X011608Y011438D02*
X011528Y011438D01*
X011528Y011537D02*
X011608Y011537D01*
X011608Y011635D02*
X011528Y011635D01*
X011528Y011734D02*
X011608Y011734D01*
X011608Y011832D02*
X011528Y011832D01*
X011528Y011931D02*
X011608Y011931D01*
X011563Y012029D02*
X011528Y012029D01*
X011528Y012280D02*
X011528Y012486D01*
X011735Y012486D01*
X011649Y012451D01*
X011564Y012366D01*
X011528Y012280D01*
X011528Y012325D02*
X011547Y012325D01*
X011528Y012423D02*
X011621Y012423D01*
X011902Y012486D02*
X012272Y012486D01*
X012272Y012017D01*
X012343Y011946D01*
X012272Y011875D01*
X012272Y011017D01*
X012343Y010946D01*
X012272Y010875D01*
X012272Y010017D01*
X012343Y009946D01*
X012303Y009906D01*
X012028Y009906D01*
X012028Y011982D01*
X012073Y012026D01*
X012118Y012137D01*
X012118Y012256D01*
X012073Y012366D01*
X011988Y012451D01*
X011902Y012486D01*
X012016Y012423D02*
X012272Y012423D01*
X012272Y012325D02*
X012090Y012325D01*
X012118Y012226D02*
X012272Y012226D01*
X012272Y012128D02*
X012115Y012128D01*
X012074Y012029D02*
X012272Y012029D01*
X012328Y011931D02*
X012028Y011931D01*
X012028Y011832D02*
X012272Y011832D01*
X012272Y011734D02*
X012028Y011734D01*
X012028Y011635D02*
X012272Y011635D01*
X012272Y011537D02*
X012028Y011537D01*
X012028Y011438D02*
X012272Y011438D01*
X012272Y011340D02*
X012028Y011340D01*
X012028Y011241D02*
X012272Y011241D01*
X012272Y011143D02*
X012028Y011143D01*
X012028Y011044D02*
X012272Y011044D01*
X012343Y010946D02*
X012028Y010946D01*
X012028Y010847D02*
X012272Y010847D01*
X012272Y010749D02*
X012028Y010749D01*
X012028Y010650D02*
X012272Y010650D01*
X012272Y010552D02*
X012028Y010552D01*
X012028Y010453D02*
X012272Y010453D01*
X012272Y010355D02*
X012028Y010355D01*
X012028Y010256D02*
X012272Y010256D01*
X012272Y010158D02*
X012028Y010158D01*
X012028Y010059D02*
X012272Y010059D01*
X012329Y009961D02*
X012028Y009961D01*
X013191Y010946D02*
X013262Y011017D01*
X013262Y011396D01*
X013375Y011396D01*
X013375Y011017D01*
X013446Y010946D01*
X013375Y010875D01*
X013375Y010496D01*
X013262Y010496D01*
X013262Y010875D01*
X013191Y010946D01*
X013192Y010946D02*
X013445Y010946D01*
X013375Y011044D02*
X013262Y011044D01*
X013262Y011143D02*
X013375Y011143D01*
X013375Y011241D02*
X013262Y011241D01*
X013262Y011340D02*
X013375Y011340D01*
X013375Y010847D02*
X013262Y010847D01*
X013262Y010749D02*
X013375Y010749D01*
X013375Y010650D02*
X013262Y010650D01*
X013262Y010552D02*
X013375Y010552D01*
X013818Y010696D02*
X013870Y010446D01*
X013818Y010696D02*
X014118Y010696D01*
X014318Y010696D01*
X015318Y010696D01*
X015568Y010446D01*
X015946Y010847D02*
X016108Y010847D01*
X016108Y010749D02*
X016039Y010749D01*
X016035Y010758D02*
X015880Y010913D01*
X015799Y010946D01*
X015880Y010980D01*
X016035Y011135D01*
X016108Y011313D01*
X016108Y010580D01*
X016035Y010758D01*
X016079Y010650D02*
X016108Y010650D01*
X016108Y010946D02*
X015801Y010946D01*
X015944Y011044D02*
X016108Y011044D01*
X016108Y011143D02*
X016038Y011143D01*
X016079Y011241D02*
X016108Y011241D01*
X016108Y011580D02*
X016035Y011758D01*
X015880Y011913D01*
X015761Y011962D01*
X015768Y011964D01*
X015841Y012002D01*
X015907Y012050D01*
X015965Y012108D01*
X016013Y012174D01*
X016050Y012247D01*
X016076Y012325D01*
X016087Y012396D01*
X015618Y012396D01*
X015618Y012496D01*
X016087Y012496D01*
X016076Y012568D01*
X016050Y012646D01*
X016013Y012719D01*
X015965Y012785D01*
X015907Y012843D01*
X015841Y012891D01*
X015768Y012928D01*
X015761Y012931D01*
X015880Y012980D01*
X016035Y013135D01*
X016108Y013313D01*
X016108Y011580D01*
X016108Y011635D02*
X016086Y011635D01*
X016108Y011734D02*
X016045Y011734D01*
X016108Y011832D02*
X015961Y011832D01*
X015837Y011931D02*
X016108Y011931D01*
X016108Y012029D02*
X015879Y012029D01*
X015980Y012128D02*
X016108Y012128D01*
X016108Y012226D02*
X016040Y012226D01*
X016076Y012325D02*
X016108Y012325D01*
X016108Y012423D02*
X015618Y012423D01*
X015518Y012423D02*
X013920Y012423D01*
X013920Y012396D02*
X013920Y012496D01*
X014335Y012496D01*
X014335Y012820D01*
X014324Y012859D01*
X014305Y012893D01*
X014277Y012921D01*
X014243Y012940D01*
X014204Y012951D01*
X013920Y012951D01*
X013920Y012496D01*
X013820Y012496D01*
X013820Y012396D01*
X013405Y012396D01*
X013405Y012072D01*
X013415Y012034D01*
X013435Y012000D01*
X013463Y011972D01*
X013468Y011969D01*
X013461Y011962D01*
X013378Y011996D01*
X013259Y011996D01*
X013229Y011984D01*
X013262Y012017D01*
X013262Y012875D01*
X013157Y012981D01*
X012378Y012981D01*
X012303Y012906D01*
X011528Y012906D01*
X011528Y013283D01*
X011028Y013783D01*
X010905Y013906D01*
X010748Y013906D01*
X010708Y013946D01*
X010748Y013986D01*
X014731Y013986D01*
X015061Y013657D01*
X015018Y013556D01*
X015018Y013337D01*
X015102Y013135D01*
X015257Y012980D01*
X015376Y012931D01*
X015369Y012928D01*
X015296Y012891D01*
X015230Y012843D01*
X015172Y012785D01*
X015124Y012719D01*
X015087Y012646D01*
X015061Y012568D01*
X015050Y012496D01*
X015518Y012496D01*
X015518Y012396D01*
X015050Y012396D01*
X015061Y012325D01*
X015087Y012247D01*
X015124Y012174D01*
X015172Y012108D01*
X015230Y012050D01*
X015296Y012002D01*
X015369Y011964D01*
X015376Y011962D01*
X015314Y011936D01*
X014304Y011936D01*
X014271Y011969D01*
X014277Y011972D01*
X014305Y012000D01*
X014324Y012034D01*
X014335Y012072D01*
X014335Y012396D01*
X013920Y012396D01*
X013820Y012423D02*
X013262Y012423D01*
X013262Y012325D02*
X013405Y012325D01*
X013405Y012226D02*
X013262Y012226D01*
X013262Y012128D02*
X013405Y012128D01*
X013418Y012029D02*
X013262Y012029D01*
X013405Y012496D02*
X013820Y012496D01*
X013820Y012951D01*
X013535Y012951D01*
X013497Y012940D01*
X013463Y012921D01*
X013435Y012893D01*
X013415Y012859D01*
X013405Y012820D01*
X013405Y012496D01*
X013405Y012522D02*
X013262Y012522D01*
X013262Y012620D02*
X013405Y012620D01*
X013405Y012719D02*
X013262Y012719D01*
X013262Y012817D02*
X013405Y012817D01*
X013457Y012916D02*
X013222Y012916D01*
X013820Y012916D02*
X013920Y012916D01*
X013920Y012817D02*
X013820Y012817D01*
X013820Y012719D02*
X013920Y012719D01*
X013920Y012620D02*
X013820Y012620D01*
X013820Y012522D02*
X013920Y012522D01*
X014335Y012522D02*
X015054Y012522D01*
X015078Y012620D02*
X014335Y012620D01*
X014335Y012719D02*
X015124Y012719D01*
X015204Y012817D02*
X014335Y012817D01*
X014282Y012916D02*
X015344Y012916D01*
X015223Y013014D02*
X011528Y013014D01*
X011528Y012916D02*
X012313Y012916D01*
X011528Y013113D02*
X015124Y013113D01*
X015071Y013211D02*
X011528Y013211D01*
X011502Y013310D02*
X015030Y013310D01*
X015018Y013408D02*
X011404Y013408D01*
X011305Y013507D02*
X015018Y013507D01*
X015039Y013605D02*
X011207Y013605D01*
X011108Y013704D02*
X015014Y013704D01*
X014916Y013802D02*
X011010Y013802D01*
X010911Y013901D02*
X014817Y013901D01*
X015017Y014295D02*
X015036Y014295D01*
X015018Y014393D02*
X014919Y014393D01*
X015018Y014492D02*
X010708Y014492D01*
X010733Y014590D02*
X015033Y014590D01*
X015073Y014689D02*
X010158Y014689D01*
X010158Y014706D02*
X010733Y014706D01*
X010733Y014836D01*
X010723Y014874D01*
X010704Y014908D01*
X010676Y014936D01*
X010641Y014956D01*
X010603Y014966D01*
X010158Y014966D01*
X010158Y014706D01*
X010138Y014706D02*
X010138Y014966D01*
X009694Y014966D01*
X009656Y014956D01*
X009621Y014936D01*
X009593Y014908D01*
X009574Y014874D01*
X009563Y014836D01*
X009563Y014706D01*
X010138Y014706D01*
X010138Y014689D02*
X008123Y014689D01*
X008113Y014787D02*
X009563Y014787D01*
X009580Y014886D02*
X008113Y014886D01*
X008020Y014984D02*
X015429Y014984D01*
X015230Y014886D02*
X010717Y014886D01*
X010733Y014787D02*
X015131Y014787D01*
X015708Y014984D02*
X016359Y014984D01*
X016359Y014886D02*
X015907Y014886D01*
X016006Y014787D02*
X016359Y014787D01*
X016359Y014689D02*
X016063Y014689D01*
X016104Y014590D02*
X016359Y014590D01*
X016359Y014492D02*
X016118Y014492D01*
X016118Y014393D02*
X016359Y014393D01*
X016359Y014295D02*
X016101Y014295D01*
X016116Y014196D02*
X016359Y014196D01*
X016359Y014098D02*
X016214Y014098D01*
X016313Y013999D02*
X016359Y013999D01*
X016088Y013630D02*
X016108Y013580D01*
X016108Y013609D01*
X016088Y013630D01*
X016098Y013605D02*
X016108Y013605D01*
X016107Y013310D02*
X016108Y013310D01*
X016108Y013211D02*
X016066Y013211D01*
X016108Y013113D02*
X016012Y013113D01*
X016108Y013014D02*
X015914Y013014D01*
X015793Y012916D02*
X016108Y012916D01*
X016108Y012817D02*
X015933Y012817D01*
X016013Y012719D02*
X016108Y012719D01*
X016108Y012620D02*
X016059Y012620D01*
X016083Y012522D02*
X016108Y012522D01*
X015258Y012029D02*
X014321Y012029D01*
X014335Y012128D02*
X015157Y012128D01*
X015097Y012226D02*
X014335Y012226D01*
X014335Y012325D02*
X015061Y012325D01*
X015318Y011696D02*
X014318Y011696D01*
X013818Y011696D01*
X013870Y011446D01*
X014365Y011438D02*
X015018Y011438D01*
X015018Y011456D02*
X015018Y011337D01*
X015102Y011135D01*
X015257Y010980D01*
X015338Y010946D01*
X015314Y010936D01*
X014304Y010936D01*
X014294Y010946D01*
X015336Y010946D01*
X015193Y011044D02*
X014365Y011044D01*
X014365Y011017D02*
X014365Y011456D01*
X015018Y011456D01*
X015018Y011340D02*
X014365Y011340D01*
X014365Y011241D02*
X015058Y011241D01*
X015099Y011143D02*
X014365Y011143D01*
X014365Y011017D02*
X014294Y010946D01*
X014365Y010456D02*
X015018Y010456D01*
X015018Y010337D01*
X015102Y010135D01*
X015257Y009980D01*
X015338Y009946D01*
X015314Y009936D01*
X014304Y009936D01*
X014294Y009946D01*
X014365Y010017D01*
X014365Y010456D01*
X014365Y010453D02*
X015018Y010453D01*
X015018Y010355D02*
X014365Y010355D01*
X014365Y010256D02*
X015052Y010256D01*
X015093Y010158D02*
X014365Y010158D01*
X014365Y010059D02*
X015178Y010059D01*
X015304Y009961D02*
X014308Y009961D01*
X014318Y009696D02*
X014143Y009696D01*
X013818Y009696D01*
X013870Y009446D01*
X013417Y008976D02*
X013220Y008976D01*
X013262Y009074D02*
X013375Y009074D01*
X013375Y009173D02*
X013262Y009173D01*
X013262Y009271D02*
X013375Y009271D01*
X013375Y009370D02*
X013262Y009370D01*
X013262Y009468D02*
X013375Y009468D01*
X013375Y009567D02*
X013262Y009567D01*
X013262Y009665D02*
X013375Y009665D01*
X013375Y009764D02*
X013262Y009764D01*
X013262Y009862D02*
X013375Y009862D01*
X014318Y009696D02*
X015318Y009696D01*
X015568Y009446D01*
X015163Y009074D02*
X014365Y009074D01*
X014365Y009173D02*
X015087Y009173D01*
X015046Y009271D02*
X014365Y009271D01*
X014365Y009370D02*
X015018Y009370D01*
X015268Y008976D02*
X014323Y008976D01*
X015702Y008906D02*
X015752Y008927D01*
X015731Y008906D01*
X015702Y008906D01*
X016046Y008627D02*
X016358Y008939D01*
X016352Y008884D01*
X016305Y008769D01*
X016216Y008680D01*
X016099Y008680D01*
X016101Y008633D02*
X016046Y008627D01*
X016101Y008633D02*
X016216Y008680D01*
X016198Y008779D02*
X016309Y008779D01*
X016296Y008877D02*
X016350Y008877D01*
X016088Y009263D02*
X016108Y009313D01*
X016108Y009283D01*
X016088Y009263D01*
X016091Y009271D02*
X016096Y009271D01*
X016108Y009580D02*
X016035Y009758D01*
X015880Y009913D01*
X015799Y009946D01*
X015880Y009980D01*
X016035Y010135D01*
X016108Y010313D01*
X016108Y009580D01*
X016108Y009665D02*
X016073Y009665D01*
X016108Y009764D02*
X016029Y009764D01*
X016108Y009862D02*
X015931Y009862D01*
X015833Y009961D02*
X016108Y009961D01*
X016108Y010059D02*
X015959Y010059D01*
X016044Y010158D02*
X016108Y010158D01*
X016108Y010256D02*
X016085Y010256D01*
X015568Y011446D02*
X015318Y011696D01*
X016359Y015083D02*
X005095Y015083D01*
X005095Y015181D02*
X016359Y015181D01*
X016359Y015280D02*
X005095Y015280D01*
X005095Y015310D02*
X004989Y015416D01*
X004340Y015416D01*
X004235Y015310D01*
X004235Y014926D01*
X004098Y014926D01*
X004022Y015002D01*
X003890Y015056D01*
X003747Y015056D01*
X003615Y015002D01*
X003513Y014900D01*
X003458Y014768D01*
X003458Y014625D01*
X003513Y014492D01*
X003615Y014391D01*
X003747Y014336D01*
X003890Y014336D01*
X004022Y014391D01*
X004098Y014466D01*
X004791Y014466D01*
X004858Y014451D01*
X004883Y014466D01*
X004914Y014466D01*
X004924Y014477D01*
X004989Y014477D01*
X005095Y014582D01*
X005095Y015310D01*
X005027Y015378D02*
X016359Y015378D01*
X016359Y015477D02*
X000498Y015477D01*
X000498Y015575D02*
X016359Y015575D01*
X016359Y015674D02*
X000498Y015674D01*
X000512Y015772D02*
X016345Y015772D01*
X016304Y015871D02*
X000553Y015871D01*
X000666Y015969D02*
X016191Y015969D01*
X011105Y013113D02*
X010763Y013113D01*
X010763Y013211D02*
X011007Y013211D01*
X010908Y013310D02*
X010763Y013310D01*
X010746Y013408D02*
X010810Y013408D01*
X009620Y012916D02*
X009028Y012916D01*
X009028Y013014D02*
X009533Y013014D01*
X009533Y013113D02*
X009028Y013113D01*
X009028Y013211D02*
X009533Y013211D01*
X009533Y013310D02*
X009028Y013310D01*
X009028Y013408D02*
X009551Y013408D01*
X009533Y013507D02*
X009028Y013507D01*
X009028Y013605D02*
X009533Y013605D01*
X009533Y013704D02*
X009028Y013704D01*
X009010Y013802D02*
X009533Y013802D01*
X009543Y013901D02*
X008911Y013901D01*
X008905Y013906D02*
X008905Y013906D01*
X008813Y013999D02*
X009536Y013999D01*
X009533Y014098D02*
X008714Y014098D01*
X008616Y014196D02*
X009533Y014196D01*
X009533Y014295D02*
X008517Y014295D01*
X008419Y014393D02*
X009536Y014393D01*
X009589Y014492D02*
X008320Y014492D01*
X008222Y014590D02*
X009563Y014590D01*
X010138Y014787D02*
X010158Y014787D01*
X010158Y014886D02*
X010138Y014886D01*
X008608Y013609D02*
X008608Y011780D01*
X008573Y011866D01*
X008528Y011911D01*
X008528Y013689D01*
X008608Y013609D01*
X008608Y013605D02*
X008528Y013605D01*
X008528Y013507D02*
X008608Y013507D01*
X008608Y013408D02*
X008528Y013408D01*
X008528Y013310D02*
X008608Y013310D01*
X008608Y013211D02*
X008528Y013211D01*
X008528Y013113D02*
X008608Y013113D01*
X008608Y013014D02*
X008528Y013014D01*
X008528Y012916D02*
X008608Y012916D01*
X008608Y012817D02*
X008528Y012817D01*
X008528Y012719D02*
X008608Y012719D01*
X008608Y012620D02*
X008528Y012620D01*
X008528Y012522D02*
X008608Y012522D01*
X008608Y012423D02*
X008528Y012423D01*
X008528Y012325D02*
X008608Y012325D01*
X008608Y012226D02*
X008528Y012226D01*
X008528Y012128D02*
X008608Y012128D01*
X008608Y012029D02*
X008528Y012029D01*
X008528Y011931D02*
X008608Y011931D01*
X008608Y011832D02*
X008587Y011832D01*
X008577Y011537D02*
X008608Y011537D01*
X008608Y011438D02*
X008479Y011438D01*
X008608Y011340D02*
X006558Y011340D01*
X006558Y011438D02*
X008158Y011438D01*
X008060Y011537D02*
X006558Y011537D01*
X006558Y011635D02*
X008019Y011635D01*
X008018Y011734D02*
X006558Y011734D01*
X006558Y011832D02*
X008050Y011832D01*
X008108Y011931D02*
X006558Y011931D01*
X006558Y012029D02*
X008108Y012029D01*
X008108Y012128D02*
X006589Y012128D01*
X006688Y012226D02*
X008108Y012226D01*
X008108Y012325D02*
X006786Y012325D01*
X006885Y012423D02*
X008108Y012423D01*
X008108Y012522D02*
X006983Y012522D01*
X007082Y012620D02*
X008108Y012620D01*
X008108Y012719D02*
X007180Y012719D01*
X007279Y012817D02*
X008108Y012817D01*
X008108Y012916D02*
X008027Y012916D01*
X008108Y013396D02*
X008058Y013446D01*
X008108Y013497D01*
X008108Y013396D01*
X008108Y013408D02*
X008096Y013408D01*
X006886Y013999D02*
X006033Y013999D01*
X006033Y013901D02*
X006598Y013901D01*
X006883Y014098D02*
X006014Y014098D01*
X005618Y014098D02*
X005518Y014098D01*
X005518Y014173D02*
X005234Y014173D01*
X005196Y014163D01*
X005161Y014143D01*
X005133Y014115D01*
X005114Y014081D01*
X005104Y014043D01*
X005104Y013798D01*
X005518Y013798D01*
X005518Y014173D01*
X005518Y013999D02*
X005618Y013999D01*
X005618Y013901D02*
X005518Y013901D01*
X005518Y013802D02*
X005618Y013802D01*
X005568Y013748D02*
X005318Y013696D01*
X005318Y015696D01*
X002318Y015696D01*
X001818Y015196D01*
X001568Y014946D01*
X001518Y014984D02*
X000498Y014984D01*
X000498Y014886D02*
X001052Y014886D01*
X001073Y014787D02*
X000498Y014787D01*
X000498Y014689D02*
X001116Y014689D01*
X001189Y014590D02*
X000498Y014590D01*
X000498Y014492D02*
X001316Y014492D01*
X001237Y014393D02*
X000498Y014393D01*
X000498Y014295D02*
X001139Y014295D01*
X001077Y014196D02*
X000498Y014196D01*
X000498Y014098D02*
X001036Y014098D01*
X001018Y013999D02*
X000498Y013999D01*
X000498Y013901D02*
X001018Y013901D01*
X001033Y013802D02*
X000498Y013802D01*
X000498Y013704D02*
X001074Y013704D01*
X001132Y013605D02*
X000498Y013605D01*
X000498Y013507D02*
X001230Y013507D01*
X001252Y013408D02*
X000498Y013408D01*
X000498Y013310D02*
X001154Y013310D01*
X001083Y013211D02*
X000498Y013211D01*
X000498Y013113D02*
X001042Y013113D01*
X001018Y013014D02*
X000498Y013014D01*
X000498Y012916D02*
X001018Y012916D01*
X001027Y012817D02*
X000498Y012817D01*
X000498Y012719D02*
X001068Y012719D01*
X001088Y012620D02*
X000498Y012620D01*
X000498Y012522D02*
X001088Y012522D01*
X001088Y012423D02*
X000498Y012423D01*
X000498Y012325D02*
X001088Y012325D01*
X001088Y012226D02*
X000498Y012226D01*
X000498Y012128D02*
X001088Y012128D01*
X001088Y012029D02*
X000498Y012029D01*
X000498Y011931D02*
X001088Y011931D01*
X001088Y011832D02*
X000498Y011832D01*
X000498Y011734D02*
X001088Y011734D01*
X001088Y011635D02*
X000498Y011635D01*
X000498Y011537D02*
X001088Y011537D01*
X000924Y011438D02*
X000498Y011438D01*
X000498Y011340D02*
X000898Y011340D01*
X000898Y011241D02*
X000498Y011241D01*
X000498Y011143D02*
X000898Y011143D01*
X000898Y011044D02*
X000498Y011044D01*
X000498Y010946D02*
X000898Y010946D01*
X000898Y010847D02*
X000498Y010847D01*
X000498Y010749D02*
X000898Y010749D01*
X000898Y010650D02*
X000498Y010650D01*
X000498Y010552D02*
X000898Y010552D01*
X000898Y010453D02*
X000498Y010453D01*
X000498Y010355D02*
X000898Y010355D01*
X000898Y010256D02*
X000498Y010256D01*
X000498Y010158D02*
X000898Y010158D01*
X000898Y010059D02*
X000498Y010059D01*
X000498Y009961D02*
X000898Y009961D01*
X000898Y009862D02*
X000498Y009862D01*
X000498Y009764D02*
X000898Y009764D01*
X000898Y009665D02*
X000498Y009665D01*
X000498Y009567D02*
X000898Y009567D01*
X000898Y009468D02*
X000498Y009468D01*
X000498Y009370D02*
X000898Y009370D01*
X000898Y009271D02*
X000498Y009271D01*
X000498Y009173D02*
X000898Y009173D01*
X000898Y009074D02*
X000498Y009074D01*
X000498Y008976D02*
X000942Y008976D01*
X000641Y008680D02*
X000641Y008680D01*
X001844Y008976D02*
X002773Y008976D01*
X002749Y009074D02*
X001888Y009074D01*
X001888Y009173D02*
X002749Y009173D01*
X002749Y009271D02*
X001888Y009271D01*
X001888Y009370D02*
X002749Y009370D01*
X002749Y009468D02*
X001888Y009468D01*
X001888Y009567D02*
X002749Y009567D01*
X002749Y009665D02*
X001888Y009665D01*
X001888Y009764D02*
X002749Y009764D01*
X002749Y009862D02*
X001888Y009862D01*
X001888Y009961D02*
X002749Y009961D01*
X002749Y010059D02*
X001888Y010059D01*
X001888Y010158D02*
X002749Y010158D01*
X002749Y010256D02*
X001888Y010256D01*
X001888Y010355D02*
X002749Y010355D01*
X002737Y010453D02*
X001888Y010453D01*
X001888Y010552D02*
X002638Y010552D01*
X002540Y010650D02*
X001888Y010650D01*
X001888Y010749D02*
X002441Y010749D01*
X002343Y010847D02*
X001888Y010847D01*
X001888Y010946D02*
X002244Y010946D01*
X002146Y011044D02*
X001888Y011044D01*
X001888Y011143D02*
X002088Y011143D01*
X002088Y011241D02*
X001888Y011241D01*
X001888Y011340D02*
X002088Y011340D01*
X002088Y011438D02*
X001863Y011438D01*
X002088Y011537D02*
X001548Y011537D01*
X001548Y011635D02*
X002088Y011635D01*
X002088Y011734D02*
X001548Y011734D01*
X001548Y011832D02*
X002088Y011832D01*
X002088Y011931D02*
X001548Y011931D01*
X001548Y012029D02*
X002088Y012029D01*
X002088Y012128D02*
X001548Y012128D01*
X001548Y012226D02*
X002088Y012226D01*
X002088Y012325D02*
X001548Y012325D01*
X001742Y012423D02*
X002088Y012423D01*
X002088Y012522D02*
X001921Y012522D01*
X002020Y012620D02*
X002088Y012620D01*
X002088Y012719D02*
X002069Y012719D01*
X002318Y012696D02*
X002668Y012346D01*
X002692Y012322D01*
X002807Y012322D01*
X002568Y012446D02*
X002318Y012696D01*
X002318Y013196D01*
X002318Y012696D01*
X002318Y013196D01*
X002543Y014046D01*
X002283Y014295D02*
X002242Y014295D01*
X002238Y014250D02*
X002183Y014118D01*
X002183Y013975D01*
X002238Y013842D01*
X002249Y013832D01*
X002112Y013315D01*
X002088Y013292D01*
X002088Y013226D01*
X002073Y013166D01*
X002035Y013258D01*
X001880Y013413D01*
X001799Y013446D01*
X001880Y013480D01*
X002035Y013635D01*
X002118Y013837D01*
X002118Y014056D01*
X002085Y014137D01*
X002542Y014595D01*
X002542Y014582D01*
X002647Y014477D01*
X002741Y014477D01*
X003108Y014109D01*
X003108Y013314D01*
X003101Y013318D01*
X003063Y013329D01*
X002811Y013329D01*
X002811Y013075D01*
X002802Y013075D01*
X002802Y013329D01*
X002591Y013329D01*
X002695Y013719D01*
X002747Y013741D01*
X002849Y013842D01*
X002903Y013975D01*
X002903Y014118D01*
X002849Y014250D01*
X002747Y014352D01*
X002615Y014406D01*
X002472Y014406D01*
X002340Y014352D01*
X002238Y014250D01*
X002216Y014196D02*
X002143Y014196D01*
X002183Y014098D02*
X002101Y014098D01*
X002118Y013999D02*
X002183Y013999D01*
X002214Y013901D02*
X002118Y013901D01*
X002104Y013802D02*
X002241Y013802D01*
X002215Y013704D02*
X002063Y013704D01*
X002005Y013605D02*
X002189Y013605D01*
X002163Y013507D02*
X001906Y013507D01*
X001885Y013408D02*
X002137Y013408D01*
X002106Y013310D02*
X001983Y013310D01*
X002054Y013211D02*
X002084Y013211D01*
X002080Y013150D02*
X002088Y013128D01*
X002088Y013134D01*
X002080Y013150D01*
X002548Y012813D02*
X002551Y012812D01*
X002802Y012812D01*
X002802Y013066D01*
X002811Y013066D01*
X002811Y012812D01*
X003063Y012812D01*
X003101Y012822D01*
X003108Y012827D01*
X003108Y012611D01*
X002729Y012611D01*
X002548Y012792D01*
X002548Y012813D01*
X002622Y012719D02*
X003108Y012719D01*
X003108Y012817D02*
X003081Y012817D01*
X003108Y012620D02*
X002720Y012620D01*
X002802Y012817D02*
X002811Y012817D01*
X002802Y012916D02*
X002811Y012916D01*
X002802Y013014D02*
X002811Y013014D01*
X002807Y013070D02*
X002807Y013510D01*
X002843Y013546D01*
X002665Y013605D02*
X003108Y013605D01*
X003108Y013507D02*
X002639Y013507D01*
X002612Y013408D02*
X003108Y013408D01*
X003108Y013704D02*
X002691Y013704D01*
X002808Y013802D02*
X003108Y013802D01*
X003108Y013901D02*
X002873Y013901D01*
X002903Y013999D02*
X003108Y013999D01*
X003108Y014098D02*
X002903Y014098D01*
X002871Y014196D02*
X003022Y014196D01*
X002923Y014295D02*
X002804Y014295D01*
X002825Y014393D02*
X002647Y014393D01*
X002633Y014492D02*
X002439Y014492D01*
X002440Y014393D02*
X002340Y014393D01*
X002537Y014590D02*
X002542Y014590D01*
X002182Y014886D02*
X002085Y014886D01*
X002084Y014787D02*
X002063Y014787D01*
X002281Y014984D02*
X001618Y014984D01*
X001618Y014996D02*
X002087Y014996D01*
X002076Y015068D01*
X002050Y015146D01*
X002013Y015219D01*
X001965Y015285D01*
X001907Y015343D01*
X001841Y015391D01*
X001768Y015428D01*
X001690Y015454D01*
X001618Y015465D01*
X001618Y014996D01*
X001618Y015083D02*
X001518Y015083D01*
X001518Y014996D02*
X001518Y015465D01*
X001447Y015454D01*
X001369Y015428D01*
X001296Y015391D01*
X001230Y015343D01*
X001172Y015285D01*
X001124Y015219D01*
X001087Y015146D01*
X001061Y015068D01*
X001050Y014996D01*
X001518Y014996D01*
X001518Y015181D02*
X001618Y015181D01*
X001618Y015280D02*
X001518Y015280D01*
X001518Y015378D02*
X001618Y015378D01*
X001859Y015378D02*
X002610Y015378D01*
X002542Y015280D02*
X001969Y015280D01*
X002033Y015181D02*
X002478Y015181D01*
X002379Y015083D02*
X002071Y015083D01*
X001818Y015196D02*
X002318Y015696D01*
X005318Y015696D01*
X005095Y014984D02*
X006977Y014984D01*
X006883Y014886D02*
X005095Y014886D01*
X005095Y014787D02*
X006883Y014787D01*
X006883Y014689D02*
X005095Y014689D01*
X005095Y014590D02*
X006883Y014590D01*
X006894Y014492D02*
X005004Y014492D01*
X004818Y014696D02*
X004665Y014946D01*
X004818Y014696D02*
X003818Y014696D01*
X004040Y014984D02*
X004235Y014984D01*
X004235Y015083D02*
X003402Y015083D01*
X003402Y015181D02*
X004235Y015181D01*
X004235Y015280D02*
X003402Y015280D01*
X003334Y015378D02*
X004303Y015378D01*
X003597Y014984D02*
X003402Y014984D01*
X003402Y014886D02*
X003507Y014886D01*
X003466Y014787D02*
X003402Y014787D01*
X003402Y014689D02*
X003458Y014689D01*
X003473Y014590D02*
X003402Y014590D01*
X003320Y014492D02*
X003514Y014492D01*
X003419Y014393D02*
X003613Y014393D01*
X003517Y014295D02*
X006883Y014295D01*
X006886Y014393D02*
X004024Y014393D01*
X003528Y014196D02*
X006883Y014196D01*
X006797Y013014D02*
X006492Y013014D01*
X006608Y012916D02*
X006698Y012916D01*
X006318Y012696D02*
X005818Y012696D01*
X005568Y012645D01*
X005994Y012226D02*
X006009Y012226D01*
X006063Y012325D02*
X006107Y012325D01*
X006083Y012423D02*
X006063Y012423D01*
X005910Y012128D02*
X004558Y012128D01*
X004558Y012226D02*
X005143Y012226D01*
X005074Y012325D02*
X004525Y012325D01*
X004431Y012423D02*
X005074Y012423D01*
X005074Y012522D02*
X004333Y012522D01*
X004247Y012620D02*
X005074Y012620D01*
X004558Y012029D02*
X005812Y012029D01*
X005713Y011931D02*
X004558Y011931D01*
X004558Y011832D02*
X004948Y011832D01*
X004916Y011734D02*
X004558Y011734D01*
X004558Y011635D02*
X004916Y011635D01*
X004916Y011537D02*
X004558Y011537D01*
X004558Y011438D02*
X004916Y011438D01*
X004916Y011340D02*
X004558Y011340D01*
X004558Y011241D02*
X004916Y011241D01*
X004916Y011143D02*
X004558Y011143D01*
X004558Y011044D02*
X005012Y011044D01*
X006558Y011044D02*
X008608Y011044D01*
X008608Y010946D02*
X008347Y010946D01*
X008446Y010847D02*
X008608Y010847D01*
X008608Y010749D02*
X008544Y010749D01*
X008608Y011143D02*
X006558Y011143D01*
X006558Y011241D02*
X008608Y011241D01*
X006145Y013014D02*
X006045Y013014D01*
X005618Y013408D02*
X005518Y013408D01*
X005518Y013507D02*
X005618Y013507D01*
X005618Y013605D02*
X005518Y013605D01*
X005518Y013704D02*
X003528Y013704D01*
X003528Y013802D02*
X005104Y013802D01*
X005104Y013901D02*
X003528Y013901D01*
X003528Y013999D02*
X005104Y013999D01*
X005123Y014098D02*
X003528Y014098D01*
X003528Y013605D02*
X005104Y013605D01*
X005104Y013507D02*
X003528Y013507D01*
X003528Y013408D02*
X005117Y013408D01*
X003414Y012423D02*
X003223Y012423D01*
X003223Y012325D02*
X003414Y012325D01*
X003414Y012226D02*
X003223Y012226D01*
X003211Y012128D02*
X003426Y012128D01*
X002794Y011438D02*
X002548Y011438D01*
X002548Y011340D02*
X002749Y011340D01*
X002749Y011241D02*
X002599Y011241D01*
X002698Y011143D02*
X002749Y011143D01*
X002318Y011196D02*
X003318Y010196D01*
X003244Y010196D01*
X002318Y011196D02*
X002318Y012696D01*
X002802Y013113D02*
X002811Y013113D01*
X002802Y013211D02*
X002811Y013211D01*
X002802Y013310D02*
X002811Y013310D01*
X001818Y014196D02*
X001568Y013946D01*
X001818Y014196D02*
X002818Y015196D01*
X002972Y014946D01*
X001278Y015378D02*
X000498Y015378D01*
X000498Y015280D02*
X001168Y015280D01*
X001104Y015181D02*
X000498Y015181D01*
X000498Y015083D02*
X001066Y015083D01*
X001568Y012946D02*
X001318Y012696D01*
X001318Y010696D01*
X001393Y010216D01*
X004005Y007104D02*
X004216Y007104D01*
X003510Y005725D02*
X005085Y005725D01*
X005085Y005627D02*
X003510Y005627D01*
X003510Y005528D02*
X005092Y005528D01*
X005201Y005430D02*
X004155Y005430D01*
X004228Y005331D02*
X006865Y005331D01*
X006865Y005233D02*
X004228Y005233D01*
X004228Y005134D02*
X005090Y005134D01*
X005055Y005036D02*
X004228Y005036D01*
X004228Y004937D02*
X005055Y004937D01*
X005055Y004839D02*
X004228Y004839D01*
X004228Y004740D02*
X005055Y004740D01*
X005055Y004642D02*
X004298Y004642D01*
X004396Y004543D02*
X005055Y004543D01*
X005055Y004445D02*
X004495Y004445D01*
X004540Y004346D02*
X005108Y004346D01*
X004945Y003952D02*
X004540Y003952D01*
X004540Y003854D02*
X004898Y003854D01*
X004898Y003755D02*
X004540Y003755D01*
X004540Y003657D02*
X004898Y003657D01*
X004898Y003558D02*
X004540Y003558D01*
X004540Y003460D02*
X004898Y003460D01*
X004898Y003361D02*
X004540Y003361D01*
X004540Y003263D02*
X004898Y003263D01*
X004977Y003164D02*
X004540Y003164D01*
X004540Y003066D02*
X006060Y003066D01*
X006060Y002967D02*
X004540Y002967D01*
X004540Y002869D02*
X006060Y002869D01*
X006060Y002770D02*
X004540Y002770D01*
X004540Y002672D02*
X006060Y002672D01*
X006060Y002573D02*
X004540Y002573D01*
X004540Y002475D02*
X006060Y002475D01*
X006060Y002376D02*
X004540Y002376D01*
X004540Y002278D02*
X006060Y002278D01*
X006060Y002179D02*
X004540Y002179D01*
X004540Y002081D02*
X006060Y002081D01*
X006060Y001982D02*
X004540Y001982D01*
X004540Y001884D02*
X004967Y001884D01*
X004928Y001785D02*
X004540Y001785D01*
X004540Y001687D02*
X004928Y001687D01*
X005500Y001687D02*
X005600Y001687D01*
X005600Y001785D02*
X005500Y001785D01*
X005500Y001884D02*
X005600Y001884D01*
X005600Y001588D02*
X005500Y001588D01*
X005500Y001391D02*
X005600Y001391D01*
X005600Y001293D02*
X005500Y001293D01*
X005500Y001194D02*
X005600Y001194D01*
X004461Y000800D02*
X000606Y000800D01*
X000523Y000899D02*
X004362Y000899D01*
X004264Y000997D02*
X000485Y000997D01*
X000480Y001096D02*
X000907Y001096D01*
X000880Y001194D02*
X000480Y001194D01*
X000480Y001293D02*
X000880Y001293D01*
X000880Y001391D02*
X000480Y001391D01*
X000480Y001490D02*
X000880Y001490D01*
X000880Y001588D02*
X000480Y001588D01*
X000480Y001687D02*
X000880Y001687D01*
X000880Y001785D02*
X000480Y001785D01*
X000480Y001884D02*
X000880Y001884D01*
X000880Y001982D02*
X000480Y001982D01*
X000480Y002081D02*
X000880Y002081D01*
X000880Y002179D02*
X000480Y002179D01*
X003110Y004149D02*
X003490Y004149D01*
X003396Y004248D02*
X003204Y004248D01*
X003204Y004346D02*
X003396Y004346D01*
X003396Y004445D02*
X003204Y004445D01*
X003204Y004543D02*
X003396Y004543D01*
X003812Y004426D02*
X003812Y004800D01*
X004540Y004248D02*
X005908Y004248D01*
X005992Y004346D02*
X006007Y004346D01*
X006045Y004445D02*
X006105Y004445D01*
X006048Y004543D02*
X006045Y004543D01*
X005800Y004800D02*
X005550Y004749D01*
X005800Y004800D02*
X006300Y004800D01*
X006166Y005134D02*
X006010Y005134D01*
X005899Y005430D02*
X006865Y005430D01*
X006673Y005528D02*
X006008Y005528D01*
X006015Y005627D02*
X006549Y005627D01*
X006506Y005725D02*
X006015Y005725D01*
X005600Y005627D02*
X005500Y005627D01*
X005500Y005528D02*
X005600Y005528D01*
X005600Y005430D02*
X005500Y005430D01*
X005500Y005922D02*
X005600Y005922D01*
X005600Y006021D02*
X005500Y006021D01*
X005500Y006119D02*
X005600Y006119D01*
X005600Y006218D02*
X005500Y006218D01*
X006434Y005134D02*
X006795Y005134D01*
X006696Y005036D02*
X006574Y005036D01*
X005810Y004149D02*
X004540Y004149D01*
X004540Y004051D02*
X005711Y004051D01*
X002598Y006612D02*
X002437Y006612D01*
X002082Y006907D02*
X002050Y006907D01*
X013244Y004346D02*
X013386Y004346D01*
X013386Y004248D02*
X013244Y004248D01*
X013244Y004149D02*
X013393Y004149D01*
X014982Y006415D02*
X015011Y006415D01*
D21*
X004818Y013196D03*
X002843Y013546D03*
X002825Y005650D03*
X004800Y005300D03*
D22*
X003812Y004800D02*
X003800Y004800D01*
X003812Y004800D01*
X003800Y004800D02*
X003300Y004800D01*
X003300Y006300D01*
X002800Y006800D01*
X002954Y007050D01*
X005300Y007800D02*
X008800Y007800D01*
X009800Y006800D01*
X010130Y006800D01*
X009800Y006800D01*
X009300Y006300D01*
X009300Y004300D01*
X010300Y003300D01*
X010300Y002800D01*
X010050Y002550D01*
X010300Y001800D02*
X010050Y001550D01*
X010300Y001800D02*
X010800Y002300D01*
X010800Y004800D01*
X010300Y005300D01*
X010130Y005300D01*
X010130Y005800D02*
X010300Y005800D01*
X010800Y005800D01*
X011300Y005300D01*
X011300Y004800D01*
X011300Y000800D01*
X015800Y000800D01*
X016300Y001300D01*
X016300Y005800D01*
X015800Y006300D01*
X015550Y006550D01*
X015300Y005800D02*
X014800Y006300D01*
X010300Y006300D01*
X010130Y006300D01*
X008800Y005800D02*
X008800Y002300D01*
X009050Y002450D01*
X008050Y002550D02*
X007800Y002800D01*
X006300Y002800D01*
X006300Y000800D01*
X005300Y000800D01*
X004300Y001300D02*
X004300Y003800D01*
X005550Y003574D02*
X005800Y003800D01*
X006300Y004300D01*
X006300Y002800D01*
X006300Y004300D02*
X007300Y005300D01*
X007480Y005300D01*
X007480Y005800D02*
X007300Y005800D01*
X006800Y005800D01*
X007480Y006300D02*
X007800Y006300D01*
X008300Y005800D01*
X008300Y003800D01*
X008800Y005800D02*
X007800Y006800D01*
X007480Y006800D01*
X006318Y008696D02*
X006318Y010696D01*
X007818Y010696D01*
X008068Y010446D01*
X008818Y010196D02*
X009068Y010346D01*
X008818Y010196D02*
X008818Y013696D01*
X007818Y014696D01*
X007498Y014696D01*
X007498Y014196D02*
X007818Y014196D01*
X008318Y013696D01*
X008318Y011696D01*
X009318Y012196D02*
X010318Y011196D01*
X010318Y010696D01*
X010068Y010446D01*
X010318Y009696D02*
X010068Y009446D01*
X010318Y009696D02*
X010818Y010196D01*
X010818Y012696D01*
X010318Y013196D01*
X010148Y013196D01*
X010148Y013696D02*
X010318Y013696D01*
X010818Y013696D01*
X011318Y013196D01*
X011318Y012696D01*
X011318Y008696D01*
X015818Y008696D01*
X016318Y009196D01*
X016318Y013696D01*
X015818Y014196D01*
X015568Y014446D01*
X015318Y013696D02*
X014818Y014196D01*
X010318Y014196D01*
X010148Y014196D01*
X010148Y014696D02*
X009818Y014696D01*
X009318Y014196D01*
X009318Y012196D01*
X011318Y012696D02*
X012818Y012696D01*
X012767Y012446D01*
X012818Y011696D02*
X012767Y011446D01*
X012818Y011696D02*
X013318Y011696D01*
X013870Y012446D02*
X013818Y012696D01*
X015318Y012696D01*
X015568Y012446D01*
X015568Y013446D02*
X015318Y013696D01*
X012767Y010446D02*
X012818Y010196D01*
X013318Y010196D01*
X012818Y009696D02*
X012767Y009446D01*
X012818Y009696D02*
X011818Y009696D01*
X011818Y012196D01*
X010148Y014696D02*
X009818Y014696D01*
X008818Y015696D01*
X005318Y015696D01*
X003318Y014196D02*
X002818Y014696D01*
X002972Y014946D01*
X003318Y014196D02*
X003318Y012696D01*
X003818Y012696D01*
X003830Y012696D01*
X003818Y012696D01*
X004318Y011696D02*
X004318Y009196D01*
X005318Y008696D02*
X006318Y008696D01*
X006318Y010696D02*
X006318Y012196D01*
X007318Y013196D01*
X007498Y013196D01*
X007498Y013696D02*
X007318Y013696D01*
X006818Y013696D01*
X006318Y012196D02*
X005818Y011696D01*
X005568Y011470D01*
X009068Y009346D02*
X009318Y009196D01*
X009818Y008696D01*
X011318Y008696D01*
X011300Y004800D02*
X012800Y004800D01*
X012749Y004550D01*
X012800Y003800D02*
X012749Y003550D01*
X012800Y003800D02*
X013300Y003800D01*
X013851Y004550D02*
X013800Y004800D01*
X015300Y004800D01*
X015550Y004550D01*
X015550Y005550D02*
X015300Y005800D01*
X012749Y002550D02*
X012800Y002300D01*
X013300Y002300D01*
X012800Y001800D02*
X012749Y001550D01*
X012800Y001800D02*
X011800Y001800D01*
X011800Y004300D01*
X009300Y001300D02*
X009050Y001450D01*
X009300Y001300D02*
X009800Y000800D01*
X011300Y000800D01*
D23*
X014125Y001800D02*
X014300Y001800D01*
X015300Y001800D01*
X015575Y001525D01*
X015575Y002525D02*
X015300Y002800D01*
X014100Y002800D01*
X014300Y002800D01*
X014300Y003800D02*
X014050Y003800D01*
X014025Y003775D01*
X014300Y003800D02*
X015300Y003800D01*
X015550Y003550D01*
X009800Y006800D02*
X008800Y007800D01*
X005300Y007800D01*
X002325Y007800D01*
X001575Y007050D01*
X003800Y004800D02*
X004300Y004300D01*
X004300Y003800D01*
X004300Y001300D01*
X004800Y000800D01*
X005300Y000800D01*
X006300Y000800D01*
X006300Y002800D01*
X007800Y002800D01*
X008050Y002550D01*
X006300Y002800D02*
X006300Y004300D01*
X005800Y003800D01*
X006300Y004300D02*
X007300Y005300D01*
X006318Y008696D02*
X005318Y008696D01*
X004818Y008696D01*
X004318Y009196D01*
X004318Y011696D01*
X004318Y012196D01*
X003818Y012696D01*
X005818Y011696D02*
X006318Y012196D01*
X006318Y010696D01*
X007818Y010696D01*
X008068Y010446D01*
X006318Y010696D02*
X006318Y008696D01*
X006318Y012196D02*
X007318Y013196D01*
X008818Y015696D02*
X009818Y014696D01*
X008818Y015696D02*
X005318Y015696D01*
X002343Y015696D01*
X001593Y014946D01*
X014043Y011671D02*
X014068Y011696D01*
X014318Y011696D01*
X015318Y011696D01*
X015568Y011446D01*
X015318Y010696D02*
X015593Y010421D01*
X015318Y010696D02*
X014118Y010696D01*
X014318Y010696D01*
X014318Y009696D02*
X014143Y009696D01*
X014318Y009696D02*
X015318Y009696D01*
X015593Y009421D01*
D24*
X006318Y012696D03*
X003818Y014696D03*
X002543Y014046D03*
X003800Y006800D03*
X002525Y006150D03*
X006300Y004800D03*
D25*
X006800Y005800D03*
X008300Y003800D03*
X011800Y004300D03*
X013300Y003800D03*
X013300Y002300D03*
X013318Y010196D03*
X013318Y011696D03*
X011818Y012196D03*
X008318Y011696D03*
X006818Y013696D03*
M02*
